LinguisticsPro-Regular.ufo
<glyph name="numbersign" format="1">
  <advance width="530"/>
  <unicode hex="0023"/>
  <outline>
    <contour>
      <point x="11" y="232" type="line"/>
      <point x="23" y="278" type="line"/>
      <point x="129" y="278" type="line"/>
      <point x="162" y="411" type="line"/>
      <point x="55" y="411" type="line"/>
      <point x="67" y="457" type="line"/>
      <point x="173" y="457" type="line"/>
      <point x="225" y="668" type="line"/>
      <point x="279" y="668" type="line"/>
      <point x="227" y="457" type="line"/>
      <point x="362" y="457" type="line"/>
      <point x="414" y="668" type="line"/>
      <point x="467" y="668" type="line"/>
      <point x="415" y="457" type="line"/>
      <point x="519" y="457" type="line"/>
      <point x="509" y="411" type="line"/>
      <point x="404" y="411" type="line"/>
      <point x="371" y="278" type="line"/>
      <point x="475" y="278" type="line"/>
      <point x="465" y="232" type="line"/>
      <point x="360" y="232" type="line"/>
      <point x="303" y="0" type="line"/>
      <point x="249" y="0" type="line"/>
      <point x="307" y="232" type="line"/>
      <point x="172" y="232" type="line"/>
      <point x="115" y="0" type="line"/>
      <point x="60" y="0" type="line"/>
      <point x="118" y="232" type="line"/>
    </contour>
    <contour>
      <point x="183" y="278" type="line"/>
      <point x="318" y="278" type="line"/>
      <point x="351" y="411" type="line"/>
      <point x="216" y="411" type="line"/>
    </contour>
  </outline>
</glyph>
<glyph name="dollar" format="1">
  <advance width="530"/>
  <unicode hex="0024"/>
  <outline>
    <contour>
      <point x="44" y="110" type="curve" smooth="yes"/>
      <point x="44" y="140"/>
      <point x="70" y="161"/>
      <point x="90" y="161" type="curve" smooth="yes"/>
      <point x="104" y="161"/>
      <point x="112" y="153"/>
      <point x="119" y="139" type="curve" smooth="yes"/>
      <point x="160" y="54"/>
      <point x="211" y="36"/>
      <point x="243" y="35" type="curve"/>
      <point x="243" y="311" type="line"/>
      <point x="104" y="352"/>
      <point x="56" y="415"/>
      <point x="56" y="495" type="curve" smooth="yes"/>
      <point x="56" y="612"/>
      <point x="149" y="665"/>
      <point x="243" y="667" type="curve"/>
      <point x="243" y="743" type="line"/>
      <point x="283" y="743" type="line"/>
      <point x="283" y="668" type="line"/>
      <point x="402" y="665"/>
      <point x="458" y="607"/>
      <point x="458" y="565" type="curve" smooth="yes"/>
      <point x="458" y="536"/>
      <point x="428" y="524"/>
      <point x="412" y="524" type="curve" smooth="yes"/>
      <point x="398" y="524"/>
      <point x="391" y="529"/>
      <point x="385" y="544" type="curve" smooth="yes"/>
      <point x="361" y="603"/>
      <point x="323" y="630"/>
      <point x="283" y="633" type="curve"/>
      <point x="283" y="390" type="line"/>
      <point x="417" y="352"/>
      <point x="487" y="291"/>
      <point x="487" y="183" type="curve" smooth="yes"/>
      <point x="487" y="20"/>
      <point x="322" y="0"/>
      <point x="283" y="0" type="curve"/>
      <point x="283" y="-102" type="line"/>
      <point x="243" y="-102" type="line"/>
      <point x="243" y="0" type="line"/>
      <point x="90" y="4"/>
      <point x="44" y="77"/>
    </contour>
    <contour>
      <point x="135" y="522" type="curve" smooth="yes"/>
      <point x="135" y="448"/>
      <point x="192" y="422"/>
      <point x="243" y="405" type="curve"/>
      <point x="243" y="632" type="line"/>
      <point x="200" y="632"/>
      <point x="135" y="604"/>
    </contour>
    <contour>
      <point x="283" y="35" type="line"/>
      <point x="332" y="35"/>
      <point x="400" y="59"/>
      <point x="400" y="152" type="curve" smooth="yes"/>
      <point x="400" y="241"/>
      <point x="349" y="277"/>
      <point x="283" y="298" type="curve"/>
    </contour>
  </outline>
</glyph>
<glyph name="ampersand" format="2">
	<unicode hex="0026"/>
	<advance width="706"/>
	<outline>
		<contour>
			<point x="46" y="170" type="curve" smooth="yes"/>
			<point x="46" y="274"/>
			<point x="125" y="325"/>
			<point x="192" y="366" type="curve"/>
			<point x="161" y="406"/>
			<point x="126" y="453"/>
			<point x="126" y="517" type="curve" smooth="yes"/>
			<point x="126" y="608"/>
			<point x="195" y="680"/>
			<point x="290" y="680" type="curve" smooth="yes"/>
			<point x="370" y="680"/>
			<point x="437" y="630"/>
			<point x="437" y="546" type="curve" smooth="yes"/>
			<point x="437" y="462"/>
			<point x="369" y="423"/>
			<point x="291" y="382" type="curve"/>
			<point x="348" y="312"/>
			<point x="411" y="243"/>
			<point x="500" y="161" type="curve"/>
			<point x="549" y="219"/>
			<point x="563" y="295"/>
			<point x="563" y="362" type="curve" smooth="yes"/>
			<point x="563" y="381"/>
			<point x="562" y="400"/>
			<point x="560" y="416" type="curve"/>
			<point x="581" y="428"/>
			<point x="605" y="434"/>
			<point x="625" y="434" type="curve" smooth="yes"/>
			<point x="629" y="434"/>
			<point x="634" y="434"/>
			<point x="638" y="433" type="curve"/>
			<point x="651" y="407"/>
			<point x="657" y="387"/>
			<point x="657" y="368" type="curve" smooth="yes"/>
			<point x="657" y="298"/>
			<point x="568" y="186"/>
			<point x="526" y="136" type="curve"/>
			<point x="564" y="98"/>
			<point x="644" y="31"/>
			<point x="692" y="18" type="curve"/>
			<point x="687" y="-7" type="line"/>
			<point x="666" y="-5" type="line" smooth="yes"/>
			<point x="573" y="2"/>
			<point x="543" y="16"/>
			<point x="471" y="73" type="curve"/>
			<point x="406" y="15"/>
			<point x="339" y="-12"/>
			<point x="262" y="-12" type="curve" smooth="yes"/>
			<point x="142" y="-12"/>
			<point x="46" y="56"/>
		</contour>
		<contour>
			<point x="145" y="196" type="curve" smooth="yes"/>
			<point x="145" y="101"/>
			<point x="208" y="37"/>
			<point x="302" y="37" type="curve" smooth="yes"/>
			<point x="359" y="37"/>
			<point x="401" y="60"/>
			<point x="445" y="98" type="curve"/>
			<point x="355" y="179"/>
			<point x="278" y="259"/>
			<point x="212" y="338" type="curve"/>
			<point x="189" y="318"/>
			<point x="145" y="275"/>
		</contour>
		<contour>
			<point x="203" y="544" type="curve" smooth="yes"/>
			<point x="203" y="496"/>
			<point x="227" y="452"/>
			<point x="268" y="406" type="curve"/>
			<point x="323" y="444"/>
			<point x="360" y="491"/>
			<point x="360" y="552" type="curve" smooth="yes"/>
			<point x="360" y="602"/>
			<point x="335" y="645"/>
			<point x="287" y="645" type="curve" smooth="yes"/>
			<point x="242" y="645"/>
			<point x="203" y="606"/>
		</contour>
	</outline>
</glyph>
<glyph name="quotesingle" format="1">
  <advance width="278"/>
  <unicode hex="0027"/>
  <outline>
    <contour>
      <point x="93" y="703" type="curve" smooth="yes"/>
      <point x="93" y="729"/>
      <point x="107" y="742"/>
      <point x="139" y="742" type="curve" smooth="yes"/>
      <point x="171" y="742"/>
      <point x="185" y="729"/>
      <point x="185" y="703" type="curve" smooth="yes"/>
      <point x="185" y="698"/>
      <point x="185" y="694"/>
      <point x="184" y="689" type="curve" smooth="yes"/>
      <point x="149" y="464" type="line"/>
      <point x="129" y="464" type="line"/>
      <point x="94" y="689" type="line" smooth="yes"/>
      <point x="93" y="694"/>
      <point x="93" y="698"/>
    </contour>
  </outline>
</glyph>
<glyph name="parenright" format="2">
	<unicode hex="0029"/>
	<advance width="350"/>
	<outline>
		<contour>
			<point x="25" y="-103" type="line"/>
			<point x="83" y="-91"/>
			<point x="175" y="-6"/>
			<point x="175" y="282" type="curve" smooth="yes"/>
			<point x="175" y="568"/>
			<point x="88" y="654"/>
			<point x="25" y="667" type="curve"/>
			<point x="25" y="692" type="line"/>
			<point x="200" y="685"/>
			<point x="245" y="468"/>
			<point x="245" y="282" type="curve" smooth="yes"/>
			<point x="245" y="96"/>
			<point x="200" y="-121"/>
			<point x="25" y="-128" type="curve"/>
		</contour>
	</outline>
</glyph>
<glyph name="asterisk" format="2">
	<unicode hex="002A"/>
	<advance width="412"/>
	<outline>
		<contour>
			<point x="52" y="459" type="curve" smooth="yes"/>
			<point x="52" y="471"/>
			<point x="58" y="480"/>
			<point x="72" y="486" type="curve" smooth="yes"/>
			<point x="168" y="525" type="line"/>
			<point x="176" y="528"/>
			<point x="180" y="531"/>
			<point x="180" y="534" type="curve" smooth="yes"/>
			<point x="180" y="538"/>
			<point x="175" y="542"/>
			<point x="165" y="545" type="curve"/>
			<point x="70" y="582" type="line" smooth="yes"/>
			<point x="55" y="588"/>
			<point x="50" y="597"/>
			<point x="50" y="607" type="curve" smooth="yes"/>
			<point x="50" y="624"/>
			<point x="65" y="645"/>
			<point x="83" y="645" type="curve" smooth="yes"/>
			<point x="90" y="645"/>
			<point x="98" y="641"/>
			<point x="105" y="635" type="curve" smooth="yes"/>
			<point x="181" y="571" type="line"/>
			<point x="184" y="569"/>
			<point x="186" y="568"/>
			<point x="187" y="568" type="curve"/>
			<point x="192" y="568"/>
			<point x="194" y="576"/>
			<point x="194" y="582" type="curve"/>
			<point x="175" y="676" type="line"/>
			<point x="174" y="679"/>
			<point x="174" y="682"/>
			<point x="174" y="684" type="curve"/>
			<point x="174" y="699"/>
			<point x="185" y="707"/>
			<point x="206" y="707" type="curve" smooth="yes"/>
			<point x="227" y="707"/>
			<point x="238" y="699"/>
			<point x="238" y="684" type="curve"/>
			<point x="238" y="682"/>
			<point x="238" y="679"/>
			<point x="237" y="676" type="curve"/>
			<point x="218" y="582" type="line"/>
			<point x="218" y="575"/>
			<point x="220" y="568"/>
			<point x="224" y="568" type="curve"/>
			<point x="226" y="568"/>
			<point x="228" y="569"/>
			<point x="231" y="571" type="curve"/>
			<point x="308" y="636" type="line"/>
			<point x="314" y="642"/>
			<point x="322" y="645"/>
			<point x="329" y="645" type="curve" smooth="yes"/>
			<point x="347" y="645"/>
			<point x="363" y="623"/>
			<point x="363" y="607" type="curve" smooth="yes"/>
			<point x="363" y="598"/>
			<point x="357" y="588"/>
			<point x="343" y="583" type="curve"/>
			<point x="247" y="545" type="line"/>
			<point x="237" y="542"/>
			<point x="232" y="538"/>
			<point x="232" y="534" type="curve" smooth="yes"/>
			<point x="232" y="531"/>
			<point x="236" y="528"/>
			<point x="244" y="525" type="curve"/>
			<point x="340" y="486" type="line" smooth="yes"/>
			<point x="354" y="480"/>
			<point x="361" y="470"/>
			<point x="361" y="459" type="curve" smooth="yes"/>
			<point x="361" y="442"/>
			<point x="345" y="422"/>
			<point x="327" y="422" type="curve" smooth="yes"/>
			<point x="320" y="422"/>
			<point x="312" y="425"/>
			<point x="305" y="432" type="curve" smooth="yes"/>
			<point x="233" y="501" type="line"/>
			<point x="228" y="505"/>
			<point x="225" y="507"/>
			<point x="222" y="507" type="curve" smooth="yes"/>
			<point x="219" y="507"/>
			<point x="217" y="501"/>
			<point x="217" y="495" type="curve"/>
			<point x="236" y="396" type="line"/>
			<point x="237" y="392"/>
			<point x="238" y="387"/>
			<point x="238" y="383" type="curve" smooth="yes"/>
			<point x="238" y="370"/>
			<point x="228" y="356"/>
			<point x="206" y="356" type="curve" smooth="yes"/>
			<point x="184" y="356"/>
			<point x="174" y="368"/>
			<point x="174" y="385" type="curve" smooth="yes"/>
			<point x="174" y="388"/>
			<point x="174" y="392"/>
			<point x="175" y="396" type="curve"/>
			<point x="195" y="495" type="line"/>
			<point x="195" y="504"/>
			<point x="193" y="507"/>
			<point x="190" y="507" type="curve" smooth="yes"/>
			<point x="187" y="507"/>
			<point x="184" y="505"/>
			<point x="179" y="501" type="curve"/>
			<point x="107" y="433" type="line"/>
			<point x="99" y="426"/>
			<point x="91" y="422"/>
			<point x="84" y="422" type="curve" smooth="yes"/>
			<point x="66" y="422"/>
			<point x="52" y="442"/>
		</contour>
	</outline>
</glyph>
<glyph name="zero" format="2">
	<unicode hex="0030"/>
	<advance width="530"/>
	<outline>
		<contour>
			<point x="41" y="334" type="curve" smooth="yes"/>
			<point x="41" y="534"/>
			<point x="100" y="680"/>
			<point x="265" y="680" type="curve" smooth="yes"/>
			<point x="430" y="680"/>
			<point x="489" y="534"/>
			<point x="489" y="334" type="curve" smooth="yes"/>
			<point x="489" y="134"/>
			<point x="430" y="-12"/>
			<point x="265" y="-12" type="curve" smooth="yes"/>
			<point x="100" y="-12"/>
			<point x="41" y="134"/>
		</contour>
		<contour>
			<point x="143" y="334" type="curve" smooth="yes"/>
			<point x="143" y="171"/>
			<point x="170" y="23"/>
			<point x="265" y="23" type="curve" smooth="yes"/>
			<point x="360" y="23"/>
			<point x="387" y="171"/>
			<point x="387" y="334" type="curve" smooth="yes"/>
			<point x="387" y="497"/>
			<point x="360" y="645"/>
			<point x="265" y="645" type="curve" smooth="yes"/>
			<point x="170" y="645"/>
			<point x="143" y="497"/>
		</contour>
	</outline>
</glyph>
<glyph name="three" format="2">
	<unicode hex="0033"/>
	<advance width="530"/>
	<outline>
		<contour>
			<point x="27" y="102" type="curve" smooth="yes"/>
			<point x="27" y="138"/>
			<point x="62" y="157"/>
			<point x="80" y="157" type="curve" smooth="yes"/>
			<point x="94" y="157"/>
			<point x="104" y="148"/>
			<point x="110" y="129" type="curve" smooth="yes"/>
			<point x="129" y="73"/>
			<point x="172" y="23"/>
			<point x="238" y="23" type="curve" smooth="yes"/>
			<point x="309" y="23"/>
			<point x="368" y="65"/>
			<point x="368" y="184" type="curve" smooth="yes"/>
			<point x="368" y="271"/>
			<point x="320" y="348"/>
			<point x="235" y="348" type="curve" smooth="yes"/>
			<point x="187" y="348"/>
			<point x="160" y="338"/>
			<point x="148" y="338" type="curve" smooth="yes"/>
			<point x="135" y="338"/>
			<point x="130" y="349"/>
			<point x="130" y="366" type="curve" smooth="yes"/>
			<point x="130" y="384"/>
			<point x="135" y="394"/>
			<point x="148" y="394" type="curve" smooth="yes"/>
			<point x="160" y="394"/>
			<point x="187" y="384"/>
			<point x="235" y="384" type="curve" smooth="yes"/>
			<point x="320" y="384"/>
			<point x="341" y="459"/>
			<point x="341" y="519" type="curve" smooth="yes"/>
			<point x="341" y="575"/>
			<point x="322" y="645"/>
			<point x="243" y="645" type="curve" smooth="yes"/>
			<point x="187" y="645"/>
			<point x="149" y="601"/>
			<point x="127" y="533" type="curve" smooth="yes"/>
			<point x="123" y="520"/>
			<point x="115" y="513"/>
			<point x="102" y="513" type="curve" smooth="yes"/>
			<point x="88" y="513"/>
			<point x="53" y="530"/>
			<point x="53" y="561" type="curve" smooth="yes"/>
			<point x="53" y="604"/>
			<point x="118" y="680"/>
			<point x="250" y="680" type="curve" smooth="yes"/>
			<point x="357" y="680"/>
			<point x="444" y="631"/>
			<point x="444" y="520" type="curve" smooth="yes"/>
			<point x="444" y="421"/>
			<point x="357" y="381"/>
			<point x="303" y="372" type="curve"/>
			<point x="303" y="368" type="line"/>
			<point x="358" y="363"/>
			<point x="473" y="323"/>
			<point x="473" y="189" type="curve" smooth="yes"/>
			<point x="473" y="61"/>
			<point x="382" y="-12"/>
			<point x="237" y="-12" type="curve" smooth="yes"/>
			<point x="96" y="-12"/>
			<point x="27" y="59"/>
		</contour>
	</outline>
</glyph>
<glyph name="five" format="2">
	<unicode hex="0035"/>
	<advance width="530"/>
	<outline>
		<contour>
			<point x="40" y="102" type="curve" smooth="yes"/>
			<point x="40" y="135"/>
			<point x="73" y="155"/>
			<point x="93" y="155" type="curve" smooth="yes"/>
			<point x="107" y="155"/>
			<point x="116" y="146"/>
			<point x="121" y="131" type="curve" smooth="yes"/>
			<point x="141" y="74"/>
			<point x="177" y="23"/>
			<point x="247" y="23" type="curve" smooth="yes"/>
			<point x="334" y="23"/>
			<point x="376" y="101"/>
			<point x="376" y="204" type="curve" smooth="yes"/>
			<point x="376" y="336"/>
			<point x="306" y="383"/>
			<point x="237" y="383" type="curve" smooth="yes"/>
			<point x="188" y="383"/>
			<point x="147" y="360"/>
			<point x="105" y="312" type="curve"/>
			<point x="81" y="324" type="line"/>
			<point x="101" y="659" type="line"/>
			<point x="111" y="668" type="line"/>
			<point x="445" y="668" type="line"/>
			<point x="450" y="660" type="line"/>
			<point x="426" y="592" type="line"/>
			<point x="177" y="592" type="line" smooth="yes"/>
			<point x="158" y="592"/>
			<point x="151" y="588"/>
			<point x="148" y="563" type="curve" smooth="yes"/>
			<point x="125" y="376" type="line"/>
			<point x="127" y="374" type="line"/>
			<point x="159" y="403"/>
			<point x="218" y="427"/>
			<point x="282" y="427" type="curve" smooth="yes"/>
			<point x="392" y="427"/>
			<point x="480" y="355"/>
			<point x="480" y="216" type="curve" smooth="yes"/>
			<point x="480" y="88"/>
			<point x="405" y="-12"/>
			<point x="243" y="-12" type="curve" smooth="yes"/>
			<point x="110" y="-12"/>
			<point x="40" y="56"/>
		</contour>
	</outline>
</glyph>
<glyph name="seven" format="1">
  <advance width="530"/>
  <unicode hex="0037"/>
  <outline>
    <contour>
      <point x="41" y="528" type="line"/>
      <point x="72" y="668" type="line"/>
      <point x="488" y="668" type="line"/>
      <point x="497" y="657" type="line"/>
      <point x="462" y="531"/>
      <point x="409" y="469"/>
      <point x="345" y="357" type="curve" smooth="yes"/>
      <point x="296" y="271"/>
      <point x="269" y="175"/>
      <point x="269" y="57" type="curve" smooth="yes"/>
      <point x="269" y="46"/>
      <point x="270" y="35"/>
      <point x="270" y="24" type="curve" smooth="yes"/>
      <point x="270" y="-3"/>
      <point x="249" y="-12"/>
      <point x="221" y="-12" type="curve" smooth="yes"/>
      <point x="190" y="-12"/>
      <point x="167" y="-4"/>
      <point x="167" y="29" type="curve" smooth="yes"/>
      <point x="167" y="147"/>
      <point x="224" y="259"/>
      <point x="310" y="382" type="curve" smooth="yes"/>
      <point x="391" y="498"/>
      <point x="409" y="556"/>
      <point x="419" y="592" type="curve"/>
      <point x="149" y="592" type="line" smooth="yes"/>
      <point x="104" y="592"/>
      <point x="91" y="577"/>
      <point x="78" y="549" type="curve" smooth="yes"/>
      <point x="68" y="528" type="line"/>
    </contour>
  </outline>
</glyph>
<glyph name="eight" format="2">
	<unicode hex="0038"/>
	<advance width="530"/>
	<outline>
		<contour>
			<point x="42" y="182" type="curve" smooth="yes"/>
			<point x="42" y="284"/>
			<point x="107" y="342"/>
			<point x="174" y="358" type="curve"/>
			<point x="174" y="361" type="line"/>
			<point x="114" y="377"/>
			<point x="64" y="428"/>
			<point x="64" y="510" type="curve" smooth="yes"/>
			<point x="64" y="618"/>
			<point x="150" y="680"/>
			<point x="265" y="680" type="curve" smooth="yes"/>
			<point x="380" y="680"/>
			<point x="466" y="618"/>
			<point x="466" y="510" type="curve" smooth="yes"/>
			<point x="466" y="428"/>
			<point x="417" y="377"/>
			<point x="356" y="361" type="curve"/>
			<point x="356" y="358" type="line"/>
			<point x="424" y="342"/>
			<point x="488" y="284"/>
			<point x="488" y="182" type="curve" smooth="yes"/>
			<point x="488" y="81"/>
			<point x="427" y="-12"/>
			<point x="265" y="-12" type="curve" smooth="yes"/>
			<point x="103" y="-12"/>
			<point x="42" y="81"/>
		</contour>
		<contour>
			<point x="142" y="179" type="curve" smooth="yes"/>
			<point x="142" y="91"/>
			<point x="181" y="23"/>
			<point x="265" y="23" type="curve" smooth="yes"/>
			<point x="349" y="23"/>
			<point x="388" y="91"/>
			<point x="388" y="179" type="curve" smooth="yes"/>
			<point x="388" y="270"/>
			<point x="345" y="338"/>
			<point x="265" y="338" type="curve" smooth="yes"/>
			<point x="185" y="338"/>
			<point x="142" y="270"/>
		</contour>
		<contour>
			<point x="161" y="512" type="curve" smooth="yes"/>
			<point x="161" y="444"/>
			<point x="193" y="374"/>
			<point x="265" y="374" type="curve" smooth="yes"/>
			<point x="337" y="374"/>
			<point x="369" y="444"/>
			<point x="369" y="512" type="curve" smooth="yes"/>
			<point x="369" y="589"/>
			<point x="333" y="645"/>
			<point x="265" y="645" type="curve" smooth="yes"/>
			<point x="197" y="645"/>
			<point x="161" y="589"/>
		</contour>
	</outline>
</glyph>
<glyph name="semicolon" format="2">
	<unicode hex="003B"/>
	<advance width="265"/>
	<outline>
		<contour>
			<point x="51" y="-122" type="line"/>
			<point x="83" y="-87"/>
			<point x="109" y="-47"/>
			<point x="109" y="-6" type="curve" smooth="yes"/>
			<point x="109" y="37"/>
			<point x="76" y="55"/>
			<point x="76" y="91" type="curve" smooth="yes"/>
			<point x="76" y="117"/>
			<point x="94" y="141"/>
			<point x="125" y="141" type="curve" smooth="yes"/>
			<point x="163" y="141"/>
			<point x="193" y="104"/>
			<point x="193" y="51" type="curve" smooth="yes"/>
			<point x="193" y="-28"/>
			<point x="120" y="-94"/>
			<point x="70" y="-141" type="curve"/>
		</contour>
		<contour>
			<point x="70" y="425" type="curve" smooth="yes"/>
			<point x="70" y="462"/>
			<point x="95" y="490"/>
			<point x="133" y="490" type="curve" smooth="yes"/>
			<point x="172" y="490"/>
			<point x="196" y="462"/>
			<point x="196" y="425" type="curve"/>
			<point x="195" y="389"/>
			<point x="172" y="362"/>
			<point x="133" y="362" type="curve" smooth="yes"/>
			<point x="95" y="362"/>
			<point x="70" y="389"/>
		</contour>
	</outline>
</glyph>
<glyph name="equal" format="2">
	<unicode hex="003D"/>
	<advance width="570"/>
	<outline>
		<contour>
			<point x="43" y="111" type="line"/>
			<point x="43" y="169" type="line"/>
			<point x="527" y="169" type="line"/>
			<point x="527" y="111" type="line"/>
		</contour>
		<contour>
			<point x="43" y="331" type="line"/>
			<point x="43" y="389" type="line"/>
			<point x="527" y="389" type="line"/>
			<point x="527" y="331" type="line"/>
		</contour>
	</outline>
</glyph>
<glyph name="E" format="2">
	<unicode hex="0045"/>
	<advance width="606"/>
	<outline>
		<contour>
			<point x="35" y="0" type="line"/>
			<point x="35" y="29" type="line"/>
			<point x="123" y="35"/>
			<point x="125" y="37"/>
			<point x="125" y="93" type="curve" smooth="yes"/>
			<point x="125" y="599" type="line" smooth="yes"/>
			<point x="125" y="655"/>
			<point x="123" y="657"/>
			<point x="35" y="663" type="curve"/>
			<point x="35" y="692" type="line"/>
			<point x="540" y="692" type="line"/>
			<point x="540" y="528" type="line"/>
			<point x="510" y="528" type="line"/>
			<point x="496" y="632"/>
			<point x="473" y="657"/>
			<point x="359" y="657" type="curve" smooth="yes"/>
			<point x="261" y="657" type="line" smooth="yes"/>
			<point x="229" y="657"/>
			<point x="224" y="653"/>
			<point x="224" y="621" type="curve" smooth="yes"/>
			<point x="224" y="379" type="line"/>
			<point x="364" y="379" type="line" smooth="yes"/>
			<point x="449" y="379"/>
			<point x="453" y="403"/>
			<point x="462" y="465" type="curve"/>
			<point x="492" y="465" type="line"/>
			<point x="492" y="254" type="line"/>
			<point x="462" y="254" type="line"/>
			<point x="453" y="317"/>
			<point x="449" y="341"/>
			<point x="364" y="341" type="curve" smooth="yes"/>
			<point x="224" y="341" type="line"/>
			<point x="224" y="120" type="line" smooth="yes"/>
			<point x="224" y="46"/>
			<point x="264" y="35"/>
			<point x="361" y="35" type="curve" smooth="yes"/>
			<point x="479" y="35"/>
			<point x="524" y="51"/>
			<point x="547" y="173" type="curve"/>
			<point x="577" y="173" type="line"/>
			<point x="565" y="0" type="line"/>
		</contour>
	</outline>
	<anchor name="ogonek" x="479" y="10"/>
	<anchor name="tonos" x="0" y="707"/>
</glyph>
<glyph name="H" format="1">
  <advance width="798"/>
  <unicode hex="0048"/>
  <outline>
    <contour>
      <point x="35" y="0" type="line"/>
      <point x="35" y="29" type="line"/>
      <point x="123" y="35"/>
      <point x="125" y="37"/>
      <point x="125" y="93" type="curve" smooth="yes"/>
      <point x="125" y="599" type="line" smooth="yes"/>
      <point x="125" y="655"/>
      <point x="123" y="657"/>
      <point x="35" y="663" type="curve"/>
      <point x="35" y="692" type="line"/>
      <point x="314" y="692" type="line"/>
      <point x="314" y="663" type="line"/>
      <point x="227" y="657"/>
      <point x="224" y="655"/>
      <point x="224" y="599" type="curve" smooth="yes"/>
      <point x="224" y="379" type="line"/>
      <point x="574" y="379" type="line"/>
      <point x="574" y="599" type="line" smooth="yes"/>
      <point x="574" y="655"/>
      <point x="572" y="657"/>
      <point x="484" y="663" type="curve"/>
      <point x="484" y="692" type="line"/>
      <point x="763" y="692" type="line"/>
      <point x="763" y="663" type="line"/>
      <point x="676" y="657"/>
      <point x="673" y="655"/>
      <point x="673" y="599" type="curve" smooth="yes"/>
      <point x="673" y="93" type="line" smooth="yes"/>
      <point x="673" y="37"/>
      <point x="676" y="35"/>
      <point x="763" y="29" type="curve"/>
      <point x="763" y="0" type="line"/>
      <point x="484" y="0" type="line"/>
      <point x="484" y="29" type="line"/>
      <point x="572" y="35"/>
      <point x="574" y="37"/>
      <point x="574" y="93" type="curve" smooth="yes"/>
      <point x="574" y="341" type="line"/>
      <point x="224" y="341" type="line"/>
      <point x="224" y="93" type="line" smooth="yes"/>
      <point x="224" y="37"/>
      <point x="227" y="35"/>
      <point x="314" y="29" type="curve"/>
      <point x="314" y="0" type="line"/>
    </contour>
  </outline>
</glyph>
<glyph name="J" format="2">
	<unicode hex="004A"/>
	<advance width="350"/>
	<outline>
		<contour>
			<point x="0" y="-89" type="line"/>
			<point x="35" y="-80"/>
			<point x="71" y="-63"/>
			<point x="93" y="-37" type="curve" smooth="yes"/>
			<point x="117" y="-8"/>
			<point x="134" y="40"/>
			<point x="134" y="137" type="curve" smooth="yes"/>
			<point x="134" y="599" type="line" smooth="yes"/>
			<point x="134" y="655"/>
			<point x="132" y="657"/>
			<point x="44" y="663" type="curve"/>
			<point x="44" y="692" type="line"/>
			<point x="323" y="692" type="line"/>
			<point x="323" y="663" type="line"/>
			<point x="236" y="657"/>
			<point x="233" y="655"/>
			<point x="233" y="599" type="curve" smooth="yes"/>
			<point x="233" y="143" type="line" smooth="yes"/>
			<point x="233" y="41"/>
			<point x="221" y="-42"/>
			<point x="131" y="-83" type="curve" smooth="yes"/>
			<point x="92" y="-101"/>
			<point x="44" y="-112"/>
			<point x="5" y="-114" type="curve"/>
		</contour>
	</outline>
</glyph>
<glyph name="K" format="2">
	<unicode hex="004B"/>
	<advance width="658"/>
	<outline>
		<contour>
			<point x="224" y="363" type="line"/>
			<point x="296" y="437"/>
			<point x="409.28" y="554.751"/>
			<point x="467" y="620" type="curve" smooth="yes"/>
			<point x="478.283" y="632.755"/>
			<point x="483" y="642"/>
			<point x="483" y="648" type="curve" smooth="yes"/>
			<point x="483" y="655"/>
			<point x="477.011" y="659.131"/>
			<point x="466" y="660" type="curve" smooth="yes"/>
			<point x="428" y="663" type="line"/>
			<point x="428" y="692" type="line"/>
			<point x="671" y="692" type="line"/>
			<point x="671" y="663" type="line"/>
			<point x="586" y="658"/>
			<point x="566.22" y="646.75"/>
			<point x="514" y="601" type="curve" smooth="yes"/>
			<point x="453.219" y="547.749"/>
			<point x="376" y="472"/>
			<point x="310" y="399" type="curve"/>
			<point x="365" y="317"/>
			<point x="567" y="41"/>
			<point x="667" y="19" type="curve"/>
			<point x="667" y="-5" type="line"/>
			<point x="604" y="-2" type="line" smooth="yes"/>
			<point x="541.998" y="0.9525"/>
			<point x="489.189" y="18.1662"/>
			<point x="431" y="84" type="curve" smooth="yes"/>
			<point x="352.188" y="173.167"/>
			<point x="284" y="269"/>
			<point x="226" y="357" type="curve"/>
			<point x="224" y="357" type="line"/>
		</contour>
		<contour>
			<point x="35" y="0" type="line"/>
			<point x="35" y="29" type="line"/>
			<point x="123" y="35"/>
			<point x="125" y="37"/>
			<point x="125" y="93" type="curve" smooth="yes"/>
			<point x="125" y="599" type="line" smooth="yes"/>
			<point x="125" y="655"/>
			<point x="123" y="657"/>
			<point x="35" y="663" type="curve"/>
			<point x="35" y="692" type="line"/>
			<point x="314" y="692" type="line"/>
			<point x="314" y="663" type="line"/>
			<point x="227" y="657"/>
			<point x="224" y="655"/>
			<point x="224" y="599" type="curve" smooth="yes"/>
			<point x="224" y="93" type="line" smooth="yes"/>
			<point x="224" y="37"/>
			<point x="227" y="35"/>
			<point x="314" y="29" type="curve"/>
			<point x="314" y="0" type="line"/>
		</contour>
	</outline>
</glyph>
<glyph name="M" format="2">
  <advance width="944"/>
  <unicode hex="004D"/>
  <outline>
    <contour>
      <point x="33" y="663" type="curve"/>
      <point x="33" y="692" type="line"/>
      <point x="236" y="692" type="line"/>
      <point x="471" y="159" type="line"/>
      <point x="473" y="159" type="line"/>
      <point x="708" y="692" type="line"/>
      <point x="909" y="692" type="line"/>
      <point x="909" y="663" type="line"/>
      <point x="822" y="657"/>
      <point x="819" y="655"/>
      <point x="819" y="599" type="curve" smooth="yes"/>
      <point x="819" y="93" type="line" smooth="yes"/>
      <point x="819" y="37"/>
      <point x="822" y="35"/>
      <point x="909" y="29" type="curve"/>
      <point x="909" y="0" type="line"/>
      <point x="630" y="0" type="line"/>
      <point x="630" y="29" type="line"/>
      <point x="718" y="35"/>
      <point x="720" y="37"/>
      <point x="720" y="93" type="curve" smooth="yes"/>
      <point x="720" y="600" type="line"/>
      <point x="717" y="600" type="line"/>
      <point x="456" y="12" type="line"/>
      <point x="429" y="12" type="line"/>
      <point x="171" y="600" type="line"/>
      <point x="169" y="600" type="line"/>
      <point x="169" y="203" type="line" smooth="yes"/>
      <point x="169" y="89.633"/>
      <point x="170.315" y="38.514"/>
      <point x="271" y="29" type="curve"/>
      <point x="271" y="0" type="line"/>
      <point x="34" y="0" type="line"/>
      <point x="34" y="29" type="line"/>
      <point x="119.793" y="38.446"/>
      <point x="123" y="90.264"/>
      <point x="123" y="203" type="curve" smooth="yes"/>
      <point x="123" y="599" type="line" smooth="yes"/>
      <point x="123" y="655"/>
      <point x="121" y="657"/>
    </contour>
  </outline>
</glyph>
<glyph name="Q" format="2">
	<unicode hex="0051"/>
	<advance width="762"/>
	<outline>
		<contour>
			<point x="48" y="352" type="curve" smooth="yes"/>
			<point x="48" y="141"/>
			<point x="158" y="-16"/>
			<point x="376" y="-16" type="curve" smooth="yes"/>
			<point x="597" y="-16"/>
			<point x="714" y="146"/>
			<point x="714" y="358" type="curve" smooth="yes"/>
			<point x="714" y="561"/>
			<point x="606" y="707"/>
			<point x="381" y="707" type="curve" smooth="yes"/>
			<point x="156" y="707"/>
			<point x="48" y="561"/>
		</contour>
		<contour>
			<point x="160" y="351" type="curve" smooth="yes"/>
			<point x="160" y="497"/>
			<point x="203" y="672"/>
			<point x="381" y="672" type="curve" smooth="yes"/>
			<point x="559" y="672"/>
			<point x="602" y="497"/>
			<point x="602" y="351" type="curve" smooth="yes"/>
			<point x="602" y="206"/>
			<point x="559" y="20"/>
			<point x="381" y="20" type="curve" smooth="yes"/>
			<point x="203" y="20"/>
			<point x="160" y="206"/>
		</contour>
		<contour>
			<point x="335" y="2.5" type="line"/>
			<point x="386" y="-112"/>
			<point x="482" y="-193"/>
			<point x="597" y="-193" type="curve" smooth="yes"/>
			<point x="628" y="-193"/>
			<point x="656" y="-187"/>
			<point x="677" y="-173" type="curve"/>
			<point x="674" y="-157" type="line"/>
			<point x="664" y="-158"/>
			<point x="657" y="-158"/>
			<point x="656" y="-158" type="curve"/>
			<point x="572" y="-158"/>
			<point x="483" y="-58"/>
			<point x="455" y="2.5" type="curve"/>
		</contour>
	</outline>
</glyph>
<glyph name="R" format="2">
	<unicode hex="0052"/>
	<advance width="644"/>
	<outline>
		<contour>
			<point x="35" y="0" type="line"/>
			<point x="35" y="29" type="line"/>
			<point x="123" y="35"/>
			<point x="125" y="37"/>
			<point x="125" y="93" type="curve" smooth="yes"/>
			<point x="125" y="599" type="line" smooth="yes"/>
			<point x="125" y="655"/>
			<point x="123" y="657"/>
			<point x="35" y="663" type="curve"/>
			<point x="35" y="692" type="line"/>
			<point x="327" y="692" type="line" smooth="yes"/>
			<point x="502" y="692"/>
			<point x="562" y="617"/>
			<point x="562" y="525" type="curve" smooth="yes"/>
			<point x="562" y="426"/>
			<point x="493" y="363"/>
			<point x="399" y="345" type="curve"/>
			<point x="399" y="343" type="line"/>
			<point x="505" y="317"/>
			<point x="523" y="250"/>
			<point x="534" y="170" type="curve" smooth="yes"/>
			<point x="544" y="93"/>
			<point x="560" y="37"/>
			<point x="638" y="29" type="curve"/>
			<point x="638" y="0" type="line"/>
			<point x="577" y="0" type="line" smooth="yes"/>
			<point x="453" y="0"/>
			<point x="441" y="86"/>
			<point x="427" y="182" type="curve" smooth="yes"/>
			<point x="414" y="266"/>
			<point x="402" y="326"/>
			<point x="293" y="326" type="curve" smooth="yes"/>
			<point x="224" y="326" type="line"/>
			<point x="224" y="93" type="line" smooth="yes"/>
			<point x="224" y="42"/>
			<point x="224" y="36"/>
			<point x="299" y="29" type="curve"/>
			<point x="299" y="0" type="line"/>
		</contour>
		<contour>
			<point x="224" y="361" type="line"/>
			<point x="303" y="361" type="line" smooth="yes"/>
			<point x="400" y="361"/>
			<point x="455" y="407"/>
			<point x="455" y="507" type="curve" smooth="yes"/>
			<point x="455" y="630"/>
			<point x="371" y="657"/>
			<point x="297" y="657" type="curve" smooth="yes"/>
			<point x="231" y="657"/>
			<point x="224" y="649"/>
			<point x="224" y="607" type="curve" smooth="yes"/>
		</contour>
	</outline>
</glyph>
<glyph name="S" format="1">
  <advance width="541"/>
  <unicode hex="0053"/>
  <outline>
    <contour>
      <point x="50" y="205" type="line"/>
      <point x="82" y="205" type="line"/>
      <point x="107" y="93"/>
      <point x="169" y="20"/>
      <point x="263" y="20" type="curve" smooth="yes"/>
      <point x="352" y="20"/>
      <point x="407" y="72"/>
      <point x="407" y="158" type="curve" smooth="yes"/>
      <point x="407" y="247"/>
      <point x="312" y="293"/>
      <point x="268" y="310" type="curve" smooth="yes"/>
      <point x="250" y="317" type="line" smooth="yes"/>
      <point x="145" y="354"/>
      <point x="61" y="409"/>
      <point x="61" y="514" type="curve" smooth="yes"/>
      <point x="61" y="646"/>
      <point x="169" y="707"/>
      <point x="291" y="707" type="curve" smooth="yes"/>
      <point x="359" y="707"/>
      <point x="427" y="690"/>
      <point x="461" y="663" type="curve"/>
      <point x="461" y="522" type="line"/>
      <point x="430" y="522" type="line"/>
      <point x="414" y="623"/>
      <point x="366" y="672"/>
      <point x="280" y="672" type="curve" smooth="yes"/>
      <point x="196" y="672"/>
      <point x="152" y="618"/>
      <point x="152" y="545" type="curve" smooth="yes"/>
      <point x="152" y="485"/>
      <point x="208" y="442"/>
      <point x="275" y="417" type="curve" smooth="yes"/>
      <point x="307" y="405" type="line" smooth="yes"/>
      <point x="424" y="362"/>
      <point x="504" y="306"/>
      <point x="504" y="188" type="curve" smooth="yes"/>
      <point x="504" y="86"/>
      <point x="434" y="-15"/>
      <point x="257" y="-15" type="curve" smooth="yes"/>
      <point x="187" y="-15"/>
      <point x="104" y="4"/>
      <point x="60" y="45" type="curve"/>
    </contour>
  </outline>
</glyph>
<glyph name="U" format="2">
	<unicode hex="0055"/>
	<advance width="791"/>
	<outline>
		<contour>
			<point x="29" y="663" type="curve"/>
			<point x="29" y="692" type="line"/>
			<point x="308" y="692" type="line"/>
			<point x="308" y="663" type="line"/>
			<point x="221" y="657"/>
			<point x="218" y="655"/>
			<point x="218" y="599" type="curve" smooth="yes"/>
			<point x="218" y="275" type="line" smooth="yes"/>
			<point x="218" y="151"/>
			<point x="244" y="20"/>
			<point x="395" y="20" type="curve" smooth="yes"/>
			<point x="547" y="20"/>
			<point x="573" y="150"/>
			<point x="573" y="275" type="curve" smooth="yes"/>
			<point x="573" y="599" type="line" smooth="yes"/>
			<point x="573" y="655"/>
			<point x="571" y="657"/>
			<point x="483" y="663" type="curve"/>
			<point x="483" y="692" type="line"/>
			<point x="762" y="692" type="line"/>
			<point x="762" y="663" type="line"/>
			<point x="675" y="657"/>
			<point x="672" y="655"/>
			<point x="672" y="599" type="curve" smooth="yes"/>
			<point x="672" y="255" type="line" smooth="yes"/>
			<point x="672" y="71"/>
			<point x="588" y="-15"/>
			<point x="397" y="-15" type="curve" smooth="yes"/>
			<point x="205" y="-15"/>
			<point x="119" y="72"/>
			<point x="119" y="253" type="curve" smooth="yes"/>
			<point x="119" y="599" type="line" smooth="yes"/>
			<point x="119" y="655"/>
			<point x="117" y="657"/>
		</contour>
	</outline>
	<anchor name="ogonek" x="427" y="0"/>
</glyph>
<glyph name="W" format="1">
  <advance width="940"/>
  <unicode hex="0057"/>
  <outline>
    <contour>
      <point x="-13" y="663" type="curve"/>
      <point x="-13" y="692" type="line"/>
      <point x="238" y="692" type="line"/>
      <point x="238" y="663" type="line"/>
      <point x="188" y="658" type="line" smooth="yes"/>
      <point x="171" y="657"/>
      <point x="163" y="653"/>
      <point x="163" y="639" type="curve" smooth="yes"/>
      <point x="163" y="634"/>
      <point x="165" y="627"/>
      <point x="167" y="617" type="curve" smooth="yes"/>
      <point x="207" y="460"/>
      <point x="251" y="292"/>
      <point x="303" y="120" type="curve"/>
      <point x="305" y="120" type="line"/>
      <point x="458" y="674" type="line"/>
      <point x="533" y="674" type="line"/>
      <point x="588" y="490"/>
      <point x="645" y="305"/>
      <point x="702" y="120" type="curve"/>
      <point x="705" y="120" type="line"/>
      <point x="779" y="406" type="line" smooth="yes"/>
      <point x="804" y="500"/>
      <point x="826" y="582"/>
      <point x="832" y="619" type="curve" smooth="yes"/>
      <point x="833" y="624"/>
      <point x="834" y="629"/>
      <point x="834" y="633" type="curve" smooth="yes"/>
      <point x="834" y="646"/>
      <point x="828" y="655"/>
      <point x="810" y="657" type="curve" smooth="yes"/>
      <point x="748" y="663" type="line"/>
      <point x="748" y="692" type="line"/>
      <point x="977" y="692" type="line"/>
      <point x="977" y="663" type="line"/>
      <point x="915" y="659"/>
      <point x="904" y="654"/>
      <point x="884" y="596" type="curve" smooth="yes"/>
      <point x="870" y="558"/>
      <point x="847" y="470"/>
      <point x="815" y="357" type="curve" smooth="yes"/>
      <point x="715" y="0" type="line"/>
      <point x="639" y="0" type="line"/>
      <point x="588" y="179"/>
      <point x="533" y="363"/>
      <point x="472" y="554" type="curve"/>
      <point x="470" y="554" type="line"/>
      <point x="313" y="0" type="line"/>
      <point x="236" y="0" type="line"/>
      <point x="151" y="319" type="line" smooth="yes"/>
      <point x="124" y="419"/>
      <point x="95" y="519"/>
      <point x="72" y="598" type="curve" smooth="yes"/>
      <point x="55" y="657"/>
      <point x="46" y="660"/>
    </contour>
  </outline>
</glyph>
<glyph name="Y" format="2">
  <advance width="588"/>
  <unicode hex="0059"/>
  <anchor x="-42" y="702" name="tonos"/>
  <outline>
    <contour>
      <point x="-12" y="663" type="curve"/>
      <point x="-12" y="692" type="line"/>
      <point x="247" y="692" type="line"/>
      <point x="247" y="663" type="line"/>
      <point x="188" y="657" type="line" smooth="yes"/>
      <point x="178" y="656"/>
      <point x="173" y="651"/>
      <point x="173" y="643" type="curve" smooth="yes"/>
      <point x="173" y="638"/>
      <point x="174" y="633"/>
      <point x="177" y="627" type="curve" smooth="yes"/>
      <point x="331" y="325" type="line"/>
      <point x="333" y="325" type="line"/>
      <point x="479" y="626" type="line"/>
      <point x="482" y="633"/>
      <point x="483" y="639"/>
      <point x="483" y="643" type="curve" smooth="yes"/>
      <point x="483" y="652"/>
      <point x="479" y="657"/>
      <point x="467" y="658" type="curve" smooth="yes"/>
      <point x="413" y="663" type="line"/>
      <point x="413" y="692" type="line"/>
      <point x="632" y="692" type="line"/>
      <point x="632" y="663" type="line"/>
      <point x="565" y="660"/>
      <point x="556" y="654"/>
      <point x="525" y="597" type="curve" smooth="yes"/>
      <point x="501.408" y="553.122"/>
      <point x="394.457" y="354.206"/>
      <point x="368" y="305" type="curve" smooth="yes"/>
      <point x="357" y="285"/>
      <point x="355" y="270"/>
      <point x="355" y="246" type="curve" smooth="yes"/>
      <point x="355" y="93" type="line" smooth="yes"/>
      <point x="355" y="38"/>
      <point x="358" y="35"/>
      <point x="461" y="29" type="curve"/>
      <point x="461" y="0" type="line"/>
      <point x="150" y="0" type="line"/>
      <point x="150" y="29" type="line"/>
      <point x="253" y="35"/>
      <point x="256" y="38"/>
      <point x="256" y="93" type="curve" smooth="yes"/>
      <point x="256" y="242" type="line" smooth="yes"/>
      <point x="256" y="262"/>
      <point x="252" y="279"/>
      <point x="241" y="300" type="curve" smooth="yes"/>
      <point x="77" y="613" type="line" smooth="yes"/>
      <point x="55" y="655"/>
      <point x="41" y="661"/>
    </contour>
  </outline>
</glyph>
<glyph name="bracketleft" format="2">
	<unicode hex="005B"/>
	<advance width="289"/>
	<outline>
		<contour>
			<point x="90" y="-128" type="line"/>
			<point x="90" y="692" type="line"/>
			<point x="249" y="692" type="line"/>
			<point x="249" y="665" type="line"/>
			<point x="159" y="661"/>
			<point x="153" y="657"/>
			<point x="153" y="610" type="curve" smooth="yes"/>
			<point x="153" y="-46" type="line" smooth="yes"/>
			<point x="153" y="-93"/>
			<point x="159" y="-97"/>
			<point x="249" y="-101" type="curve"/>
			<point x="249" y="-128" type="line"/>
		</contour>
	</outline>
</glyph>
<glyph name="backslash" format="2">
	<unicode hex="005C"/>
	<advance width="460"/>
	<outline>
		<contour>
			<point x="91" y="707" type="line"/>
			<point x="158" y="707" type="line"/>
			<point x="369" y="-15" type="line"/>
			<point x="302" y="-15" type="line"/>
		</contour>
	</outline>
</glyph>
<glyph name="bracketright" format="1">
  <advance width="330"/>
  <unicode hex="005D"/>
  <outline>
    <contour>
      <point x="38" y="-101" type="line"/>
      <point x="128" y="-97"/>
      <point x="134" y="-93"/>
      <point x="134" y="-46" type="curve" smooth="yes"/>
      <point x="134" y="610" type="line" smooth="yes"/>
      <point x="134" y="657"/>
      <point x="128" y="661"/>
      <point x="38" y="665" type="curve"/>
      <point x="38" y="692" type="line"/>
      <point x="197" y="692" type="line"/>
      <point x="197" y="-128" type="line"/>
      <point x="38" y="-128" type="line"/>
    </contour>
  </outline>
</glyph>
<glyph name="grave" format="2">
  <advance width="400"/>
  <unicode hex="0060"/>
  <outline>
    <contour>
      <point x="49" y="680" type="curve" smooth="yes"/>
      <point x="49" y="700"/>
      <point x="73" y="723"/>
      <point x="88" y="723" type="curve" smooth="yes"/>
      <point x="105" y="723"/>
      <point x="122" y="713"/>
      <point x="152" y="682" type="curve" smooth="yes"/>
      <point x="271" y="562" type="line"/>
      <point x="256" y="542" type="line"/>
      <point x="105" y="626" type="line" smooth="yes"/>
      <point x="75" y="642"/>
      <point x="49" y="659"/>
    </contour>
  </outline>
</glyph>
<glyph name="a" format="2">
	<unicode hex="0061"/>
	<advance width="523"/>
	<outline>
		<contour>
			<point x="49" y="129" type="curve" smooth="yes"/>
			<point x="49" y="177"/>
			<point x="70" y="230"/>
			<point x="140" y="249" type="curve" smooth="yes"/>
			<point x="220" y="271"/>
			<point x="318" y="299"/>
			<point x="343" y="325" type="curve"/>
			<point x="343" y="367" type="line" smooth="yes"/>
			<point x="343" y="447"/>
			<point x="297" y="467"/>
			<point x="259" y="467" type="curve" smooth="yes"/>
			<point x="217" y="467"/>
			<point x="175" y="443"/>
			<point x="154" y="372" type="curve" smooth="yes"/>
			<point x="148" y="352"/>
			<point x="142" y="341"/>
			<point x="124" y="341" type="curve" smooth="yes"/>
			<point x="103" y="341"/>
			<point x="67" y="356"/>
			<point x="67" y="390" type="curve" smooth="yes"/>
			<point x="67" y="443"/>
			<point x="154" y="502"/>
			<point x="268" y="502" type="curve" smooth="yes"/>
			<point x="420" y="502"/>
			<point x="433" y="427"/>
			<point x="433" y="369" type="curve" smooth="yes"/>
			<point x="433" y="127" type="line" smooth="yes"/>
			<point x="433" y="53"/>
			<point x="449" y="39"/>
			<point x="488" y="39" type="curve" smooth="yes"/>
			<point x="499" y="39"/>
			<point x="511" y="40"/>
			<point x="519" y="42" type="curve"/>
			<point x="525" y="18" type="line"/>
			<point x="487" y="-1"/>
			<point x="444" y="-12"/>
			<point x="415" y="-12" type="curve" smooth="yes"/>
			<point x="372" y="-12"/>
			<point x="356" y="11"/>
			<point x="342" y="48" type="curve"/>
			<point x="310" y="27"/>
			<point x="250" y="-12"/>
			<point x="184" y="-12" type="curve" smooth="yes"/>
			<point x="98" y="-12"/>
			<point x="49" y="55"/>
		</contour>
		<contour>
			<point x="148" y="142" type="curve" smooth="yes"/>
			<point x="148" y="85"/>
			<point x="178" y="41"/>
			<point x="238" y="41" type="curve" smooth="yes"/>
			<point x="280" y="41"/>
			<point x="343" y="62"/>
			<point x="343" y="143" type="curve" smooth="yes"/>
			<point x="343" y="284" type="line"/>
			<point x="321" y="270"/>
			<point x="267" y="250"/>
			<point x="227" y="236" type="curve" smooth="yes"/>
			<point x="170" y="216"/>
			<point x="148" y="191"/>
		</contour>
	</outline>
	<anchor name="aring" x="266" y="540"/>
	<anchor name="ogonek" x="437" y="10"/>
</glyph>
<glyph name="f" format="1">
  <advance width="319"/>
  <unicode hex="0066"/>
  <outline>
    <contour>
      <point x="30" y="450" type="line"/>
      <point x="30" y="490" type="line"/>
      <point x="107" y="490" type="line"/>
      <point x="107" y="525" type="line" smooth="yes"/>
      <point x="107" y="591"/>
      <point x="117" y="644"/>
      <point x="140" y="679" type="curve" smooth="yes"/>
      <point x="165" y="717"/>
      <point x="212" y="742"/>
      <point x="267" y="742" type="curve" smooth="yes"/>
      <point x="347" y="742"/>
      <point x="389" y="702"/>
      <point x="389" y="669" type="curve" smooth="yes"/>
      <point x="389" y="639"/>
      <point x="360" y="622"/>
      <point x="340" y="622" type="curve" smooth="yes"/>
      <point x="325" y="622"/>
      <point x="318" y="629"/>
      <point x="313" y="639" type="curve" smooth="yes"/>
      <point x="288" y="697"/>
      <point x="266" y="707"/>
      <point x="245" y="707" type="curve" smooth="yes"/>
      <point x="230" y="707"/>
      <point x="197" y="698"/>
      <point x="197" y="613" type="curve" smooth="yes"/>
      <point x="197" y="610"/>
      <point x="197" y="606"/>
      <point x="197" y="602" type="curve" smooth="yes"/>
      <point x="201" y="490" type="line"/>
      <point x="323" y="490" type="line"/>
      <point x="323" y="450" type="line"/>
      <point x="201" y="450" type="line"/>
      <point x="201" y="86" type="line" smooth="yes"/>
      <point x="201" y="35"/>
      <point x="205" y="33"/>
      <point x="296" y="29" type="curve"/>
      <point x="296" y="0" type="line"/>
      <point x="32" y="0" type="line"/>
      <point x="32" y="29" type="line"/>
      <point x="104" y="34"/>
      <point x="107" y="36"/>
      <point x="107" y="87" type="curve" smooth="yes"/>
      <point x="107" y="450" type="line"/>
    </contour>
  </outline>
</glyph>
<glyph name="g" format="1">
  <advance width="520"/>
  <unicode hex="0067"/>
  <outline>
    <contour>
      <point x="42" y="-96" type="curve" smooth="yes"/>
      <point x="42" y="-24"/>
      <point x="114" y="0"/>
      <point x="157" y="14" type="curve"/>
      <point x="157" y="16" type="line"/>
      <point x="109" y="21"/>
      <point x="69" y="59"/>
      <point x="69" y="94" type="curve" smooth="yes"/>
      <point x="69" y="133"/>
      <point x="107" y="162"/>
      <point x="161" y="183" type="curve"/>
      <point x="161" y="185" type="line"/>
      <point x="115" y="197"/>
      <point x="53" y="240"/>
      <point x="53" y="334" type="curve" smooth="yes"/>
      <point x="53" y="408"/>
      <point x="107" y="502"/>
      <point x="260" y="502" type="curve" smooth="yes"/>
      <point x="306" y="502"/>
      <point x="361" y="490"/>
      <point x="389" y="471" type="curve"/>
      <point x="517" y="512" type="line"/>
      <point x="525" y="503" type="line"/>
      <point x="505" y="440" type="line"/>
      <point x="426" y="428" type="line"/>
      <point x="443" y="411"/>
      <point x="456" y="376"/>
      <point x="456" y="334" type="curve" smooth="yes"/>
      <point x="456" y="213"/>
      <point x="349" y="171"/>
      <point x="254" y="171" type="curve" smooth="yes"/>
      <point x="243" y="171"/>
      <point x="222" y="172"/>
      <point x="203" y="174" type="curve"/>
      <point x="190" y="170"/>
      <point x="152" y="154"/>
      <point x="152" y="125" type="curve" smooth="yes"/>
      <point x="152" y="106"/>
      <point x="163" y="82"/>
      <point x="235" y="82" type="curve" smooth="yes"/>
      <point x="315" y="82" type="line" smooth="yes"/>
      <point x="422" y="82"/>
      <point x="508" y="44"/>
      <point x="508" y="-64" type="curve" smooth="yes"/>
      <point x="508" y="-126"/>
      <point x="475" y="-173"/>
      <point x="429" y="-201" type="curve" smooth="yes"/>
      <point x="381" y="-230"/>
      <point x="318" y="-242"/>
      <point x="258" y="-242" type="curve" smooth="yes"/>
      <point x="142" y="-242"/>
      <point x="42" y="-197"/>
    </contour>
    <contour>
      <point x="137" y="-91" type="curve" smooth="yes"/>
      <point x="137" y="-163"/>
      <point x="196" y="-207"/>
      <point x="281" y="-207" type="curve" smooth="yes"/>
      <point x="352" y="-207"/>
      <point x="424" y="-169"/>
      <point x="424" y="-89" type="curve" smooth="yes"/>
      <point x="424" y="-14"/>
      <point x="359" y="7"/>
      <point x="271" y="7" type="curve" smooth="yes"/>
      <point x="223" y="7"/>
      <point x="190" y="1"/>
      <point x="168" y="-16" type="curve" smooth="yes"/>
      <point x="147" y="-32"/>
      <point x="137" y="-57"/>
    </contour>
    <contour>
      <point x="155" y="334" type="curve" smooth="yes"/>
      <point x="155" y="250"/>
      <point x="202" y="206"/>
      <point x="258" y="206" type="curve" smooth="yes"/>
      <point x="316" y="206"/>
      <point x="360" y="250"/>
      <point x="360" y="334" type="curve" smooth="yes"/>
      <point x="360" y="431"/>
      <point x="309" y="467"/>
      <point x="260" y="467" type="curve" smooth="yes"/>
      <point x="207" y="467"/>
      <point x="155" y="433"/>
    </contour>
  </outline>
</glyph>
<glyph name="i" format="1">
  <advance width="291"/>
  <unicode hex="0069"/>
  <outline>
    <contour>
      <point x="32" y="0" type="line"/>
      <point x="32" y="29" type="line"/>
      <point x="104" y="34"/>
      <point x="107" y="36"/>
      <point x="107" y="87" type="curve" smooth="yes"/>
      <point x="107" y="402" type="line" smooth="yes"/>
      <point x="107" y="438"/>
      <point x="101" y="443"/>
      <point x="75" y="447" type="curve" smooth="yes"/>
      <point x="37" y="452" type="line"/>
      <point x="37" y="477" type="line"/>
      <point x="194" y="502" type="line"/>
      <point x="201" y="496" type="line"/>
      <point x="201" y="87" type="line" smooth="yes"/>
      <point x="201" y="36"/>
      <point x="205" y="34"/>
      <point x="276" y="29" type="curve"/>
      <point x="276" y="0" type="line"/>
    </contour>
    <contour>
      <point x="92" y="654" type="curve" smooth="yes"/>
      <point x="92" y="690"/>
      <point x="117" y="715"/>
      <point x="153" y="715" type="curve" smooth="yes"/>
      <point x="189" y="715"/>
      <point x="214" y="690"/>
      <point x="214" y="654" type="curve" smooth="yes"/>
      <point x="214" y="618"/>
      <point x="189" y="593"/>
      <point x="153" y="593" type="curve" smooth="yes"/>
      <point x="117" y="593"/>
      <point x="92" y="618"/>
    </contour>
  </outline>
</glyph>
<glyph name="k" format="2">
	<unicode hex="006B"/>
	<advance width="548"/>
	<outline>
		<contour>
			<point x="169.2" y="268" type="line"/>
			<point x="191" y="268" type="line"/>
			<point x="342" y="461" type="line" smooth="yes"/>
			<point x="361.251" y="485.605"/>
			<point x="371" y="490"/>
			<point x="405" y="490" type="curve" smooth="yes"/>
			<point x="508" y="490" type="line"/>
			<point x="508" y="462" type="line"/>
			<point x="408.655" y="451.723"/>
			<point x="350.35" y="392.491"/>
			<point x="286.64" y="320.938" type="curve" smooth="yes"/>
			<point x="277" y="310" type="line" smooth="yes"/>
			<point x="271.948" y="304.211"/>
			<point x="269.981" y="300.132"/>
			<point x="269.95" y="296.576" type="curve" smooth="yes"/>
			<point x="269.921" y="293.251"/>
			<point x="271.584" y="290.382"/>
			<point x="274" y="287" type="curve" smooth="yes"/>
			<point x="282.944" y="274.542" type="line" smooth="yes"/>
			<point x="332.26" y="207.055"/>
			<point x="453.702" y="45.4795"/>
			<point x="538" y="23" type="curve"/>
			<point x="538" y="-5" type="line"/>
			<point x="463" y="-2" type="line" smooth="yes"/>
			<point x="431" y="0"/>
			<point x="392" y="12"/>
			<point x="355" y="49" type="curve" smooth="yes"/>
			<point x="303" y="102"/>
			<point x="232" y="189"/>
			<point x="191" y="254" type="curve"/>
			<point x="169.2" y="254" type="line"/>
		</contour>
		<contour>
			<point x="20" y="0" type="line"/>
			<point x="20" y="29" type="line"/>
			<point x="92" y="34"/>
			<point x="95" y="36"/>
			<point x="95" y="87" type="curve" smooth="yes"/>
			<point x="95" y="642" type="line" smooth="yes"/>
			<point x="95" y="680"/>
			<point x="89" y="685"/>
			<point x="63" y="688" type="curve" smooth="yes"/>
			<point x="25" y="692" type="line"/>
			<point x="25" y="717" type="line"/>
			<point x="182" y="742" type="line"/>
			<point x="189" y="736" type="line"/>
			<point x="189" y="87" type="line" smooth="yes"/>
			<point x="189" y="36"/>
			<point x="193" y="34"/>
			<point x="264" y="29" type="curve"/>
			<point x="264" y="0" type="line"/>
		</contour>
	</outline>
</glyph>
<glyph name="m" format="2">
	<unicode hex="006D"/>
	<advance width="923"/>
	<outline>
		<contour>
			<point x="32" y="0" type="line"/>
			<point x="32" y="29" type="line"/>
			<point x="104" y="34"/>
			<point x="107" y="36"/>
			<point x="107" y="87" type="curve" smooth="yes"/>
			<point x="107" y="402" type="line" smooth="yes"/>
			<point x="107" y="438"/>
			<point x="101" y="443"/>
			<point x="75" y="447" type="curve" smooth="yes"/>
			<point x="37" y="452" type="line"/>
			<point x="37" y="477" type="line"/>
			<point x="192" y="502" type="line"/>
			<point x="201" y="426" type="line"/>
			<point x="236" y="453"/>
			<point x="299" y="502"/>
			<point x="381" y="502" type="curve" smooth="yes"/>
			<point x="446" y="502"/>
			<point x="484" y="472"/>
			<point x="508" y="425" type="curve"/>
			<point x="543" y="454"/>
			<point x="602" y="502"/>
			<point x="686" y="502" type="curve" smooth="yes"/>
			<point x="779" y="502"/>
			<point x="833" y="444"/>
			<point x="833" y="343" type="curve" smooth="yes"/>
			<point x="833" y="87" type="line" smooth="yes"/>
			<point x="833" y="36"/>
			<point x="837" y="34"/>
			<point x="908" y="29" type="curve"/>
			<point x="908" y="0" type="line"/>
			<point x="664" y="0" type="line"/>
			<point x="664" y="29" type="line"/>
			<point x="736" y="34"/>
			<point x="739" y="36"/>
			<point x="739" y="87" type="curve" smooth="yes"/>
			<point x="739" y="323" type="line" smooth="yes"/>
			<point x="739" y="412"/>
			<point x="701" y="448"/>
			<point x="635" y="448" type="curve" smooth="yes"/>
			<point x="556" y="448"/>
			<point x="517" y="395"/>
			<point x="517" y="321" type="curve" smooth="yes"/>
			<point x="517" y="87" type="line" smooth="yes"/>
			<point x="517" y="36"/>
			<point x="521" y="34"/>
			<point x="592" y="29" type="curve"/>
			<point x="592" y="0" type="line"/>
			<point x="348" y="0" type="line"/>
			<point x="348" y="29" type="line"/>
			<point x="420" y="34"/>
			<point x="423" y="36"/>
			<point x="423" y="87" type="curve" smooth="yes"/>
			<point x="423" y="323" type="line" smooth="yes"/>
			<point x="423" y="385"/>
			<point x="413" y="448"/>
			<point x="329" y="448" type="curve" smooth="yes"/>
			<point x="250" y="448"/>
			<point x="201" y="393"/>
			<point x="201" y="321" type="curve" smooth="yes"/>
			<point x="201" y="87" type="line" smooth="yes"/>
			<point x="201" y="36"/>
			<point x="205" y="34"/>
			<point x="276" y="29" type="curve"/>
			<point x="276" y="0" type="line"/>
		</contour>
	</outline>
</glyph>
<glyph name="t" format="2">
	<unicode hex="0074"/>
	<advance width="344"/>
	<outline>
		<contour>
			<point x="31" y="450" type="line"/>
			<point x="31" y="490" type="line"/>
			<point x="107" y="490" type="line"/>
			<point x="168" y="616" type="line"/>
			<point x="197" y="616" type="line"/>
			<point x="197" y="490" type="line"/>
			<point x="326" y="490" type="line"/>
			<point x="326" y="450" type="line"/>
			<point x="197" y="450" type="line"/>
			<point x="197" y="140" type="line" smooth="yes"/>
			<point x="197" y="64"/>
			<point x="229" y="40"/>
			<point x="263" y="40" type="curve" smooth="yes"/>
			<point x="288" y="40"/>
			<point x="310" y="43"/>
			<point x="334" y="53" type="curve"/>
			<point x="342" y="32" type="line"/>
			<point x="313" y="14"/>
			<point x="265" y="-12"/>
			<point x="214" y="-12" type="curve" smooth="yes"/>
			<point x="179" y="-12"/>
			<point x="103" y="0"/>
			<point x="103" y="102" type="curve" smooth="yes"/>
			<point x="103" y="450" type="line"/>
		</contour>
	</outline>
</glyph>
<glyph name="v" format="2">
	<unicode hex="0076"/>
	<advance width="504"/>
	<outline>
		<contour>
			<point x="1" y="461" type="curve"/>
			<point x="1" y="490" type="line"/>
			<point x="225" y="490" type="line"/>
			<point x="225" y="461" type="line"/>
			<point x="180" y="456" type="line"/>
			<point x="167" y="455"/>
			<point x="161" y="450"/>
			<point x="161" y="441" type="curve" smooth="yes"/>
			<point x="161" y="437"/>
			<point x="162" y="433"/>
			<point x="164" y="427" type="curve" smooth="yes"/>
			<point x="284" y="90" type="line"/>
			<point x="286" y="90" type="line"/>
			<point x="403" y="429" type="line" smooth="yes"/>
			<point x="404" y="432"/>
			<point x="405" y="436"/>
			<point x="405" y="439" type="curve" smooth="yes"/>
			<point x="405" y="448"/>
			<point x="400" y="455"/>
			<point x="388" y="456" type="curve" smooth="yes"/>
			<point x="339" y="461" type="line"/>
			<point x="339" y="490" type="line"/>
			<point x="529" y="490" type="line"/>
			<point x="529" y="461" type="line"/>
			<point x="483" y="459"/>
			<point x="471" y="454"/>
			<point x="457" y="418" type="curve" smooth="yes"/>
			<point x="296" y="0" type="line"/>
			<point x="224" y="0" type="line"/>
			<point x="72" y="416" type="line" smooth="yes"/>
			<point x="58" y="454"/>
			<point x="48" y="457"/>
		</contour>
	</outline>
</glyph>
<glyph name="w" format="2">
  <advance width="768"/>
  <unicode hex="0077"/>
  <outline>
    <contour>
      <point x="-2" y="461" type="curve"/>
      <point x="-2" y="490" type="line"/>
      <point x="209" y="490" type="line"/>
      <point x="209" y="461" type="line"/>
      <point x="174" y="458" type="line" smooth="yes"/>
      <point x="159.91" y="456.792"/>
      <point x="154" y="451"/>
      <point x="154" y="440" type="curve" smooth="yes"/>
      <point x="154" y="437"/>
      <point x="154.49" y="433.169"/>
      <point x="156" y="428" type="curve" smooth="yes"/>
      <point x="255" y="89" type="line"/>
      <point x="257" y="89" type="line"/>
      <point x="373" y="478" type="line"/>
      <point x="449" y="478" type="line"/>
      <point x="574" y="89" type="line"/>
      <point x="576" y="89" type="line"/>
      <point x="666" y="423" type="line" smooth="yes"/>
      <point x="667.327" y="427.923"/>
      <point x="668" y="433"/>
      <point x="668" y="438" type="curve" smooth="yes"/>
      <point x="668" y="448"/>
      <point x="664" y="455"/>
      <point x="652" y="456" type="curve" smooth="yes"/>
      <point x="595" y="461" type="line"/>
      <point x="595" y="490" type="line"/>
      <point x="792" y="490" type="line"/>
      <point x="792" y="461" type="line"/>
      <point x="742" y="458"/>
      <point x="731" y="454"/>
      <point x="714" y="403" type="curve"/>
      <point x="588" y="0" type="line"/>
      <point x="512" y="0" type="line"/>
      <point x="389" y="381" type="line"/>
      <point x="386" y="381" type="line"/>
      <point x="268" y="0" type="line"/>
      <point x="192" y="0" type="line"/>
      <point x="64" y="418" type="line" smooth="yes"/>
      <point x="52" y="456"/>
      <point x="39" y="459"/>
    </contour>
  </outline>
</glyph>
<glyph name="z" format="2">
	<unicode hex="007A"/>
	<advance width="480"/>
	<outline>
		<contour>
			<point x="19" y="15" type="line"/>
			<point x="334" y="455" type="line"/>
			<point x="234" y="455" type="line" smooth="yes"/>
			<point x="126" y="455"/>
			<point x="105" y="434"/>
			<point x="92" y="342" type="curve"/>
			<point x="61" y="342" type="line"/>
			<point x="61" y="490" type="line"/>
			<point x="445" y="490" type="line"/>
			<point x="453" y="476" type="line"/>
			<point x="141" y="35" type="line"/>
			<point x="270" y="35" type="line" smooth="yes"/>
			<point x="381" y="35"/>
			<point x="415" y="59"/>
			<point x="431" y="153" type="curve"/>
			<point x="462" y="153" type="line"/>
			<point x="452" y="0" type="line"/>
			<point x="27" y="0" type="line"/>
		</contour>
	</outline>
</glyph>
<glyph name="braceleft" format="1">
  <advance width="340"/>
  <unicode hex="007B"/>
  <outline>
    <contour>
      <point x="79" y="267" type="curve"/>
      <point x="79" y="297" type="line"/>
      <point x="80" y="297"/>
      <point x="82" y="297"/>
      <point x="83" y="297" type="curve" smooth="yes"/>
      <point x="144" y="297"/>
      <point x="166" y="333"/>
      <point x="166" y="387" type="curve" smooth="yes"/>
      <point x="166" y="394"/>
      <point x="166" y="403"/>
      <point x="165" y="411" type="curve" smooth="yes"/>
      <point x="155" y="505" type="line" smooth="yes"/>
      <point x="153" y="522"/>
      <point x="152" y="540"/>
      <point x="152" y="558" type="curve" smooth="yes"/>
      <point x="152" y="627"/>
      <point x="173" y="692"/>
      <point x="272" y="692" type="curve" smooth="yes"/>
      <point x="298" y="692" type="line"/>
      <point x="298" y="665" type="line"/>
      <point x="231" y="662"/>
      <point x="216" y="626"/>
      <point x="216" y="577" type="curve" smooth="yes"/>
      <point x="216" y="565"/>
      <point x="217" y="552"/>
      <point x="218" y="539" type="curve" smooth="yes"/>
      <point x="226" y="462" type="line" smooth="yes"/>
      <point x="229" y="437"/>
      <point x="232" y="412"/>
      <point x="232" y="389" type="curve" smooth="yes"/>
      <point x="232" y="340"/>
      <point x="215" y="301"/>
      <point x="135" y="285" type="curve"/>
      <point x="135" y="279" type="line"/>
      <point x="215" y="263"/>
      <point x="232" y="224"/>
      <point x="232" y="175" type="curve" smooth="yes"/>
      <point x="232" y="152"/>
      <point x="229" y="127"/>
      <point x="226" y="102" type="curve" smooth="yes"/>
      <point x="218" y="25" type="line" smooth="yes"/>
      <point x="217" y="12"/>
      <point x="216" y="-1"/>
      <point x="216" y="-13" type="curve" smooth="yes"/>
      <point x="216" y="-62"/>
      <point x="231" y="-98"/>
      <point x="298" y="-101" type="curve"/>
      <point x="298" y="-128" type="line"/>
      <point x="272" y="-128" type="line" smooth="yes"/>
      <point x="173" y="-128"/>
      <point x="152" y="-63"/>
      <point x="152" y="6" type="curve" smooth="yes"/>
      <point x="152" y="24"/>
      <point x="153" y="42"/>
      <point x="155" y="59" type="curve" smooth="yes"/>
      <point x="165" y="153" type="line" smooth="yes"/>
      <point x="166" y="164"/>
      <point x="167" y="175"/>
      <point x="167" y="184" type="curve" smooth="yes"/>
      <point x="167" y="236"/>
      <point x="146" y="267"/>
    </contour>
  </outline>
</glyph>
<glyph name="braceright" format="1">
  <advance width="340"/>
  <unicode hex="007D"/>
  <outline>
    <contour>
      <point x="42" y="-101" type="line"/>
      <point x="109" y="-98"/>
      <point x="124" y="-62"/>
      <point x="124" y="-13" type="curve" smooth="yes"/>
      <point x="124" y="-1"/>
      <point x="123" y="12"/>
      <point x="122" y="25" type="curve" smooth="yes"/>
      <point x="114" y="102" type="line" smooth="yes"/>
      <point x="111" y="127"/>
      <point x="108" y="152"/>
      <point x="108" y="175" type="curve" smooth="yes"/>
      <point x="108" y="224"/>
      <point x="125" y="263"/>
      <point x="205" y="279" type="curve"/>
      <point x="205" y="285" type="line"/>
      <point x="125" y="301"/>
      <point x="108" y="340"/>
      <point x="108" y="389" type="curve" smooth="yes"/>
      <point x="108" y="412"/>
      <point x="111" y="437"/>
      <point x="114" y="462" type="curve" smooth="yes"/>
      <point x="122" y="539" type="line" smooth="yes"/>
      <point x="123" y="552"/>
      <point x="124" y="565"/>
      <point x="124" y="577" type="curve" smooth="yes"/>
      <point x="124" y="626"/>
      <point x="109" y="662"/>
      <point x="42" y="665" type="curve"/>
      <point x="42" y="692" type="line"/>
      <point x="68" y="692" type="line" smooth="yes"/>
      <point x="167" y="692"/>
      <point x="188" y="627"/>
      <point x="188" y="558" type="curve" smooth="yes"/>
      <point x="188" y="540"/>
      <point x="187" y="522"/>
      <point x="185" y="505" type="curve" smooth="yes"/>
      <point x="175" y="411" type="line" smooth="yes"/>
      <point x="174" y="401"/>
      <point x="173" y="391"/>
      <point x="173" y="382" type="curve" smooth="yes"/>
      <point x="173" y="328"/>
      <point x="195" y="297"/>
      <point x="261" y="297" type="curve"/>
      <point x="261" y="267" type="line"/>
      <point x="195" y="267"/>
      <point x="173" y="236"/>
      <point x="173" y="182" type="curve" smooth="yes"/>
      <point x="173" y="173"/>
      <point x="174" y="163"/>
      <point x="175" y="153" type="curve" smooth="yes"/>
      <point x="185" y="59" type="line" smooth="yes"/>
      <point x="187" y="42"/>
      <point x="188" y="24"/>
      <point x="188" y="6" type="curve" smooth="yes"/>
      <point x="188" y="-63"/>
      <point x="167" y="-128"/>
      <point x="68" y="-128" type="curve" smooth="yes"/>
      <point x="42" y="-128" type="line"/>
    </contour>
  </outline>
</glyph>
<glyph name="cent" format="2">
	<unicode hex="00A2"/>
	<advance width="530"/>
	<outline>
		<contour>
			<point x="37" y="337" type="curve" smooth="yes"/>
			<point x="37" y="497"/>
			<point x="117" y="591"/>
			<point x="261" y="599" type="curve"/>
			<point x="261" y="675" type="line"/>
			<point x="301" y="675" type="line"/>
			<point x="301" y="599" type="line"/>
			<point x="402" y="599"/>
			<point x="480" y="555"/>
			<point x="480" y="502" type="curve" smooth="yes"/>
			<point x="480" y="473"/>
			<point x="457" y="453"/>
			<point x="430" y="453" type="curve" smooth="yes"/>
			<point x="413" y="453"/>
			<point x="404" y="461"/>
			<point x="394" y="486" type="curve" smooth="yes"/>
			<point x="374" y="536"/>
			<point x="342" y="561"/>
			<point x="301" y="564" type="curve"/>
			<point x="301" y="137" type="line"/>
			<point x="375" y="137"/>
			<point x="424" y="166"/>
			<point x="461" y="231" type="curve"/>
			<point x="487" y="215" type="line"/>
			<point x="455" y="135"/>
			<point x="386" y="87"/>
			<point x="301" y="87" type="curve"/>
			<point x="301" y="-10" type="line"/>
			<point x="261" y="-10" type="line"/>
			<point x="261" y="87" type="line"/>
			<point x="117" y="87"/>
			<point x="37" y="176"/>
		</contour>
		<contour>
			<point x="136" y="354" type="curve" smooth="yes"/>
			<point x="136" y="231"/>
			<point x="178" y="158"/>
			<point x="261" y="140" type="curve"/>
			<point x="261" y="564" type="line"/>
			<point x="182" y="557"/>
			<point x="136" y="483"/>
		</contour>
	</outline>
</glyph>
<glyph name="sterling" format="1">
  <advance width="530"/>
  <unicode hex="00A3"/>
  <outline>
    <contour>
      <point x="27" y="5" type="line"/>
      <point x="45" y="45" type="line"/>
      <point x="120" y="70"/>
      <point x="206" y="109"/>
      <point x="206" y="185" type="curve" smooth="yes"/>
      <point x="206" y="214"/>
      <point x="201" y="243"/>
      <point x="172" y="291" type="curve"/>
      <point x="53" y="291" type="line"/>
      <point x="53" y="329" type="line"/>
      <point x="155" y="329" type="line"/>
      <point x="130" y="374"/>
      <point x="96" y="435"/>
      <point x="96" y="498" type="curve" smooth="yes"/>
      <point x="96" y="609"/>
      <point x="180" y="680"/>
      <point x="289" y="680" type="curve" smooth="yes"/>
      <point x="395" y="680"/>
      <point x="454" y="623"/>
      <point x="454" y="572" type="curve" smooth="yes"/>
      <point x="454" y="544"/>
      <point x="427" y="530"/>
      <point x="410" y="530" type="curve" smooth="yes"/>
      <point x="391" y="530"/>
      <point x="385" y="535"/>
      <point x="381" y="548" type="curve" smooth="yes"/>
      <point x="363" y="608"/>
      <point x="326" y="645"/>
      <point x="277" y="645" type="curve" smooth="yes"/>
      <point x="218" y="645"/>
      <point x="182" y="600"/>
      <point x="182" y="540" type="curve" smooth="yes"/>
      <point x="182" y="469"/>
      <point x="224" y="401"/>
      <point x="266" y="329" type="curve"/>
      <point x="418" y="329" type="line"/>
      <point x="418" y="291" type="line"/>
      <point x="282" y="291" type="line"/>
      <point x="292" y="252"/>
      <point x="288" y="272"/>
      <point x="292" y="233" type="curve"/>
      <point x="292" y="170"/>
      <point x="260" y="123"/>
      <point x="182" y="80" type="curve"/>
      <point x="182" y="76" type="line"/>
      <point x="407" y="76" type="line" smooth="yes"/>
      <point x="448" y="76"/>
      <point x="462" y="104"/>
      <point x="483" y="134" type="curve"/>
      <point x="510" y="125" type="line"/>
      <point x="460" y="0" type="line"/>
      <point x="31" y="0" type="line"/>
    </contour>
  </outline>
</glyph>
<glyph name="yen" format="2">
	<unicode hex="00A5"/>
	<advance width="530"/>
	<outline>
		<contour>
			<point x="-2" y="639" type="line"/>
			<point x="-2" y="668" type="line"/>
			<point x="217" y="668" type="line"/>
			<point x="217" y="639" type="line"/>
			<point x="170" y="635" type="line" smooth="yes"/>
			<point x="159" y="634"/>
			<point x="155" y="628"/>
			<point x="155" y="621" type="curve" smooth="yes"/>
			<point x="155" y="618"/>
			<point x="156.112" y="614.054"/>
			<point x="158" y="610" type="curve" smooth="yes"/>
			<point x="280" y="348" type="line"/>
			<point x="282" y="348" type="line"/>
			<point x="393" y="601" type="line" smooth="yes"/>
			<point x="396.433" y="608.824"/>
			<point x="398" y="615"/>
			<point x="398" y="620" type="curve" smooth="yes"/>
			<point x="398" y="627"/>
			<point x="394" y="632"/>
			<point x="383" y="633" type="curve" smooth="yes"/>
			<point x="328" y="639" type="line"/>
			<point x="328" y="668" type="line"/>
			<point x="525" y="668" type="line"/>
			<point x="525" y="639" type="line"/>
			<point x="497" y="635" type="line" smooth="yes"/>
			<point x="470" y="631"/>
			<point x="457.969" y="623.656"/>
			<point x="441" y="589" type="curve" smooth="yes"/>
			<point x="323" y="348" type="line"/>
			<point x="473" y="348" type="line"/>
			<point x="473" y="310" type="line"/>
			<point x="309" y="310" type="line"/>
			<point x="305.805" y="299.344" type="line" smooth="yes"/>
			<point x="303.043" y="290.133"/>
			<point x="303" y="276.196"/>
			<point x="303" y="255" type="curve" smooth="yes"/>
			<point x="303" y="225" type="line"/>
			<point x="473" y="225" type="line"/>
			<point x="473" y="187" type="line"/>
			<point x="303" y="187" type="line"/>
			<point x="303" y="87" type="line" smooth="yes"/>
			<point x="303" y="38"/>
			<point x="307" y="34"/>
			<point x="398" y="29" type="curve"/>
			<point x="398" y="0" type="line"/>
			<point x="117" y="0" type="line"/>
			<point x="117" y="29" type="line"/>
			<point x="209" y="34"/>
			<point x="212" y="38"/>
			<point x="212" y="87" type="curve" smooth="yes"/>
			<point x="212" y="187" type="line"/>
			<point x="42" y="187" type="line"/>
			<point x="42" y="225" type="line"/>
			<point x="212" y="225" type="line"/>
			<point x="212" y="254" type="line" smooth="yes"/>
			<point x="212" y="272.783"/>
			<point x="211.289" y="287.981"/>
			<point x="206.495" y="299.344" type="curve" smooth="yes"/>
			<point x="202" y="310" type="line"/>
			<point x="42" y="310" type="line"/>
			<point x="42" y="348" type="line"/>
			<point x="188" y="348" type="line"/>
			<point x="67" y="598" type="line" smooth="yes"/>
			<point x="54" y="625"/>
			<point x="42" y="634"/>
			<point x="24" y="636" type="curve" smooth="yes"/>
		</contour>
	</outline>
</glyph>
<glyph name="brokenbar" format="2">
	<unicode hex="00A6"/>
	<advance width="228"/>
	<outline>
		<contour>
			<point x="80" y="-175" type="line"/>
			<point x="80" y="175" type="line"/>
			<point x="148" y="175" type="line"/>
			<point x="148" y="-175" type="line"/>
		</contour>
		<contour>
			<point x="80" y="325" type="line"/>
			<point x="80" y="675" type="line"/>
			<point x="148" y="675" type="line"/>
			<point x="148" y="325" type="line"/>
		</contour>
	</outline>
</glyph>
<glyph name="section" format="1">
  <advance width="554"/>
  <unicode hex="00A7"/>
  <outline>
    <contour>
      <point x="46" y="380" type="curve" smooth="yes"/>
      <point x="46" y="447"/>
      <point x="81" y="512"/>
      <point x="133" y="562" type="curve"/>
      <point x="137" y="622"/>
      <point x="179" y="707"/>
      <point x="303" y="707" type="curve" smooth="yes"/>
      <point x="374" y="707"/>
      <point x="438" y="675"/>
      <point x="438" y="633" type="curve" smooth="yes"/>
      <point x="438" y="605"/>
      <point x="414" y="593"/>
      <point x="395" y="593" type="curve" smooth="yes"/>
      <point x="383" y="593"/>
      <point x="375" y="598"/>
      <point x="368" y="609" type="curve" smooth="yes"/>
      <point x="338" y="661"/>
      <point x="308" y="672"/>
      <point x="279" y="672" type="curve" smooth="yes"/>
      <point x="230" y="672"/>
      <point x="200" y="634"/>
      <point x="200" y="596" type="curve" smooth="yes"/>
      <point x="200" y="569"/>
      <point x="202" y="530"/>
      <point x="331" y="462" type="curve" smooth="yes"/>
      <point x="447" y="401"/>
      <point x="507" y="341"/>
      <point x="507" y="236" type="curve" smooth="yes"/>
      <point x="507" y="168"/>
      <point x="480" y="106"/>
      <point x="437" y="51" type="curve"/>
      <point x="437" y="50"/>
      <point x="437" y="48"/>
      <point x="437" y="47" type="curve" smooth="yes"/>
      <point x="437" y="-37"/>
      <point x="372" y="-115"/>
      <point x="260" y="-115" type="curve" smooth="yes"/>
      <point x="176" y="-115"/>
      <point x="107" y="-74"/>
      <point x="106" y="-33" type="curve" smooth="yes"/>
      <point x="106" y="-6"/>
      <point x="126" y="13"/>
      <point x="153" y="13" type="curve" smooth="yes"/>
      <point x="164" y="13"/>
      <point x="174" y="4"/>
      <point x="180" y="-6" type="curve" smooth="yes"/>
      <point x="216" y="-67"/>
      <point x="251" y="-78"/>
      <point x="288" y="-78" type="curve" smooth="yes"/>
      <point x="329" y="-78"/>
      <point x="367" y="-44"/>
      <point x="367" y="7" type="curve" smooth="yes"/>
      <point x="367" y="54"/>
      <point x="347" y="100"/>
      <point x="216" y="166" type="curve" smooth="yes"/>
      <point x="79" y="235"/>
      <point x="46" y="302"/>
    </contour>
    <contour>
      <point x="98" y="417" type="curve" smooth="yes"/>
      <point x="98" y="354"/>
      <point x="147" y="295"/>
      <point x="248" y="242" type="curve" smooth="yes"/>
      <point x="346" y="191"/>
      <point x="399" y="150"/>
      <point x="423" y="99" type="curve"/>
      <point x="443" y="114"/>
      <point x="456" y="147"/>
      <point x="456" y="188" type="curve" smooth="yes"/>
      <point x="456" y="262"/>
      <point x="395" y="332"/>
      <point x="315" y="376" type="curve" smooth="yes"/>
      <point x="236" y="422"/>
      <point x="168" y="455"/>
      <point x="145" y="517" type="curve"/>
      <point x="117" y="497"/>
      <point x="98" y="458"/>
    </contour>
  </outline>
</glyph>
<glyph name="ordfeminine" format="2">
	<unicode hex="00AA"/>
	<advance width="390"/>
	<outline>
		<contour>
			<point x="40" y="354.79" type="curve" smooth="yes"/>
			<point x="40" y="387.664"/>
			<point x="55" y="409.58"/>
			<point x="119" y="431.496" type="curve" smooth="yes"/>
			<point x="235" y="470.347" type="line"/>
			<point x="235" y="508.202" type="line" smooth="yes"/>
			<point x="235" y="548.05"/>
			<point x="209" y="561"/>
			<point x="187" y="561" type="curve" smooth="yes"/>
			<point x="166" y="561"/>
			<point x="139" y="550.042"/>
			<point x="126.353" y="513.644" type="curve" smooth="yes"/>
			<point x="121" y="498.24"/>
			<point x="112" y="484.294"/>
			<point x="95.7036" y="484.294" type="curve" smooth="yes"/>
			<point x="80" y="484.294"/>
			<point x="53" y="497.244"/>
			<point x="53" y="519.316" type="curve" smooth="yes"/>
			<point x="53" y="553.031"/>
			<point x="116" y="590"/>
			<point x="200.984" y="590" type="curve" smooth="yes"/>
			<point x="296" y="590"/>
			<point x="304" y="544.065"/>
			<point x="304" y="509.198" type="curve" smooth="yes"/>
			<point x="304" y="355.786" type="line" smooth="yes"/>
			<point x="304" y="324.554"/>
			<point x="309.503" y="300.996"/>
			<point x="343" y="300.996" type="curve" smooth="yes"/>
			<point x="349" y="300.996"/>
			<point x="356" y="300.996"/>
			<point x="361" y="301.992" type="curve"/>
			<point x="364" y="284" type="line"/>
			<point x="337.723" y="273.051"/>
			<point x="309.607" y="266"/>
			<point x="286.94" y="266" type="curve" smooth="yes"/>
			<point x="255" y="266"/>
			<point x="243" y="280"/>
			<point x="235" y="303.985" type="curve"/>
			<point x="215.406" y="287.957"/>
			<point x="180" y="265"/>
			<point x="134.093" y="265" type="curve" smooth="yes"/>
			<point x="72" y="265"/>
			<point x="40" y="306.973"/>
		</contour>
		<contour>
			<point x="119" y="361.763" type="curve" smooth="yes"/>
			<point x="119" y="327.893"/>
			<point x="138" y="300"/>
			<point x="173.409" y="300" type="curve" smooth="yes"/>
			<point x="201" y="300"/>
			<point x="235" y="316.935"/>
			<point x="235" y="365.748" type="curve" smooth="yes"/>
			<point x="235" y="443.45" type="line"/>
			<point x="172" y="422.531" type="line" smooth="yes"/>
			<point x="136" y="409.58"/>
			<point x="119" y="392.645"/>
		</contour>
	</outline>
	<guideline x="0" y="590" angle="0"/>
	<guideline x="0" y="265" angle="0"/>
</glyph>
<glyph name="registered" format="2">
	<unicode hex="00AE"/>
	<advance width="818"/>
	<outline>
		<contour>
			<point x="45" y="346" type="curve" smooth="yes"/>
			<point x="45" y="546"/>
			<point x="208" y="707"/>
			<point x="408.395" y="707" type="curve" smooth="yes"/>
			<point x="610" y="707"/>
			<point x="773" y="546"/>
			<point x="773" y="346" type="curve" smooth="yes"/>
			<point x="773" y="146"/>
			<point x="610" y="-15"/>
			<point x="408.395" y="-15" type="curve" smooth="yes"/>
			<point x="208" y="-15"/>
			<point x="45" y="146"/>
		</contour>
		<contour>
			<point x="109" y="346" type="curve" smooth="yes"/>
			<point x="109" y="169"/>
			<point x="241" y="30"/>
			<point x="408.395" y="30" type="curve" smooth="yes"/>
			<point x="577" y="30"/>
			<point x="709" y="169"/>
			<point x="709" y="346" type="curve" smooth="yes"/>
			<point x="709" y="522.393"/>
			<point x="577" y="662"/>
			<point x="408.395" y="662" type="curve" smooth="yes"/>
			<point x="241" y="662"/>
			<point x="109" y="522.393"/>
		</contour>
		<contour>
			<point x="244" y="159" type="line"/>
			<point x="244" y="179" type="line"/>
			<point x="275" y="183" type="line" smooth="yes"/>
			<point x="292" y="185"/>
			<point x="295" y="194"/>
			<point x="295" y="211" type="curve" smooth="yes"/>
			<point x="295" y="485.173" type="line" smooth="yes"/>
			<point x="295" y="504.047"/>
			<point x="292.129" y="512.854"/>
			<point x="275" y="515.143" type="curve" smooth="yes"/>
			<point x="244" y="519.286" type="line"/>
			<point x="244" y="540" type="line"/>
			<point x="423.516" y="540" type="line" smooth="yes"/>
			<point x="521" y="540"/>
			<point x="554" y="499.08"/>
			<point x="554" y="447.878" type="curve" smooth="yes"/>
			<point x="554" y="390.807"/>
			<point x="513" y="360"/>
			<point x="456.782" y="351" type="curve"/>
			<point x="456.782" y="349" type="line"/>
			<point x="517" y="334"/>
			<point x="527" y="297"/>
			<point x="535" y="253" type="curve" smooth="yes"/>
			<point x="542.16" y="211.471"/>
			<point x="555.414" y="185.882"/>
			<point x="597" y="174" type="curve"/>
			<point x="597" y="159" type="line"/>
			<point x="553" y="159" type="line" smooth="yes"/>
			<point x="510" y="159"/>
			<point x="490" y="174"/>
			<point x="477.381" y="209.603" type="curve" smooth="yes"/>
			<point x="465.855" y="242"/>
			<point x="462.831" y="285"/>
			<point x="452.851" y="305.841" type="curve" smooth="yes"/>
			<point x="443.677" y="325"/>
			<point x="424.524" y="334"/>
			<point x="393.274" y="334" type="curve" smooth="yes"/>
			<point x="359" y="334" type="line"/>
			<point x="359" y="211" type="line" smooth="yes"/>
			<point x="359" y="194"/>
			<point x="363.032" y="185"/>
			<point x="381.177" y="183" type="curve" smooth="yes"/>
			<point x="411.419" y="179" type="line"/>
			<point x="411.419" y="159" type="line"/>
		</contour>
		<contour>
			<point x="359" y="362" type="line"/>
			<point x="397.306" y="362" type="line" smooth="yes"/>
			<point x="448.718" y="362"/>
			<point x="484" y="382.86"/>
			<point x="484" y="437.493" type="curve" smooth="yes"/>
			<point x="484" y="498.087"/>
			<point x="442.669" y="511"/>
			<point x="395.248" y="511" type="curve" smooth="yes"/>
			<point x="363.032" y="511"/>
			<point x="359" y="505.04"/>
			<point x="359" y="490.14" type="curve" smooth="yes"/>
		</contour>
	</outline>
</glyph>
<glyph name="macron" format="1">
  <advance width="400"/>
  <unicode hex="00AF"/>
  <outline>
    <contour>
      <point x="56" y="597" type="line"/>
      <point x="56" y="656" type="line"/>
      <point x="344" y="656" type="line"/>
      <point x="344" y="597" type="line"/>
    </contour>
  </outline>
</glyph>
<glyph name="degree" format="1">
  <advance width="350"/>
  <unicode hex="00B0"/>
  <outline>
    <contour>
      <point x="37" y="542" type="curve" smooth="yes"/>
      <point x="37" y="617"/>
      <point x="100" y="680"/>
      <point x="175" y="680" type="curve" smooth="yes"/>
      <point x="250" y="680"/>
      <point x="313" y="617"/>
      <point x="313" y="542" type="curve" smooth="yes"/>
      <point x="313" y="467"/>
      <point x="250" y="404"/>
      <point x="175" y="404" type="curve" smooth="yes"/>
      <point x="100" y="404"/>
      <point x="37" y="467"/>
    </contour>
    <contour>
      <point x="93" y="542" type="curve" smooth="yes"/>
      <point x="93" y="491"/>
      <point x="131" y="452"/>
      <point x="175" y="452" type="curve" smooth="yes"/>
      <point x="219" y="452"/>
      <point x="257" y="491"/>
      <point x="257" y="542" type="curve" smooth="yes"/>
      <point x="257" y="593"/>
      <point x="219" y="632"/>
      <point x="175" y="632" type="curve" smooth="yes"/>
      <point x="131" y="632"/>
      <point x="93" y="593"/>
    </contour>
  </outline>
</glyph>
<glyph name="threesuperior" format="2">
	<unicode hex="00B3"/>
	<advance width="380"/>
	<outline>
		<contour>
			<point x="36" y="341" type="curve" smooth="yes"/>
			<point x="36" y="365"/>
			<point x="60" y="385"/>
			<point x="81" y="385" type="curve" smooth="yes"/>
			<point x="93" y="385"/>
			<point x="100" y="378"/>
			<point x="104" y="365" type="curve" smooth="yes"/>
			<point x="120" y="315"/>
			<point x="149" y="293"/>
			<point x="183" y="293" type="curve" smooth="yes"/>
			<point x="221" y="293"/>
			<point x="253" y="316"/>
			<point x="253" y="384" type="curve" smooth="yes"/>
			<point x="253" y="459"/>
			<point x="201" y="468"/>
			<point x="184" y="468" type="curve" smooth="yes"/>
			<point x="153" y="468"/>
			<point x="136" y="461"/>
			<point x="127" y="461" type="curve" smooth="yes"/>
			<point x="114" y="461"/>
			<point x="110" y="472"/>
			<point x="110" y="484" type="curve" smooth="yes"/>
			<point x="110" y="496"/>
			<point x="113" y="508"/>
			<point x="127" y="508" type="curve" smooth="yes"/>
			<point x="136" y="508"/>
			<point x="153" y="501"/>
			<point x="184" y="501" type="curve" smooth="yes"/>
			<point x="225" y="501"/>
			<point x="239" y="541"/>
			<point x="239" y="577" type="curve" smooth="yes"/>
			<point x="239" y="602"/>
			<point x="231" y="652"/>
			<point x="182" y="652" type="curve" smooth="yes"/>
			<point x="147" y="652"/>
			<point x="129" y="624"/>
			<point x="117" y="577" type="curve"/>
			<point x="113" y="563"/>
			<point x="104" y="559"/>
			<point x="94" y="559" type="curve" smooth="yes"/>
			<point x="76" y="559"/>
			<point x="53" y="573"/>
			<point x="53" y="596" type="curve" smooth="yes"/>
			<point x="53" y="635"/>
			<point x="104" y="680"/>
			<point x="187" y="680" type="curve" smooth="yes"/>
			<point x="248" y="680"/>
			<point x="321" y="657"/>
			<point x="321" y="581" type="curve" smooth="yes"/>
			<point x="321" y="518"/>
			<point x="265" y="496"/>
			<point x="233" y="489" type="curve"/>
			<point x="233" y="487" type="line"/>
			<point x="265" y="485"/>
			<point x="339" y="461"/>
			<point x="339" y="382" type="curve" smooth="yes"/>
			<point x="339" y="306"/>
			<point x="279" y="265"/>
			<point x="175" y="265" type="curve" smooth="yes"/>
			<point x="94" y="265"/>
			<point x="36" y="300"/>
		</contour>
	</outline>
</glyph>
<glyph name="acute" format="1">
  <advance width="400"/>
  <unicode hex="00B4"/>
  <outline>
    <contour>
      <point x="130" y="542" type="move" name="_Anchor-1"/>
    </contour>
    <contour>
      <point x="129" y="562" type="line"/>
      <point x="248" y="682" type="line" smooth="yes"/>
      <point x="278" y="713"/>
      <point x="295" y="723"/>
      <point x="312" y="723" type="curve" smooth="yes"/>
      <point x="327" y="723"/>
      <point x="351" y="700"/>
      <point x="351" y="680" type="curve" smooth="yes"/>
      <point x="351" y="659"/>
      <point x="325" y="642"/>
      <point x="295" y="626" type="curve" smooth="yes"/>
      <point x="144" y="542" type="line"/>
    </contour>
  </outline>
</glyph>
<glyph name="paragraph" format="1">
  <advance width="555"/>
  <unicode hex="00B6"/>
  <outline>
    <contour>
      <point x="64" y="466" type="curve" smooth="yes"/>
      <point x="64" y="596"/>
      <point x="146" y="692"/>
      <point x="279" y="692" type="curve" smooth="yes"/>
      <point x="291" y="692" type="line"/>
      <point x="291" y="250" type="line"/>
      <point x="275" y="250" type="line" smooth="yes"/>
      <point x="152" y="250"/>
      <point x="64" y="342"/>
    </contour>
    <contour>
      <point x="262" y="-75" type="line"/>
      <point x="336" y="-66" type="line" smooth="yes"/>
      <point x="356" y="-63"/>
      <point x="363" y="-55"/>
      <point x="363" y="-26" type="curve" smooth="yes"/>
      <point x="363" y="692" type="line"/>
      <point x="529" y="692" type="line"/>
      <point x="529" y="666" type="line"/>
      <point x="461" y="657" type="line" smooth="yes"/>
      <point x="442" y="654"/>
      <point x="434" y="649"/>
      <point x="434" y="620" type="curve" smooth="yes"/>
      <point x="434" y="-101" type="line"/>
      <point x="262" y="-101" type="line"/>
    </contour>
  </outline>
</glyph>
<glyph name="onesuperior" format="2">
	<unicode hex="00B9"/>
	<advance width="380"/>
	<outline>
		<contour>
			<point x="81" y="272" type="line"/>
			<point x="81" y="294" type="line"/>
			<point x="136" y="299" type="line" smooth="yes"/>
			<point x="149" y="300"/>
			<point x="157" y="306"/>
			<point x="157" y="325" type="curve" smooth="yes"/>
			<point x="157" y="608" type="line" smooth="yes"/>
			<point x="157" y="623"/>
			<point x="153" y="630"/>
			<point x="142" y="632" type="curve"/>
			<point x="81" y="640" type="line"/>
			<point x="81" y="659" type="line"/>
			<point x="224" y="680" type="line"/>
			<point x="231" y="676" type="line"/>
			<point x="231" y="325" type="line" smooth="yes"/>
			<point x="231" y="306"/>
			<point x="239" y="300"/>
			<point x="253" y="299" type="curve" smooth="yes"/>
			<point x="307" y="294" type="line"/>
			<point x="307" y="272" type="line"/>
		</contour>
	</outline>
</glyph>
<glyph name="uni00B9" format="2">
  <advance width="380"/>
  <unicode hex="00B9"/>
  <outline>
    <contour>
      <point x="81" y="408" type="line"/>
      <point x="81" y="430" type="line"/>
      <point x="136" y="435" type="line" smooth="yes"/>
      <point x="148.985" y="436.18"/>
      <point x="157" y="442"/>
      <point x="157" y="461" type="curve" smooth="yes"/>
      <point x="157" y="744" type="line" smooth="yes"/>
      <point x="157" y="759"/>
      <point x="153" y="766"/>
      <point x="142" y="768" type="curve"/>
      <point x="81" y="776" type="line"/>
      <point x="81" y="795" type="line"/>
      <point x="224" y="816" type="line"/>
      <point x="231" y="812" type="line"/>
      <point x="231" y="461" type="line" smooth="yes"/>
      <point x="231" y="442"/>
      <point x="239.024" y="436.294"/>
      <point x="253" y="435" type="curve" smooth="yes"/>
      <point x="307" y="430" type="line"/>
      <point x="307" y="408" type="line"/>
    </contour>
  </outline>
</glyph>
<glyph name="guillemotright" format="1">
  <advance width="442"/>
  <unicode hex="00BB"/>
  <outline>
    <contour>
      <point x="41" y="57" type="line"/>
      <point x="120" y="221" type="line" smooth="yes"/>
      <point x="123" y="227"/>
      <point x="124" y="233"/>
      <point x="124" y="239" type="curve" smooth="yes"/>
      <point x="124" y="244"/>
      <point x="123" y="250"/>
      <point x="120" y="255" type="curve" smooth="yes"/>
      <point x="41" y="418" type="line"/>
      <point x="61" y="435" type="line"/>
      <point x="211" y="254" type="line" smooth="yes"/>
      <point x="214" y="250"/>
      <point x="216" y="244"/>
      <point x="216" y="239" type="curve" smooth="yes"/>
      <point x="216" y="233"/>
      <point x="214" y="228"/>
      <point x="211" y="223" type="curve" smooth="yes"/>
      <point x="61" y="41" type="line"/>
    </contour>
    <contour>
      <point x="226" y="57" type="line"/>
      <point x="305" y="221" type="line" smooth="yes"/>
      <point x="308" y="227"/>
      <point x="309" y="233"/>
      <point x="309" y="239" type="curve" smooth="yes"/>
      <point x="309" y="244"/>
      <point x="308" y="250"/>
      <point x="305" y="255" type="curve" smooth="yes"/>
      <point x="226" y="418" type="line"/>
      <point x="246" y="435" type="line"/>
      <point x="396" y="254" type="line" smooth="yes"/>
      <point x="399" y="250"/>
      <point x="401" y="244"/>
      <point x="401" y="239" type="curve" smooth="yes"/>
      <point x="401" y="233"/>
      <point x="399" y="228"/>
      <point x="396" y="223" type="curve" smooth="yes"/>
      <point x="246" y="41" type="line"/>
    </contour>
  </outline>
</glyph>
<glyph name="Agrave" format="1">
  <advance width="635"/>
  <unicode hex="00C0"/>
  <outline>
    <contour>
      <point x="-29" y="0" type="line"/>
      <point x="-29" y="29" type="line"/>
      <point x="34" y="32"/>
      <point x="43" y="44"/>
      <point x="64" y="98" type="curve" smooth="yes"/>
      <point x="99" y="189"/>
      <point x="141" y="309"/>
      <point x="172" y="396" type="curve" smooth="yes"/>
      <point x="277" y="692" type="line"/>
      <point x="351" y="692" type="line"/>
      <point x="563" y="89" type="line" smooth="yes"/>
      <point x="581" y="37"/>
      <point x="592" y="34"/>
      <point x="650" y="29" type="curve"/>
      <point x="650" y="0" type="line"/>
      <point x="394" y="0" type="line"/>
      <point x="394" y="29" type="line"/>
      <point x="439" y="33" type="line" smooth="yes"/>
      <point x="461" y="35"/>
      <point x="471" y="41"/>
      <point x="471" y="55" type="curve" smooth="yes"/>
      <point x="471" y="60"/>
      <point x="469" y="67"/>
      <point x="466" y="76" type="curve" smooth="yes"/>
      <point x="399" y="267" type="line"/>
      <point x="175" y="267" type="line"/>
      <point x="152" y="196"/>
      <point x="131" y="134"/>
      <point x="114" y="74" type="curve" smooth="yes"/>
      <point x="112" y="66"/>
      <point x="110" y="59"/>
      <point x="110" y="54" type="curve" smooth="yes"/>
      <point x="110" y="42"/>
      <point x="118" y="36"/>
      <point x="139" y="34" type="curve" smooth="yes"/>
      <point x="191" y="29" type="line"/>
      <point x="191" y="0" type="line"/>
    </contour>
    <contour>
      <point x="167" y="841" type="curve" smooth="yes"/>
      <point x="167" y="861"/>
      <point x="185" y="887"/>
      <point x="199" y="890" type="curve" smooth="yes"/>
      <point x="201" y="890"/>
      <point x="204" y="891"/>
      <point x="206" y="891" type="curve" smooth="yes"/>
      <point x="220" y="891"/>
      <point x="234" y="883"/>
      <point x="264" y="863" type="curve" smooth="yes"/>
      <point x="409" y="764" type="line"/>
      <point x="398" y="742" type="line"/>
      <point x="228" y="798" type="line" smooth="yes"/>
      <point x="182" y="812"/>
      <point x="167" y="819"/>
    </contour>
    <contour>
      <point x="188" y="305" type="curve"/>
      <point x="387" y="305" type="line"/>
      <point x="288" y="591" type="line"/>
      <point x="285" y="591" type="line"/>
      <point x="255" y="503"/>
      <point x="220" y="405"/>
    </contour>
  </outline>
</glyph>
<glyph name="Eacute" format="1">
  <advance width="606"/>
  <unicode hex="00C9"/>
  <outline>
    <contour>
      <point x="35" y="0" type="line"/>
      <point x="35" y="29" type="line"/>
      <point x="123" y="35"/>
      <point x="125" y="37"/>
      <point x="125" y="93" type="curve" smooth="yes"/>
      <point x="125" y="599" type="line" smooth="yes"/>
      <point x="125" y="655"/>
      <point x="123" y="657"/>
      <point x="35" y="663" type="curve"/>
      <point x="35" y="692" type="line"/>
      <point x="540" y="692" type="line"/>
      <point x="540" y="528" type="line"/>
      <point x="510" y="528" type="line"/>
      <point x="496" y="632"/>
      <point x="473" y="657"/>
      <point x="359" y="657" type="curve" smooth="yes"/>
      <point x="261" y="657" type="line" smooth="yes"/>
      <point x="229" y="657"/>
      <point x="224" y="653"/>
      <point x="224" y="621" type="curve" smooth="yes"/>
      <point x="224" y="379" type="line"/>
      <point x="364" y="379" type="line" smooth="yes"/>
      <point x="449" y="379"/>
      <point x="453" y="403"/>
      <point x="462" y="465" type="curve"/>
      <point x="492" y="465" type="line"/>
      <point x="492" y="254" type="line"/>
      <point x="462" y="254" type="line"/>
      <point x="453" y="317"/>
      <point x="449" y="341"/>
      <point x="364" y="341" type="curve" smooth="yes"/>
      <point x="224" y="341" type="line"/>
      <point x="224" y="120" type="line" smooth="yes"/>
      <point x="224" y="71"/>
      <point x="228" y="54"/>
      <point x="249" y="45" type="curve" smooth="yes"/>
      <point x="270" y="37"/>
      <point x="306" y="35"/>
      <point x="353" y="35" type="curve" smooth="yes"/>
      <point x="479" y="35"/>
      <point x="524" y="51"/>
      <point x="547" y="173" type="curve"/>
      <point x="577" y="173" type="line"/>
      <point x="565" y="0" type="line"/>
    </contour>
    <contour>
      <point x="232" y="764" type="line"/>
      <point x="377" y="863" type="line" smooth="yes"/>
      <point x="407" y="883"/>
      <point x="421" y="891"/>
      <point x="435" y="891" type="curve" smooth="yes"/>
      <point x="437" y="891"/>
      <point x="440" y="890"/>
      <point x="442" y="890" type="curve" smooth="yes"/>
      <point x="456" y="887"/>
      <point x="474" y="861"/>
      <point x="474" y="841" type="curve" smooth="yes"/>
      <point x="474" y="819"/>
      <point x="459" y="812"/>
      <point x="413" y="798" type="curve" smooth="yes"/>
      <point x="243" y="742" type="line"/>
    </contour>
  </outline>
</glyph>
<glyph name="Eth" format="2">
  <advance width="785"/>
  <unicode hex="00D0"/>
  <outline>
    <contour>
      <point x="20" y="379" type="line"/>
      <point x="368" y="379" type="line"/>
      <point x="368" y="341" type="line"/>
      <point x="20" y="341" type="line"/>
    </contour>
    <contour>
      <point x="41" y="0" type="line"/>
      <point x="41" y="29" type="line"/>
      <point x="129" y="35"/>
      <point x="131" y="37"/>
      <point x="131" y="93" type="curve" smooth="yes"/>
      <point x="131" y="599" type="line" smooth="yes"/>
      <point x="131" y="655"/>
      <point x="129" y="657"/>
      <point x="41" y="663" type="curve"/>
      <point x="41" y="692" type="line"/>
      <point x="373" y="692" type="line" smooth="yes"/>
      <point x="664" y="692"/>
      <point x="737" y="522"/>
      <point x="737" y="353" type="curve" smooth="yes"/>
      <point x="737" y="179"/>
      <point x="660" y="0"/>
      <point x="353" y="0" type="curve" smooth="yes"/>
    </contour>
    <contour>
      <point x="230" y="125" type="line" smooth="yes"/>
      <point x="230" y="46"/>
      <point x="247" y="35"/>
      <point x="334" y="35" type="curve" smooth="yes"/>
      <point x="502" y="35"/>
      <point x="625" y="102"/>
      <point x="625" y="344" type="curve" smooth="yes"/>
      <point x="625" y="523"/>
      <point x="558" y="657"/>
      <point x="346" y="657" type="curve" smooth="yes"/>
      <point x="239" y="657"/>
      <point x="230" y="652"/>
      <point x="230" y="600" type="curve" smooth="yes"/>
    </contour>
  </outline>
</glyph>
<glyph name="Ntilde" format="1">
  <advance width="780"/>
  <unicode hex="00D1"/>
  <outline>
    <contour>
      <point x="34" y="663" type="curve"/>
      <point x="34" y="692" type="line"/>
      <point x="226" y="692" type="line"/>
      <point x="355" y="508"/>
      <point x="485" y="324"/>
      <point x="616" y="140" type="curve"/>
      <point x="618" y="138" type="line"/>
      <point x="618" y="489" type="line" smooth="yes"/>
      <point x="618" y="542"/>
      <point x="616" y="580"/>
      <point x="611" y="613" type="curve" smooth="yes"/>
      <point x="605" y="655"/>
      <point x="581" y="658"/>
      <point x="516" y="663" type="curve"/>
      <point x="516" y="692" type="line"/>
      <point x="753" y="692" type="line"/>
      <point x="753" y="663" type="line"/>
      <point x="701" y="659"/>
      <point x="677" y="655"/>
      <point x="671" y="613" type="curve" smooth="yes"/>
      <point x="666" y="580"/>
      <point x="664" y="542"/>
      <point x="664" y="489" type="curve" smooth="yes"/>
      <point x="664" y="0" type="line"/>
      <point x="598" y="0" type="line"/>
      <point x="457" y="201"/>
      <point x="315" y="401"/>
      <point x="172" y="602" type="curve"/>
      <point x="170" y="602" type="line"/>
      <point x="170" y="203" type="line" smooth="yes"/>
      <point x="170" y="150"/>
      <point x="172" y="112"/>
      <point x="177" y="79" type="curve" smooth="yes"/>
      <point x="183" y="37"/>
      <point x="207" y="34"/>
      <point x="272" y="29" type="curve"/>
      <point x="272" y="0" type="line"/>
      <point x="35" y="0" type="line"/>
      <point x="35" y="29" type="line"/>
      <point x="87" y="33"/>
      <point x="111" y="37"/>
      <point x="117" y="79" type="curve" smooth="yes"/>
      <point x="122" y="112"/>
      <point x="124" y="150"/>
      <point x="124" y="203" type="curve" smooth="yes"/>
      <point x="124" y="599" type="line" smooth="yes"/>
      <point x="124" y="655"/>
      <point x="122" y="657"/>
    </contour>
    <contour>
      <point x="218" y="736" type="line"/>
      <point x="238" y="776"/>
      <point x="266" y="834"/>
      <point x="330" y="834" type="curve" smooth="yes"/>
      <point x="354" y="834"/>
      <point x="382" y="825"/>
      <point x="409" y="815" type="curve" smooth="yes"/>
      <point x="437" y="806"/>
      <point x="464" y="796"/>
      <point x="485" y="796" type="curve" smooth="yes"/>
      <point x="513" y="796"/>
      <point x="525" y="807"/>
      <point x="553" y="842" type="curve"/>
      <point x="573" y="831" type="line"/>
      <point x="544" y="774"/>
      <point x="518" y="736"/>
      <point x="469" y="736" type="curve" smooth="yes"/>
      <point x="447" y="736"/>
      <point x="418" y="746"/>
      <point x="389" y="755" type="curve" smooth="yes"/>
      <point x="360" y="765"/>
      <point x="331" y="774"/>
      <point x="309" y="774" type="curve" smooth="yes"/>
      <point x="276" y="774"/>
      <point x="259" y="758"/>
      <point x="237" y="723" type="curve"/>
    </contour>
  </outline>
</glyph>
<glyph name="Ograve" format="1">
  <advance width="762"/>
  <unicode hex="00D2"/>
  <outline>
    <contour>
      <point x="48" y="346" type="curve" smooth="yes"/>
      <point x="48" y="458"/>
      <point x="79" y="550"/>
      <point x="133" y="610" type="curve" smooth="yes"/>
      <point x="189" y="673"/>
      <point x="271" y="707"/>
      <point x="381" y="707" type="curve" smooth="yes"/>
      <point x="491" y="707"/>
      <point x="573" y="673"/>
      <point x="629" y="610" type="curve" smooth="yes"/>
      <point x="683" y="550"/>
      <point x="714" y="458"/>
      <point x="714" y="346" type="curve" smooth="yes"/>
      <point x="714" y="234"/>
      <point x="683" y="142"/>
      <point x="629" y="82" type="curve" smooth="yes"/>
      <point x="573" y="19"/>
      <point x="491" y="-15"/>
      <point x="381" y="-15" type="curve" smooth="yes"/>
      <point x="271" y="-15"/>
      <point x="189" y="19"/>
      <point x="133" y="82" type="curve" smooth="yes"/>
      <point x="79" y="142"/>
      <point x="48" y="234"/>
    </contour>
    <contour>
      <point x="160" y="346" type="curve" smooth="yes"/>
      <point x="160" y="199"/>
      <point x="203" y="20"/>
      <point x="381" y="20" type="curve" smooth="yes"/>
      <point x="559" y="20"/>
      <point x="602" y="199"/>
      <point x="602" y="346" type="curve" smooth="yes"/>
      <point x="602" y="493"/>
      <point x="559" y="672"/>
      <point x="381" y="672" type="curve" smooth="yes"/>
      <point x="203" y="672"/>
      <point x="160" y="493"/>
    </contour>
    <contour>
      <point x="213" y="841" type="curve" smooth="yes"/>
      <point x="213" y="861"/>
      <point x="231" y="887"/>
      <point x="245" y="890" type="curve" smooth="yes"/>
      <point x="247" y="890"/>
      <point x="250" y="891"/>
      <point x="252" y="891" type="curve" smooth="yes"/>
      <point x="266" y="891"/>
      <point x="280" y="883"/>
      <point x="310" y="863" type="curve" smooth="yes"/>
      <point x="455" y="764" type="line"/>
      <point x="444" y="742" type="line"/>
      <point x="274" y="798" type="line" smooth="yes"/>
      <point x="228" y="812"/>
      <point x="213" y="819"/>
    </contour>
  </outline>
</glyph>
<glyph name="multiply" format="1">
  <advance width="570"/>
  <unicode hex="00D7"/>
  <outline>
    <contour>
      <point x="63" y="66" type="line"/>
      <point x="242" y="250" type="line"/>
      <point x="63" y="432" type="line"/>
      <point x="104" y="478" type="line"/>
      <point x="285" y="294" type="line"/>
      <point x="465" y="478" type="line"/>
      <point x="507" y="432" type="line"/>
      <point x="328" y="250" type="line"/>
      <point x="507" y="66" type="line"/>
      <point x="465" y="22" type="line"/>
      <point x="285" y="206" type="line"/>
      <point x="104" y="22" type="line"/>
    </contour>
  </outline>
</glyph>
<glyph name="Ugrave" format="1">
  <advance width="791"/>
  <unicode hex="00D9"/>
  <outline>
    <contour>
      <point x="29" y="663" type="curve"/>
      <point x="29" y="692" type="line"/>
      <point x="308" y="692" type="line"/>
      <point x="308" y="663" type="line"/>
      <point x="221" y="657"/>
      <point x="218" y="655"/>
      <point x="218" y="599" type="curve" smooth="yes"/>
      <point x="218" y="275" type="line" smooth="yes"/>
      <point x="218" y="180"/>
      <point x="233" y="120"/>
      <point x="263" y="80" type="curve" smooth="yes"/>
      <point x="294" y="40"/>
      <point x="338" y="20"/>
      <point x="395" y="20" type="curve" smooth="yes"/>
      <point x="453" y="20"/>
      <point x="497" y="40"/>
      <point x="528" y="80" type="curve" smooth="yes"/>
      <point x="558" y="120"/>
      <point x="573" y="180"/>
      <point x="573" y="275" type="curve" smooth="yes"/>
      <point x="573" y="599" type="line" smooth="yes"/>
      <point x="573" y="655"/>
      <point x="571" y="657"/>
      <point x="483" y="663" type="curve"/>
      <point x="483" y="692" type="line"/>
      <point x="762" y="692" type="line"/>
      <point x="762" y="663" type="line"/>
      <point x="675" y="657"/>
      <point x="672" y="655"/>
      <point x="672" y="599" type="curve" smooth="yes"/>
      <point x="672" y="255" type="line" smooth="yes"/>
      <point x="672" y="195"/>
      <point x="662" y="142"/>
      <point x="645" y="107" type="curve" smooth="yes"/>
      <point x="599" y="8"/>
      <point x="494" y="-15"/>
      <point x="395" y="-15" type="curve" smooth="yes"/>
      <point x="297" y="-15"/>
      <point x="192" y="9"/>
      <point x="146" y="107" type="curve" smooth="yes"/>
      <point x="129" y="141"/>
      <point x="119" y="194"/>
      <point x="119" y="253" type="curve" smooth="yes"/>
      <point x="119" y="599" type="line" smooth="yes"/>
      <point x="119" y="655"/>
      <point x="117" y="657"/>
    </contour>
    <contour>
      <point x="215" y="841" type="curve" smooth="yes"/>
      <point x="215" y="861"/>
      <point x="233" y="887"/>
      <point x="247" y="890" type="curve" smooth="yes"/>
      <point x="249" y="890"/>
      <point x="252" y="891"/>
      <point x="254" y="891" type="curve" smooth="yes"/>
      <point x="268" y="891"/>
      <point x="282" y="883"/>
      <point x="312" y="863" type="curve" smooth="yes"/>
      <point x="457" y="764" type="line"/>
      <point x="446" y="742" type="line"/>
      <point x="276" y="798" type="line" smooth="yes"/>
      <point x="230" y="812"/>
      <point x="215" y="819"/>
    </contour>
  </outline>
</glyph>
<glyph name="Uacute" format="1">
  <advance width="791"/>
  <unicode hex="00DA"/>
  <outline>
    <contour>
      <point x="29" y="663" type="curve"/>
      <point x="29" y="692" type="line"/>
      <point x="308" y="692" type="line"/>
      <point x="308" y="663" type="line"/>
      <point x="221" y="657"/>
      <point x="218" y="655"/>
      <point x="218" y="599" type="curve" smooth="yes"/>
      <point x="218" y="275" type="line" smooth="yes"/>
      <point x="218" y="180"/>
      <point x="233" y="120"/>
      <point x="263" y="80" type="curve" smooth="yes"/>
      <point x="294" y="40"/>
      <point x="338" y="20"/>
      <point x="395" y="20" type="curve" smooth="yes"/>
      <point x="453" y="20"/>
      <point x="497" y="40"/>
      <point x="528" y="80" type="curve" smooth="yes"/>
      <point x="558" y="120"/>
      <point x="573" y="180"/>
      <point x="573" y="275" type="curve" smooth="yes"/>
      <point x="573" y="599" type="line" smooth="yes"/>
      <point x="573" y="655"/>
      <point x="571" y="657"/>
      <point x="483" y="663" type="curve"/>
      <point x="483" y="692" type="line"/>
      <point x="762" y="692" type="line"/>
      <point x="762" y="663" type="line"/>
      <point x="675" y="657"/>
      <point x="672" y="655"/>
      <point x="672" y="599" type="curve" smooth="yes"/>
      <point x="672" y="255" type="line" smooth="yes"/>
      <point x="672" y="195"/>
      <point x="662" y="142"/>
      <point x="645" y="107" type="curve" smooth="yes"/>
      <point x="599" y="8"/>
      <point x="494" y="-15"/>
      <point x="395" y="-15" type="curve" smooth="yes"/>
      <point x="297" y="-15"/>
      <point x="192" y="9"/>
      <point x="146" y="107" type="curve" smooth="yes"/>
      <point x="129" y="141"/>
      <point x="119" y="194"/>
      <point x="119" y="253" type="curve" smooth="yes"/>
      <point x="119" y="599" type="line" smooth="yes"/>
      <point x="119" y="655"/>
      <point x="117" y="657"/>
    </contour>
    <contour>
      <point x="307" y="764" type="line"/>
      <point x="452" y="863" type="line" smooth="yes"/>
      <point x="482" y="883"/>
      <point x="496" y="891"/>
      <point x="510" y="891" type="curve" smooth="yes"/>
      <point x="512" y="891"/>
      <point x="515" y="890"/>
      <point x="517" y="890" type="curve" smooth="yes"/>
      <point x="531" y="887"/>
      <point x="549" y="861"/>
      <point x="549" y="841" type="curve" smooth="yes"/>
      <point x="549" y="819"/>
      <point x="534" y="812"/>
      <point x="488" y="798" type="curve" smooth="yes"/>
      <point x="318" y="742" type="line"/>
    </contour>
  </outline>
</glyph>
<glyph name="ccedilla" format="1">
  <advance width="496"/>
  <unicode hex="00E7"/>
  <outline>
    <contour>
      <point x="49" y="240" type="curve" smooth="yes"/>
      <point x="49" y="373"/>
      <point x="110" y="502"/>
      <point x="292" y="502" type="curve" smooth="yes"/>
      <point x="400" y="502"/>
      <point x="466" y="451"/>
      <point x="466" y="405" type="curve" smooth="yes"/>
      <point x="466" y="367"/>
      <point x="427" y="354"/>
      <point x="406" y="354" type="curve" smooth="yes"/>
      <point x="387" y="354"/>
      <point x="381" y="364"/>
      <point x="375" y="380" type="curve" smooth="yes"/>
      <point x="355" y="434"/>
      <point x="326" y="467"/>
      <point x="281" y="467" type="curve" smooth="yes"/>
      <point x="212" y="467"/>
      <point x="153" y="407"/>
      <point x="153" y="258" type="curve" smooth="yes"/>
      <point x="153" y="164"/>
      <point x="181" y="40"/>
      <point x="300" y="40" type="curve" smooth="yes"/>
      <point x="373" y="40"/>
      <point x="413" y="76"/>
      <point x="444" y="146" type="curve"/>
      <point x="473" y="132" type="line"/>
      <point x="448" y="36"/>
      <point x="369" y="-4"/>
      <point x="302" y="-10" type="curve"/>
      <point x="276" y="-55" type="line"/>
      <point x="313" y="-60"/>
      <point x="365" y="-78"/>
      <point x="365" y="-142" type="curve" smooth="yes"/>
      <point x="365" y="-219"/>
      <point x="274" y="-230"/>
      <point x="243" y="-230" type="curve" smooth="yes"/>
      <point x="225" y="-230"/>
      <point x="213" y="-229"/>
      <point x="199" y="-227" type="curve"/>
      <point x="199" y="-201" type="line"/>
      <point x="248" y="-201"/>
      <point x="287" y="-186"/>
      <point x="287" y="-145" type="curve" smooth="yes"/>
      <point x="287" y="-96"/>
      <point x="243" y="-92"/>
      <point x="225" y="-91" type="curve"/>
      <point x="221" y="-84" type="line"/>
      <point x="261" y="-10" type="line"/>
      <point x="124" y="-4"/>
      <point x="49" y="81"/>
    </contour>
  </outline>
</glyph>
<glyph name="iacute" format="1">
  <advance width="291"/>
  <unicode hex="00ED"/>
  <outline>
    <contour>
      <point x="32" y="0" type="line"/>
      <point x="32" y="29" type="line"/>
      <point x="104" y="34"/>
      <point x="107" y="36"/>
      <point x="107" y="87" type="curve" smooth="yes"/>
      <point x="107" y="402" type="line" smooth="yes"/>
      <point x="107" y="438"/>
      <point x="101" y="443"/>
      <point x="75" y="447" type="curve" smooth="yes"/>
      <point x="37" y="452" type="line"/>
      <point x="37" y="477" type="line"/>
      <point x="194" y="502" type="line"/>
      <point x="201" y="496" type="line"/>
      <point x="201" y="87" type="line" smooth="yes"/>
      <point x="201" y="36"/>
      <point x="205" y="34"/>
      <point x="276" y="29" type="curve"/>
      <point x="276" y="0" type="line"/>
    </contour>
    <contour>
      <point x="55" y="562" type="line"/>
      <point x="174" y="682" type="line" smooth="yes"/>
      <point x="204" y="713"/>
      <point x="221" y="723"/>
      <point x="238" y="723" type="curve" smooth="yes"/>
      <point x="253" y="723"/>
      <point x="277" y="700"/>
      <point x="277" y="680" type="curve" smooth="yes"/>
      <point x="277" y="659"/>
      <point x="251" y="642"/>
      <point x="221" y="626" type="curve" smooth="yes"/>
      <point x="70" y="542" type="line"/>
    </contour>
  </outline>
</glyph>
<glyph name="eth" format="1">
  <advance width="577"/>
  <unicode hex="00F0"/>
  <outline>
    <contour>
      <point x="49" y="245" type="curve" smooth="yes"/>
      <point x="49" y="405"/>
      <point x="129" y="502"/>
      <point x="292" y="502" type="curve" smooth="yes"/>
      <point x="311" y="502"/>
      <point x="327" y="499"/>
      <point x="344" y="496" type="curve"/>
      <point x="346" y="499" type="line"/>
      <point x="324" y="529"/>
      <point x="296" y="561"/>
      <point x="262" y="594" type="curve"/>
      <point x="132" y="535" type="line"/>
      <point x="107" y="571" type="line"/>
      <point x="229" y="625" type="line"/>
      <point x="197" y="654"/>
      <point x="158" y="685"/>
      <point x="117" y="716" type="curve"/>
      <point x="117" y="725" type="line"/>
      <point x="160" y="742" type="line"/>
      <point x="207" y="714"/>
      <point x="253" y="682"/>
      <point x="290" y="652" type="curve"/>
      <point x="421" y="713" type="line"/>
      <point x="446" y="677" type="line"/>
      <point x="327" y="623" type="line"/>
      <point x="365" y="592"/>
      <point x="398" y="560"/>
      <point x="422" y="531" type="curve" smooth="yes"/>
      <point x="496" y="442"/>
      <point x="528" y="367"/>
      <point x="528" y="255" type="curve" smooth="yes"/>
      <point x="528" y="75"/>
      <point x="445" y="-12"/>
      <point x="287" y="-12" type="curve" smooth="yes"/>
      <point x="129" y="-12"/>
      <point x="49" y="85"/>
    </contour>
    <contour>
      <point x="153" y="245" type="curve" smooth="yes"/>
      <point x="153" y="111"/>
      <point x="188" y="23"/>
      <point x="287" y="23" type="curve" smooth="yes"/>
      <point x="390" y="23"/>
      <point x="424" y="111"/>
      <point x="424" y="245" type="curve" smooth="yes"/>
      <point x="424" y="394"/>
      <point x="397" y="467"/>
      <point x="287" y="467" type="curve" smooth="yes"/>
      <point x="188" y="467"/>
      <point x="153" y="379"/>
    </contour>
  </outline>
</glyph>
<glyph name="ntilde" format="1">
  <advance width="619"/>
  <unicode hex="00F1"/>
  <outline>
    <contour>
      <point x="32" y="0" type="line"/>
      <point x="32" y="29" type="line"/>
      <point x="104" y="34"/>
      <point x="107" y="36"/>
      <point x="107" y="87" type="curve" smooth="yes"/>
      <point x="107" y="402" type="line" smooth="yes"/>
      <point x="107" y="438"/>
      <point x="101" y="443"/>
      <point x="75" y="447" type="curve" smooth="yes"/>
      <point x="37" y="452" type="line"/>
      <point x="37" y="477" type="line"/>
      <point x="186" y="502" type="line"/>
      <point x="200" y="426" type="line"/>
      <point x="262" y="466"/>
      <point x="308" y="502"/>
      <point x="382" y="502" type="curve" smooth="yes"/>
      <point x="474" y="502"/>
      <point x="529" y="444"/>
      <point x="529" y="343" type="curve" smooth="yes"/>
      <point x="529" y="87" type="line" smooth="yes"/>
      <point x="529" y="36"/>
      <point x="533" y="34"/>
      <point x="604" y="29" type="curve"/>
      <point x="604" y="0" type="line"/>
      <point x="360" y="0" type="line"/>
      <point x="360" y="29" type="line"/>
      <point x="432" y="34"/>
      <point x="435" y="36"/>
      <point x="435" y="87" type="curve" smooth="yes"/>
      <point x="435" y="323" type="line" smooth="yes"/>
      <point x="435" y="410"/>
      <point x="398" y="448"/>
      <point x="330" y="448" type="curve" smooth="yes"/>
      <point x="277" y="448"/>
      <point x="232" y="415"/>
      <point x="211" y="376" type="curve" smooth="yes"/>
      <point x="203" y="360"/>
      <point x="201" y="346"/>
      <point x="201" y="321" type="curve" smooth="yes"/>
      <point x="201" y="87" type="line" smooth="yes"/>
      <point x="201" y="36"/>
      <point x="205" y="34"/>
      <point x="276" y="29" type="curve"/>
      <point x="276" y="0" type="line"/>
    </contour>
    <contour>
      <point x="132" y="576" type="line"/>
      <point x="152" y="616"/>
      <point x="180" y="674"/>
      <point x="244" y="674" type="curve" smooth="yes"/>
      <point x="268" y="674"/>
      <point x="296" y="665"/>
      <point x="323" y="655" type="curve" smooth="yes"/>
      <point x="351" y="646"/>
      <point x="378" y="636"/>
      <point x="399" y="636" type="curve" smooth="yes"/>
      <point x="427" y="636"/>
      <point x="439" y="647"/>
      <point x="467" y="682" type="curve"/>
      <point x="487" y="671" type="line"/>
      <point x="473" y="643"/>
      <point x="459" y="619"/>
      <point x="443" y="602" type="curve" smooth="yes"/>
      <point x="426" y="586"/>
      <point x="408" y="576"/>
      <point x="383" y="576" type="curve" smooth="yes"/>
      <point x="361" y="576"/>
      <point x="332" y="586"/>
      <point x="303" y="595" type="curve" smooth="yes"/>
      <point x="274" y="605"/>
      <point x="245" y="614"/>
      <point x="223" y="614" type="curve" smooth="yes"/>
      <point x="190" y="614"/>
      <point x="173" y="598"/>
      <point x="151" y="563" type="curve"/>
    </contour>
  </outline>
</glyph>
<glyph name="divide" format="2">
	<unicode hex="00F7"/>
	<advance width="570"/>
	<outline>
		<contour>
			<point x="43" y="221" type="line"/>
			<point x="43" y="280" type="line"/>
			<point x="527" y="280" type="line"/>
			<point x="527" y="221" type="line"/>
		</contour>
		<contour>
			<point x="225" y="85" type="curve" smooth="yes"/>
			<point x="225" y="118"/>
			<point x="252" y="144"/>
			<point x="284" y="144" type="curve" smooth="yes"/>
			<point x="316" y="144"/>
			<point x="342" y="118"/>
			<point x="342" y="85" type="curve" smooth="yes"/>
			<point x="342" y="52"/>
			<point x="317" y="26"/>
			<point x="284" y="26" type="curve" smooth="yes"/>
			<point x="251" y="26"/>
			<point x="225" y="52"/>
		</contour>
		<contour>
			<point x="225" y="415" type="curve" smooth="yes"/>
			<point x="225" y="448"/>
			<point x="252" y="474"/>
			<point x="284" y="474" type="curve" smooth="yes"/>
			<point x="316" y="474"/>
			<point x="342" y="448"/>
			<point x="342" y="415" type="curve" smooth="yes"/>
			<point x="342" y="382"/>
			<point x="317" y="356"/>
			<point x="284" y="356" type="curve" smooth="yes"/>
			<point x="251" y="356"/>
			<point x="225" y="382"/>
		</contour>
	</outline>
</glyph>
<glyph name="oslash" format="2">
	<unicode hex="00F8"/>
	<advance width="577"/>
	<outline>
		<contour>
			<point x="96" y="-18" type="line"/>
			<point x="127" y="-41" type="line"/>
			<point x="472" y="511" type="line"/>
			<point x="440" y="532" type="line"/>
		</contour>
		<contour>
			<point x="49" y="245" type="curve" smooth="yes"/>
			<point x="49" y="83"/>
			<point x="128" y="-12"/>
			<point x="289" y="-12" type="curve" smooth="yes"/>
			<point x="450" y="-12"/>
			<point x="529" y="83"/>
			<point x="529" y="245" type="curve" smooth="yes"/>
			<point x="529" y="407"/>
			<point x="450" y="502"/>
			<point x="289" y="502" type="curve" smooth="yes"/>
			<point x="128" y="502"/>
			<point x="49" y="407"/>
		</contour>
		<contour>
			<point x="153" y="245" type="curve" smooth="yes"/>
			<point x="153" y="383"/>
			<point x="197" y="467"/>
			<point x="289" y="467" type="curve" smooth="yes"/>
			<point x="381" y="467"/>
			<point x="425" y="383"/>
			<point x="425" y="245" type="curve" smooth="yes"/>
			<point x="425" y="107"/>
			<point x="381" y="23"/>
			<point x="289" y="23" type="curve" smooth="yes"/>
			<point x="197" y="23"/>
			<point x="153" y="107"/>
		</contour>
	</outline>
</glyph>
<glyph name="aogonek" format="1">
  <advance width="523"/>
  <unicode hex="0105"/>
  <outline>
    <contour>
      <point x="49" y="130" type="curve" smooth="yes"/>
      <point x="49" y="177"/>
      <point x="70" y="226"/>
      <point x="142" y="249" type="curve" smooth="yes"/>
      <point x="221" y="274"/>
      <point x="318" y="299"/>
      <point x="343" y="325" type="curve"/>
      <point x="343" y="367" type="line" smooth="yes"/>
      <point x="343" y="447"/>
      <point x="297" y="467"/>
      <point x="258" y="467" type="curve" smooth="yes"/>
      <point x="218" y="467"/>
      <point x="177" y="443"/>
      <point x="155" y="369" type="curve" smooth="yes"/>
      <point x="150" y="352"/>
      <point x="144" y="341"/>
      <point x="123" y="341" type="curve" smooth="yes"/>
      <point x="104" y="341"/>
      <point x="67" y="356"/>
      <point x="67" y="388" type="curve" smooth="yes"/>
      <point x="67" y="443"/>
      <point x="156" y="502"/>
      <point x="269" y="502" type="curve" smooth="yes"/>
      <point x="420" y="502"/>
      <point x="433" y="427"/>
      <point x="433" y="369" type="curve" smooth="yes"/>
      <point x="433" y="127" type="line" smooth="yes"/>
      <point x="433" y="53"/>
      <point x="454" y="39"/>
      <point x="488" y="39" type="curve" smooth="yes"/>
      <point x="499" y="39"/>
      <point x="511" y="40"/>
      <point x="519" y="42" type="curve"/>
      <point x="525" y="18" type="line"/>
      <point x="482" y="-4"/>
      <point x="439" y="-7"/>
      <point x="421" y="-20" type="curve" smooth="yes"/>
      <point x="387" y="-44"/>
      <point x="360" y="-83"/>
      <point x="360" y="-132" type="curve" smooth="yes"/>
      <point x="360" y="-168"/>
      <point x="386" y="-186"/>
      <point x="418" y="-186" type="curve" smooth="yes"/>
      <point x="434" y="-186"/>
      <point x="458" y="-182"/>
      <point x="475" y="-174" type="curve"/>
      <point x="483" y="-195" type="line"/>
      <point x="459" y="-216"/>
      <point x="430" y="-230"/>
      <point x="390" y="-230" type="curve" smooth="yes"/>
      <point x="300" y="-230"/>
      <point x="286" y="-170"/>
      <point x="286" y="-139" type="curve" smooth="yes"/>
      <point x="286" y="-80"/>
      <point x="327" y="-36"/>
      <point x="387" y="-8" type="curve"/>
      <point x="365" y="-3"/>
      <point x="352" y="21"/>
      <point x="342" y="48" type="curve"/>
      <point x="310" y="27"/>
      <point x="251" y="-12"/>
      <point x="193" y="-12" type="curve" smooth="yes"/>
      <point x="99" y="-12"/>
      <point x="49" y="55"/>
    </contour>
    <contour>
      <point x="150" y="144" type="curve" smooth="yes"/>
      <point x="150" y="85"/>
      <point x="180" y="41"/>
      <point x="242" y="41" type="curve" smooth="yes"/>
      <point x="281" y="41"/>
      <point x="343" y="62"/>
      <point x="343" y="143" type="curve" smooth="yes"/>
      <point x="343" y="284" type="line"/>
      <point x="321" y="270"/>
      <point x="268" y="251"/>
      <point x="228" y="236" type="curve" smooth="yes"/>
      <point x="172" y="215"/>
      <point x="150" y="191"/>
    </contour>
  </outline>
</glyph>
<glyph name="Ccircumflex" format="1">
  <advance width="684"/>
  <unicode hex="0108"/>
  <outline>
    <contour>
      <point x="48" y="341" type="curve" smooth="yes"/>
      <point x="48" y="454"/>
      <point x="82" y="540"/>
      <point x="139" y="604" type="curve" smooth="yes"/>
      <point x="199" y="671"/>
      <point x="298" y="707"/>
      <point x="421" y="707" type="curve" smooth="yes"/>
      <point x="512" y="707"/>
      <point x="588" y="689"/>
      <point x="633" y="668" type="curve"/>
      <point x="633" y="512" type="line"/>
      <point x="603" y="512" type="line"/>
      <point x="584" y="630"/>
      <point x="513" y="672"/>
      <point x="411" y="672" type="curve" smooth="yes"/>
      <point x="225" y="672"/>
      <point x="160" y="508"/>
      <point x="160" y="344" type="curve" smooth="yes"/>
      <point x="160" y="223"/>
      <point x="203" y="20"/>
      <point x="409" y="20" type="curve" smooth="yes"/>
      <point x="540" y="20"/>
      <point x="591" y="96"/>
      <point x="619" y="200" type="curve"/>
      <point x="649" y="200" type="line"/>
      <point x="635" y="33" type="line"/>
      <point x="587" y="7"/>
      <point x="495" y="-15"/>
      <point x="415" y="-15" type="curve" smooth="yes"/>
      <point x="303" y="-15"/>
      <point x="205" y="8"/>
      <point x="143" y="70" type="curve" smooth="yes"/>
      <point x="83" y="130"/>
      <point x="48" y="224"/>
    </contour>
    <contour>
      <point x="267" y="738" type="line"/>
      <point x="383" y="852" type="line" smooth="yes"/>
      <point x="397" y="865"/>
      <point x="408" y="876"/>
      <point x="420" y="876" type="curve" smooth="yes"/>
      <point x="432" y="876"/>
      <point x="444" y="864"/>
      <point x="457" y="852" type="curve" smooth="yes"/>
      <point x="573" y="738" type="line"/>
      <point x="560" y="717" type="line"/>
      <point x="453" y="778" type="line" smooth="yes"/>
      <point x="440" y="785"/>
      <point x="429" y="792"/>
      <point x="420" y="792" type="curve" smooth="yes"/>
      <point x="412" y="792"/>
      <point x="400" y="785"/>
      <point x="387" y="778" type="curve" smooth="yes"/>
      <point x="280" y="717" type="line"/>
    </contour>
  </outline>
</glyph>
<glyph name="Dcaron" format="1">
  <advance width="779"/>
  <unicode hex="010E"/>
  <outline>
    <contour>
      <point x="35" y="0" type="line"/>
      <point x="35" y="29" type="line"/>
      <point x="123" y="35"/>
      <point x="125" y="37"/>
      <point x="125" y="93" type="curve" smooth="yes"/>
      <point x="125" y="599" type="line" smooth="yes"/>
      <point x="125" y="655"/>
      <point x="123" y="657"/>
      <point x="35" y="663" type="curve"/>
      <point x="35" y="692" type="line"/>
      <point x="367" y="692" type="line" smooth="yes"/>
      <point x="658" y="692"/>
      <point x="731" y="522"/>
      <point x="731" y="358" type="curve" smooth="yes"/>
      <point x="731" y="179"/>
      <point x="654" y="0"/>
      <point x="347" y="0" type="curve" smooth="yes"/>
    </contour>
    <contour>
      <point x="215" y="861" type="line"/>
      <point x="228" y="882" type="line"/>
      <point x="335" y="821" type="line" smooth="yes"/>
      <point x="348" y="814"/>
      <point x="360" y="807"/>
      <point x="368" y="807" type="curve" smooth="yes"/>
      <point x="377" y="807"/>
      <point x="388" y="814"/>
      <point x="401" y="821" type="curve" smooth="yes"/>
      <point x="508" y="882" type="line"/>
      <point x="521" y="861" type="line"/>
      <point x="405" y="747" type="line" smooth="yes"/>
      <point x="392" y="735"/>
      <point x="380" y="723"/>
      <point x="368" y="723" type="curve" smooth="yes"/>
      <point x="356" y="723"/>
      <point x="345" y="734"/>
      <point x="331" y="747" type="curve" smooth="yes"/>
    </contour>
    <contour>
      <point x="224" y="125" type="line" smooth="yes"/>
      <point x="224" y="46"/>
      <point x="241" y="35"/>
      <point x="328" y="35" type="curve" smooth="yes"/>
      <point x="496" y="35"/>
      <point x="619" y="102"/>
      <point x="619" y="354" type="curve" smooth="yes"/>
      <point x="619" y="523"/>
      <point x="552" y="657"/>
      <point x="340" y="657" type="curve" smooth="yes"/>
      <point x="233" y="657"/>
      <point x="224" y="652"/>
      <point x="224" y="600" type="curve" smooth="yes"/>
    </contour>
  </outline>
</glyph>
<glyph name="dcaron" format="1">
  <advance width="648"/>
  <unicode hex="010F"/>
  <outline>
    <contour>
      <point x="49" y="235" type="curve" smooth="yes"/>
      <point x="49" y="322"/>
      <point x="75" y="388"/>
      <point x="118" y="433" type="curve" smooth="yes"/>
      <point x="160" y="476"/>
      <point x="221" y="502"/>
      <point x="303" y="502" type="curve" smooth="yes"/>
      <point x="349" y="502"/>
      <point x="386" y="493"/>
      <point x="414" y="478" type="curve"/>
      <point x="414" y="642" type="line" smooth="yes"/>
      <point x="414" y="680"/>
      <point x="408" y="685"/>
      <point x="382" y="688" type="curve" smooth="yes"/>
      <point x="344" y="692" type="line"/>
      <point x="344" y="717" type="line"/>
      <point x="501" y="742" type="line"/>
      <point x="508" y="736" type="line"/>
      <point x="508" y="87" type="line" smooth="yes"/>
      <point x="508" y="36"/>
      <point x="512" y="34"/>
      <point x="583" y="29" type="curve"/>
      <point x="583" y="0" type="line"/>
      <point x="421" y="0" type="line"/>
      <point x="413" y="7" type="line"/>
      <point x="413" y="56" type="line"/>
      <point x="359" y="12"/>
      <point x="312" y="-12"/>
      <point x="258" y="-12" type="curve" smooth="yes"/>
      <point x="126" y="-12"/>
      <point x="49" y="87"/>
    </contour>
    <contour>
      <point x="153" y="247" type="curve" smooth="yes"/>
      <point x="153" y="132"/>
      <point x="199" y="42"/>
      <point x="291" y="42" type="curve" smooth="yes"/>
      <point x="343" y="42"/>
      <point x="387" y="62"/>
      <point x="407" y="114" type="curve" smooth="yes"/>
      <point x="413" y="131"/>
      <point x="414" y="148"/>
      <point x="414" y="170" type="curve" smooth="yes"/>
      <point x="414" y="346" type="line" smooth="yes"/>
      <point x="414" y="373"/>
      <point x="413" y="387"/>
      <point x="405" y="404" type="curve" smooth="yes"/>
      <point x="387" y="445"/>
      <point x="349" y="467"/>
      <point x="302" y="467" type="curve" smooth="yes"/>
      <point x="200" y="467"/>
      <point x="153" y="377"/>
    </contour>
    <contour>
      <point x="545" y="744" type="curve" smooth="yes"/>
      <point x="545" y="769"/>
      <point x="565" y="790"/>
      <point x="596" y="790" type="curve" smooth="yes"/>
      <point x="637" y="790"/>
      <point x="664" y="751"/>
      <point x="664" y="701" type="curve" smooth="yes"/>
      <point x="664" y="639"/>
      <point x="616" y="590"/>
      <point x="572" y="548" type="curve"/>
      <point x="555" y="564" type="line"/>
      <point x="577" y="595"/>
      <point x="591" y="627"/>
      <point x="591" y="656" type="curve" smooth="yes"/>
      <point x="591" y="697"/>
      <point x="545" y="702"/>
    </contour>
  </outline>
</glyph>
<glyph name="Dcroat" format="1">
  <advance width="779"/>
  <unicode hex="0110"/>
  <outline>
    <contour>
      <point x="35" y="0" type="line"/>
      <point x="35" y="29" type="line"/>
      <point x="123" y="35"/>
      <point x="125" y="37"/>
      <point x="125" y="93" type="curve" smooth="yes"/>
      <point x="125" y="325" type="line"/>
      <point x="45" y="325" type="line"/>
      <point x="45" y="384" type="line"/>
      <point x="125" y="384" type="line"/>
      <point x="125" y="599" type="line" smooth="yes"/>
      <point x="125" y="655"/>
      <point x="123" y="657"/>
      <point x="35" y="663" type="curve"/>
      <point x="35" y="692" type="line"/>
      <point x="367" y="692" type="line" smooth="yes"/>
      <point x="658" y="692"/>
      <point x="731" y="522"/>
      <point x="731" y="358" type="curve" smooth="yes"/>
      <point x="731" y="179"/>
      <point x="654" y="0"/>
      <point x="347" y="0" type="curve" smooth="yes"/>
    </contour>
    <contour>
      <point x="224" y="125" type="line" smooth="yes"/>
      <point x="224" y="46"/>
      <point x="241" y="35"/>
      <point x="328" y="35" type="curve" smooth="yes"/>
      <point x="496" y="35"/>
      <point x="619" y="102"/>
      <point x="619" y="354" type="curve" smooth="yes"/>
      <point x="619" y="523"/>
      <point x="552" y="657"/>
      <point x="340" y="657" type="curve" smooth="yes"/>
      <point x="233" y="657"/>
      <point x="224" y="652"/>
      <point x="224" y="600" type="curve" smooth="yes"/>
      <point x="224" y="384" type="line"/>
      <point x="333" y="384" type="line"/>
      <point x="333" y="325" type="line"/>
      <point x="224" y="325" type="line"/>
    </contour>
  </outline>
</glyph>
<glyph name="itilde" format="1">
  <advance width="291"/>
  <unicode hex="0129"/>
  <outline>
    <contour>
      <point x="-27" y="576" type="line"/>
      <point x="-7" y="616"/>
      <point x="21" y="674"/>
      <point x="85" y="674" type="curve" smooth="yes"/>
      <point x="109" y="674"/>
      <point x="137" y="665"/>
      <point x="164" y="655" type="curve" smooth="yes"/>
      <point x="192" y="646"/>
      <point x="219" y="636"/>
      <point x="240" y="636" type="curve" smooth="yes"/>
      <point x="268" y="636"/>
      <point x="280" y="647"/>
      <point x="308" y="682" type="curve"/>
      <point x="328" y="671" type="line"/>
      <point x="314" y="643"/>
      <point x="300" y="619"/>
      <point x="284" y="602" type="curve" smooth="yes"/>
      <point x="267" y="586"/>
      <point x="249" y="576"/>
      <point x="224" y="576" type="curve" smooth="yes"/>
      <point x="202" y="576"/>
      <point x="173" y="586"/>
      <point x="144" y="595" type="curve" smooth="yes"/>
      <point x="115" y="605"/>
      <point x="86" y="614"/>
      <point x="64" y="614" type="curve" smooth="yes"/>
      <point x="31" y="614"/>
      <point x="14" y="598"/>
      <point x="-8" y="563" type="curve"/>
    </contour>
    <contour>
      <point x="32" y="0" type="line"/>
      <point x="32" y="29" type="line"/>
      <point x="104" y="34"/>
      <point x="107" y="36"/>
      <point x="107" y="87" type="curve" smooth="yes"/>
      <point x="107" y="402" type="line" smooth="yes"/>
      <point x="107" y="438"/>
      <point x="101" y="443"/>
      <point x="75" y="447" type="curve" smooth="yes"/>
      <point x="37" y="452" type="line"/>
      <point x="37" y="477" type="line"/>
      <point x="194" y="502" type="line"/>
      <point x="201" y="496" type="line"/>
      <point x="201" y="87" type="line" smooth="yes"/>
      <point x="201" y="36"/>
      <point x="205" y="34"/>
      <point x="276" y="29" type="curve"/>
      <point x="276" y="0" type="line"/>
    </contour>
  </outline>
</glyph>
<glyph name="Imacron" format="1">
  <advance width="349"/>
  <unicode hex="012A"/>
  <outline>
    <contour>
      <point x="16" y="759" type="line"/>
      <point x="16" y="818" type="line"/>
      <point x="332" y="818" type="line"/>
      <point x="332" y="759" type="line"/>
    </contour>
    <contour>
      <point x="35" y="0" type="line"/>
      <point x="35" y="29" type="line"/>
      <point x="123" y="35"/>
      <point x="125" y="37"/>
      <point x="125" y="93" type="curve" smooth="yes"/>
      <point x="125" y="599" type="line" smooth="yes"/>
      <point x="125" y="655"/>
      <point x="123" y="657"/>
      <point x="35" y="663" type="curve"/>
      <point x="35" y="692" type="line"/>
      <point x="314" y="692" type="line"/>
      <point x="314" y="663" type="line"/>
      <point x="227" y="657"/>
      <point x="224" y="655"/>
      <point x="224" y="599" type="curve" smooth="yes"/>
      <point x="224" y="93" type="line" smooth="yes"/>
      <point x="224" y="37"/>
      <point x="227" y="35"/>
      <point x="314" y="29" type="curve"/>
      <point x="314" y="0" type="line"/>
    </contour>
  </outline>
</glyph>
<glyph name="imacron" format="1">
  <advance width="291"/>
  <unicode hex="012B"/>
  <outline>
    <contour>
      <point x="10" y="597" type="line"/>
      <point x="10" y="656" type="line"/>
      <point x="298" y="656" type="line"/>
      <point x="298" y="597" type="line"/>
    </contour>
    <contour>
      <point x="32" y="0" type="line"/>
      <point x="32" y="29" type="line"/>
      <point x="104" y="34"/>
      <point x="107" y="36"/>
      <point x="107" y="87" type="curve" smooth="yes"/>
      <point x="107" y="402" type="line" smooth="yes"/>
      <point x="107" y="438"/>
      <point x="101" y="443"/>
      <point x="75" y="447" type="curve" smooth="yes"/>
      <point x="37" y="452" type="line"/>
      <point x="37" y="477" type="line"/>
      <point x="194" y="502" type="line"/>
      <point x="201" y="496" type="line"/>
      <point x="201" y="87" type="line" smooth="yes"/>
      <point x="201" y="36"/>
      <point x="205" y="34"/>
      <point x="276" y="29" type="curve"/>
      <point x="276" y="0" type="line"/>
    </contour>
  </outline>
</glyph>
<glyph name="Ibreve" format="1">
  <advance width="349"/>
  <unicode hex="012C"/>
  <outline>
    <contour>
      <point x="24" y="870" type="curve"/>
      <point x="52" y="870" type="line"/>
      <point x="54" y="851"/>
      <point x="80" y="811"/>
      <point x="174" y="811" type="curve" smooth="yes"/>
      <point x="268" y="811"/>
      <point x="294" y="851"/>
      <point x="296" y="870" type="curve"/>
      <point x="324" y="870" type="line"/>
      <point x="324" y="814"/>
      <point x="295" y="749"/>
      <point x="174" y="749" type="curve" smooth="yes"/>
      <point x="53" y="749"/>
      <point x="24" y="814"/>
    </contour>
    <contour>
      <point x="35" y="0" type="line"/>
      <point x="35" y="29" type="line"/>
      <point x="123" y="35"/>
      <point x="125" y="37"/>
      <point x="125" y="93" type="curve" smooth="yes"/>
      <point x="125" y="599" type="line" smooth="yes"/>
      <point x="125" y="655"/>
      <point x="123" y="657"/>
      <point x="35" y="663" type="curve"/>
      <point x="35" y="692" type="line"/>
      <point x="314" y="692" type="line"/>
      <point x="314" y="663" type="line"/>
      <point x="227" y="657"/>
      <point x="224" y="655"/>
      <point x="224" y="599" type="curve" smooth="yes"/>
      <point x="224" y="93" type="line" smooth="yes"/>
      <point x="224" y="37"/>
      <point x="227" y="35"/>
      <point x="314" y="29" type="curve"/>
      <point x="314" y="0" type="line"/>
    </contour>
  </outline>
</glyph>
<glyph name="iogonek" format="1">
  <advance width="291"/>
  <unicode hex="012F"/>
  <outline>
    <contour>
      <point x="32" y="0" type="line"/>
      <point x="32" y="29" type="line"/>
      <point x="104" y="34"/>
      <point x="107" y="36"/>
      <point x="107" y="87" type="curve" smooth="yes"/>
      <point x="107" y="402" type="line" smooth="yes"/>
      <point x="107" y="438"/>
      <point x="101" y="443"/>
      <point x="75" y="447" type="curve" smooth="yes"/>
      <point x="37" y="452" type="line"/>
      <point x="37" y="477" type="line"/>
      <point x="194" y="502" type="line"/>
      <point x="201" y="496" type="line"/>
      <point x="201" y="87" type="line" smooth="yes"/>
      <point x="201" y="36"/>
      <point x="205" y="34"/>
      <point x="276" y="29" type="curve"/>
      <point x="276" y="0" type="line"/>
      <point x="194" y="0" type="line"/>
      <point x="146" y="-40"/>
      <point x="118" y="-82"/>
      <point x="118" y="-132" type="curve" smooth="yes"/>
      <point x="119" y="-168"/>
      <point x="147" y="-186"/>
      <point x="181" y="-186" type="curve" smooth="yes"/>
      <point x="198" y="-186"/>
      <point x="216" y="-182"/>
      <point x="233" y="-174" type="curve"/>
      <point x="241" y="-195" type="line"/>
      <point x="226" y="-208"/>
      <point x="210" y="-217"/>
      <point x="194" y="-223" type="curve" smooth="yes"/>
      <point x="178" y="-228"/>
      <point x="163" y="-230"/>
      <point x="148" y="-230" type="curve" smooth="yes"/>
      <point x="58" y="-230"/>
      <point x="49" y="-170"/>
      <point x="49" y="-139" type="curve" smooth="yes"/>
      <point x="49" y="-90"/>
      <point x="91" y="-32"/>
      <point x="151" y="0" type="curve"/>
    </contour>
    <contour>
      <point x="92" y="654" type="curve" smooth="yes"/>
      <point x="92" y="690"/>
      <point x="117" y="715"/>
      <point x="153" y="715" type="curve" smooth="yes"/>
      <point x="189" y="715"/>
      <point x="214" y="690"/>
      <point x="214" y="654" type="curve" smooth="yes"/>
      <point x="214" y="618"/>
      <point x="189" y="593"/>
      <point x="153" y="593" type="curve" smooth="yes"/>
      <point x="117" y="593"/>
      <point x="92" y="618"/>
    </contour>
  </outline>
</glyph>
<glyph name="Idotaccent" format="1">
  <advance width="349"/>
  <unicode hex="0130"/>
  <outline>
    <contour>
      <point x="35" y="0" type="line"/>
      <point x="35" y="29" type="line"/>
      <point x="123" y="35"/>
      <point x="125" y="37"/>
      <point x="125" y="93" type="curve" smooth="yes"/>
      <point x="125" y="599" type="line" smooth="yes"/>
      <point x="125" y="655"/>
      <point x="123" y="657"/>
      <point x="35" y="663" type="curve"/>
      <point x="35" y="692" type="line"/>
      <point x="314" y="692" type="line"/>
      <point x="314" y="663" type="line"/>
      <point x="227" y="657"/>
      <point x="224" y="655"/>
      <point x="224" y="599" type="curve" smooth="yes"/>
      <point x="224" y="93" type="line" smooth="yes"/>
      <point x="224" y="37"/>
      <point x="227" y="35"/>
      <point x="314" y="29" type="curve"/>
      <point x="314" y="0" type="line"/>
    </contour>
    <contour>
      <point x="116" y="787" type="curve" smooth="yes"/>
      <point x="116" y="815"/>
      <point x="137" y="841"/>
      <point x="174" y="841" type="curve" smooth="yes"/>
      <point x="212" y="841"/>
      <point x="232" y="815"/>
      <point x="232" y="787" type="curve" smooth="yes"/>
      <point x="232" y="759"/>
      <point x="212" y="732"/>
      <point x="174" y="732" type="curve" smooth="yes"/>
      <point x="137" y="732"/>
      <point x="116" y="759"/>
    </contour>
  </outline>
</glyph>
<glyph name="kcedilla" format="1">
  <advance width="524"/>
  <unicode hex="0137"/>
  <outline>
    <contour>
      <point x="20" y="0" type="line"/>
      <point x="20" y="29" type="line"/>
      <point x="92" y="34"/>
      <point x="95" y="36"/>
      <point x="95" y="87" type="curve" smooth="yes"/>
      <point x="95" y="642" type="line" smooth="yes"/>
      <point x="95" y="680"/>
      <point x="89" y="685"/>
      <point x="63" y="688" type="curve" smooth="yes"/>
      <point x="25" y="692" type="line"/>
      <point x="25" y="717" type="line"/>
      <point x="182" y="742" type="line"/>
      <point x="189" y="736" type="line"/>
      <point x="189" y="268" type="line"/>
      <point x="191" y="268" type="line"/>
      <point x="214" y="302"/>
      <point x="313" y="426"/>
      <point x="342" y="461" type="curve" smooth="yes"/>
      <point x="362" y="485"/>
      <point x="371" y="490"/>
      <point x="405" y="490" type="curve" smooth="yes"/>
      <point x="508" y="490" type="line"/>
      <point x="508" y="462" type="line"/>
      <point x="450" y="456"/>
      <point x="425" y="444"/>
      <point x="391" y="419" type="curve" smooth="yes"/>
      <point x="357" y="394"/>
      <point x="325" y="365"/>
      <point x="277" y="310" type="curve" smooth="yes"/>
      <point x="267" y="299"/>
      <point x="269" y="294"/>
      <point x="274" y="287" type="curve" smooth="yes"/>
      <point x="312" y="233"/>
      <point x="390" y="138"/>
      <point x="452" y="77" type="curve" smooth="yes"/>
      <point x="483" y="46"/>
      <point x="508" y="31"/>
      <point x="538" y="23" type="curve"/>
      <point x="538" y="-5" type="line"/>
      <point x="463" y="-2" type="line" smooth="yes"/>
      <point x="431" y="0"/>
      <point x="392" y="12"/>
      <point x="355" y="49" type="curve" smooth="yes"/>
      <point x="303" y="102"/>
      <point x="232" y="189"/>
      <point x="191" y="254" type="curve"/>
      <point x="189" y="254" type="line"/>
      <point x="189" y="87" type="line" smooth="yes"/>
      <point x="189" y="36"/>
      <point x="193" y="34"/>
      <point x="264" y="29" type="curve"/>
      <point x="264" y="0" type="line"/>
    </contour>
    <contour>
      <point x="264" y="-246" type="line"/>
      <point x="293" y="-216"/>
      <point x="309" y="-194"/>
      <point x="309" y="-162" type="curve" smooth="yes"/>
      <point x="309" y="-131"/>
      <point x="278" y="-116"/>
      <point x="278" y="-87" type="curve" smooth="yes"/>
      <point x="278" y="-63"/>
      <point x="296" y="-44"/>
      <point x="319" y="-44" type="curve" smooth="yes"/>
      <point x="353" y="-44"/>
      <point x="376" y="-74"/>
      <point x="376" y="-116" type="curve" smooth="yes"/>
      <point x="376" y="-178"/>
      <point x="326" y="-221"/>
      <point x="280" y="-261" type="curve"/>
    </contour>
  </outline>
</glyph>
<glyph name="Lcedilla" format="1">
  <advance width="568"/>
  <unicode hex="013B"/>
  <outline>
    <contour>
      <point x="35" y="0" type="line"/>
      <point x="35" y="29" type="line"/>
      <point x="123" y="35"/>
      <point x="125" y="37"/>
      <point x="125" y="93" type="curve" smooth="yes"/>
      <point x="125" y="599" type="line" smooth="yes"/>
      <point x="125" y="655"/>
      <point x="123" y="657"/>
      <point x="35" y="663" type="curve"/>
      <point x="35" y="692" type="line"/>
      <point x="320" y="692" type="line"/>
      <point x="320" y="663" type="line"/>
      <point x="227" y="657"/>
      <point x="224" y="655"/>
      <point x="224" y="599" type="curve" smooth="yes"/>
      <point x="224" y="120" type="line" smooth="yes"/>
      <point x="224" y="71"/>
      <point x="228" y="54"/>
      <point x="249" y="45" type="curve" smooth="yes"/>
      <point x="270" y="37"/>
      <point x="306" y="35"/>
      <point x="356" y="35" type="curve" smooth="yes"/>
      <point x="461" y="35"/>
      <point x="516" y="48"/>
      <point x="536" y="179" type="curve"/>
      <point x="566" y="179" type="line"/>
      <point x="554" y="0" type="line"/>
    </contour>
    <contour>
      <point x="228" y="-246" type="line"/>
      <point x="257" y="-216"/>
      <point x="273" y="-194"/>
      <point x="273" y="-162" type="curve" smooth="yes"/>
      <point x="273" y="-131"/>
      <point x="242" y="-116"/>
      <point x="242" y="-87" type="curve" smooth="yes"/>
      <point x="242" y="-63"/>
      <point x="260" y="-44"/>
      <point x="283" y="-44" type="curve" smooth="yes"/>
      <point x="317" y="-44"/>
      <point x="340" y="-74"/>
      <point x="340" y="-116" type="curve" smooth="yes"/>
      <point x="340" y="-178"/>
      <point x="290" y="-221"/>
      <point x="244" y="-261" type="curve"/>
    </contour>
  </outline>
</glyph>
<glyph name="Lcaron" format="1">
  <advance width="568"/>
  <unicode hex="013D"/>
  <outline>
    <contour>
      <point x="35" y="0" type="line"/>
      <point x="35" y="29" type="line"/>
      <point x="123" y="35"/>
      <point x="125" y="37"/>
      <point x="125" y="93" type="curve" smooth="yes"/>
      <point x="125" y="599" type="line" smooth="yes"/>
      <point x="125" y="655"/>
      <point x="123" y="657"/>
      <point x="35" y="663" type="curve"/>
      <point x="35" y="692" type="line"/>
      <point x="320" y="692" type="line"/>
      <point x="320" y="663" type="line"/>
      <point x="227" y="657"/>
      <point x="224" y="655"/>
      <point x="224" y="599" type="curve" smooth="yes"/>
      <point x="224" y="120" type="line" smooth="yes"/>
      <point x="224" y="71"/>
      <point x="228" y="54"/>
      <point x="249" y="45" type="curve" smooth="yes"/>
      <point x="270" y="37"/>
      <point x="306" y="35"/>
      <point x="356" y="35" type="curve" smooth="yes"/>
      <point x="461" y="35"/>
      <point x="516" y="48"/>
      <point x="536" y="179" type="curve"/>
      <point x="566" y="179" type="line"/>
      <point x="554" y="0" type="line"/>
    </contour>
    <contour>
      <point x="361" y="744" type="curve" smooth="yes"/>
      <point x="361" y="769"/>
      <point x="381" y="790"/>
      <point x="412" y="790" type="curve" smooth="yes"/>
      <point x="453" y="790"/>
      <point x="480" y="751"/>
      <point x="480" y="701" type="curve" smooth="yes"/>
      <point x="480" y="639"/>
      <point x="432" y="590"/>
      <point x="388" y="548" type="curve"/>
      <point x="371" y="564" type="line"/>
      <point x="393" y="595"/>
      <point x="407" y="627"/>
      <point x="407" y="656" type="curve" smooth="yes"/>
      <point x="407" y="697"/>
      <point x="361" y="702"/>
    </contour>
  </outline>
</glyph>
<glyph name="ncaron" format="1">
  <advance width="619"/>
  <unicode hex="0148"/>
  <outline>
    <contour>
      <point x="32" y="0" type="line"/>
      <point x="32" y="29" type="line"/>
      <point x="104" y="34"/>
      <point x="107" y="36"/>
      <point x="107" y="87" type="curve" smooth="yes"/>
      <point x="107" y="402" type="line" smooth="yes"/>
      <point x="107" y="438"/>
      <point x="101" y="443"/>
      <point x="75" y="447" type="curve" smooth="yes"/>
      <point x="37" y="452" type="line"/>
      <point x="37" y="477" type="line"/>
      <point x="186" y="502" type="line"/>
      <point x="200" y="426" type="line"/>
      <point x="262" y="466"/>
      <point x="308" y="502"/>
      <point x="382" y="502" type="curve" smooth="yes"/>
      <point x="474" y="502"/>
      <point x="529" y="444"/>
      <point x="529" y="343" type="curve" smooth="yes"/>
      <point x="529" y="87" type="line" smooth="yes"/>
      <point x="529" y="36"/>
      <point x="533" y="34"/>
      <point x="604" y="29" type="curve"/>
      <point x="604" y="0" type="line"/>
      <point x="360" y="0" type="line"/>
      <point x="360" y="29" type="line"/>
      <point x="432" y="34"/>
      <point x="435" y="36"/>
      <point x="435" y="87" type="curve" smooth="yes"/>
      <point x="435" y="323" type="line" smooth="yes"/>
      <point x="435" y="410"/>
      <point x="398" y="448"/>
      <point x="330" y="448" type="curve" smooth="yes"/>
      <point x="277" y="448"/>
      <point x="232" y="415"/>
      <point x="211" y="376" type="curve" smooth="yes"/>
      <point x="203" y="360"/>
      <point x="201" y="346"/>
      <point x="201" y="321" type="curve" smooth="yes"/>
      <point x="201" y="87" type="line" smooth="yes"/>
      <point x="201" y="36"/>
      <point x="205" y="34"/>
      <point x="276" y="29" type="curve"/>
      <point x="276" y="0" type="line"/>
    </contour>
    <contour>
      <point x="165" y="699" type="line"/>
      <point x="184" y="720" type="line"/>
      <point x="287" y="643" type="line" smooth="yes"/>
      <point x="298" y="635"/>
      <point x="310" y="628"/>
      <point x="318" y="628" type="curve" smooth="yes"/>
      <point x="327" y="628"/>
      <point x="338" y="635"/>
      <point x="349" y="643" type="curve" smooth="yes"/>
      <point x="452" y="720" type="line"/>
      <point x="471" y="699" type="line"/>
      <point x="354" y="566" type="line" smooth="yes"/>
      <point x="342" y="553"/>
      <point x="330" y="541"/>
      <point x="318" y="541" type="curve" smooth="yes"/>
      <point x="306" y="541"/>
      <point x="295" y="552"/>
      <point x="282" y="566" type="curve" smooth="yes"/>
    </contour>
  </outline>
</glyph>
<glyph name="eng" format="2">
  <advance width="609"/>
  <unicode hex="014B"/>
  <outline>
    <contour>
      <point x="32" y="0" type="line"/>
      <point x="32" y="29" type="line"/>
      <point x="104" y="34"/>
      <point x="107" y="36"/>
      <point x="107" y="87" type="curve" smooth="yes"/>
      <point x="107" y="402" type="line" smooth="yes"/>
      <point x="107" y="438"/>
      <point x="101" y="443"/>
      <point x="75" y="447" type="curve" smooth="yes"/>
      <point x="37" y="452" type="line"/>
      <point x="37" y="477" type="line"/>
      <point x="186" y="502" type="line"/>
      <point x="200" y="426" type="line"/>
      <point x="262" y="471"/>
      <point x="308" y="502"/>
      <point x="378" y="502" type="curve" smooth="yes"/>
      <point x="474" y="502"/>
      <point x="529" y="444"/>
      <point x="529" y="343" type="curve" smooth="yes"/>
      <point x="529" y="-25" type="line" smooth="yes"/>
      <point x="529" y="-126"/>
      <point x="506" y="-242"/>
      <point x="377" y="-242" type="curve" smooth="yes"/>
      <point x="302" y="-242"/>
      <point x="258" y="-203"/>
      <point x="258" y="-167" type="curve" smooth="yes"/>
      <point x="258" y="-138"/>
      <point x="285" y="-122"/>
      <point x="306" y="-122" type="curve" smooth="yes"/>
      <point x="320" y="-122"/>
      <point x="326" y="-128"/>
      <point x="332" y="-139" type="curve"/>
      <point x="365" y="-195"/>
      <point x="385" y="-207"/>
      <point x="406" y="-207" type="curve" smooth="yes"/>
      <point x="440" y="-207"/>
      <point x="449" y="-173"/>
      <point x="449" y="-139" type="curve" smooth="yes"/>
      <point x="449" y="-118"/>
      <point x="446" y="-96"/>
      <point x="443" y="-83" type="curve" smooth="yes"/>
      <point x="439" y="-64"/>
      <point x="435" y="-25"/>
      <point x="435" y="0" type="curve" smooth="yes"/>
      <point x="435" y="323" type="line" smooth="yes"/>
      <point x="435" y="410"/>
      <point x="398" y="448"/>
      <point x="334" y="448" type="curve" smooth="yes"/>
      <point x="256" y="448"/>
      <point x="201" y="393"/>
      <point x="201" y="321" type="curve" smooth="yes"/>
      <point x="201" y="87" type="line" smooth="yes"/>
      <point x="201" y="36"/>
      <point x="205" y="34"/>
      <point x="276" y="29" type="curve"/>
      <point x="276" y="0" type="line"/>
    </contour>
  </outline>
</glyph>
<glyph name="Ohungarumlaut" format="1">
  <advance width="762"/>
  <unicode hex="0150"/>
  <outline>
    <contour>
      <point x="48" y="346" type="curve" smooth="yes"/>
      <point x="48" y="458"/>
      <point x="79" y="550"/>
      <point x="133" y="610" type="curve" smooth="yes"/>
      <point x="189" y="673"/>
      <point x="271" y="707"/>
      <point x="381" y="707" type="curve" smooth="yes"/>
      <point x="491" y="707"/>
      <point x="573" y="673"/>
      <point x="629" y="610" type="curve" smooth="yes"/>
      <point x="683" y="550"/>
      <point x="714" y="458"/>
      <point x="714" y="346" type="curve" smooth="yes"/>
      <point x="714" y="234"/>
      <point x="683" y="142"/>
      <point x="629" y="82" type="curve" smooth="yes"/>
      <point x="573" y="19"/>
      <point x="491" y="-15"/>
      <point x="381" y="-15" type="curve" smooth="yes"/>
      <point x="271" y="-15"/>
      <point x="189" y="19"/>
      <point x="133" y="82" type="curve" smooth="yes"/>
      <point x="79" y="142"/>
      <point x="48" y="234"/>
    </contour>
    <contour>
      <point x="160" y="346" type="curve" smooth="yes"/>
      <point x="160" y="199"/>
      <point x="203" y="20"/>
      <point x="381" y="20" type="curve" smooth="yes"/>
      <point x="559" y="20"/>
      <point x="602" y="199"/>
      <point x="602" y="346" type="curve" smooth="yes"/>
      <point x="602" y="493"/>
      <point x="559" y="672"/>
      <point x="381" y="672" type="curve" smooth="yes"/>
      <point x="203" y="672"/>
      <point x="160" y="493"/>
    </contour>
    <contour>
      <point x="261" y="766" type="line"/>
      <point x="331" y="855" type="line" smooth="yes"/>
      <point x="346" y="874"/>
      <point x="363" y="894"/>
      <point x="384" y="894" type="curve" smooth="yes"/>
      <point x="404" y="894"/>
      <point x="428" y="867"/>
      <point x="428" y="846" type="curve" smooth="yes"/>
      <point x="428" y="830"/>
      <point x="417" y="821"/>
      <point x="381" y="800" type="curve" smooth="yes"/>
      <point x="280" y="744" type="line"/>
    </contour>
    <contour>
      <point x="431" y="766" type="line"/>
      <point x="501" y="855" type="line" smooth="yes"/>
      <point x="516" y="874"/>
      <point x="533" y="894"/>
      <point x="554" y="894" type="curve" smooth="yes"/>
      <point x="574" y="894"/>
      <point x="598" y="867"/>
      <point x="598" y="846" type="curve" smooth="yes"/>
      <point x="598" y="830"/>
      <point x="587" y="821"/>
      <point x="551" y="800" type="curve" smooth="yes"/>
      <point x="450" y="744" type="line"/>
    </contour>
  </outline>
</glyph>
<glyph name="oe" format="1">
  <advance width="882"/>
  <unicode hex="0153"/>
  <outline>
    <contour>
      <point x="49" y="245" type="curve" smooth="yes"/>
      <point x="49" y="407"/>
      <point x="128" y="502"/>
      <point x="288" y="502" type="curve" smooth="yes"/>
      <point x="374" y="502"/>
      <point x="438" y="471"/>
      <point x="474" y="422" type="curve"/>
      <point x="507" y="464"/>
      <point x="563" y="502"/>
      <point x="647" y="502" type="curve" smooth="yes"/>
      <point x="830" y="502"/>
      <point x="849" y="360"/>
      <point x="849" y="301" type="curve" smooth="yes"/>
      <point x="849" y="268"/>
      <point x="830" y="263"/>
      <point x="809" y="263" type="curve" smooth="yes"/>
      <point x="521" y="263" type="line"/>
      <point x="521" y="259"/>
      <point x="521" y="256"/>
      <point x="521" y="252" type="curve" smooth="yes"/>
      <point x="521" y="151"/>
      <point x="548" y="39"/>
      <point x="668" y="39" type="curve" smooth="yes"/>
      <point x="747" y="39"/>
      <point x="785" y="87"/>
      <point x="813" y="145" type="curve"/>
      <point x="843" y="129" type="line"/>
      <point x="816" y="50"/>
      <point x="759" y="-11"/>
      <point x="648" y="-12" type="curve" smooth="yes"/>
      <point x="647" y="-12"/>
      <point x="645" y="-12"/>
      <point x="644" y="-12" type="curve" smooth="yes"/>
      <point x="557" y="-12"/>
      <point x="502" y="18"/>
      <point x="470" y="66" type="curve"/>
      <point x="431" y="16"/>
      <point x="368" y="-12"/>
      <point x="288" y="-12" type="curve" smooth="yes"/>
      <point x="128" y="-12"/>
      <point x="49" y="83"/>
    </contour>
    <contour>
      <point x="153" y="245" type="curve" smooth="yes"/>
      <point x="153" y="107"/>
      <point x="197" y="23"/>
      <point x="288" y="23" type="curve" smooth="yes"/>
      <point x="381" y="23"/>
      <point x="424" y="107"/>
      <point x="424" y="245" type="curve" smooth="yes"/>
      <point x="424" y="383"/>
      <point x="381" y="467"/>
      <point x="288" y="467" type="curve" smooth="yes"/>
      <point x="197" y="467"/>
      <point x="153" y="383"/>
    </contour>
    <contour>
      <point x="522" y="301" type="curve"/>
      <point x="711" y="301" type="line" smooth="yes"/>
      <point x="739" y="301"/>
      <point x="745" y="314"/>
      <point x="745" y="333" type="curve" smooth="yes"/>
      <point x="745" y="372"/>
      <point x="734" y="467"/>
      <point x="641" y="467" type="curve" smooth="yes"/>
      <point x="537" y="467"/>
      <point x="522" y="342"/>
    </contour>
  </outline>
</glyph>
<glyph name="Tcaron" format="1">
  <advance width="621"/>
  <unicode hex="0164"/>
  <outline>
    <contour>
      <point x="22" y="526" type="line"/>
      <point x="22" y="692" type="line"/>
      <point x="599" y="692" type="line"/>
      <point x="599" y="526" type="line"/>
      <point x="569" y="526" type="line"/>
      <point x="557" y="635"/>
      <point x="536" y="657"/>
      <point x="419" y="657" type="curve" smooth="yes"/>
      <point x="360" y="657" type="line"/>
      <point x="360" y="93" type="line" smooth="yes"/>
      <point x="360" y="37"/>
      <point x="363" y="35"/>
      <point x="470" y="29" type="curve"/>
      <point x="470" y="0" type="line"/>
      <point x="151" y="0" type="line"/>
      <point x="151" y="29" type="line"/>
      <point x="258" y="35"/>
      <point x="261" y="37"/>
      <point x="261" y="93" type="curve" smooth="yes"/>
      <point x="261" y="657" type="line"/>
      <point x="202" y="657" type="line" smooth="yes"/>
      <point x="85" y="657"/>
      <point x="64" y="635"/>
      <point x="52" y="526" type="curve"/>
    </contour>
    <contour>
      <point x="157" y="861" type="line"/>
      <point x="170" y="882" type="line"/>
      <point x="277" y="821" type="line" smooth="yes"/>
      <point x="290" y="814"/>
      <point x="302" y="807"/>
      <point x="310" y="807" type="curve" smooth="yes"/>
      <point x="319" y="807"/>
      <point x="330" y="814"/>
      <point x="343" y="821" type="curve" smooth="yes"/>
      <point x="450" y="882" type="line"/>
      <point x="463" y="861" type="line"/>
      <point x="347" y="747" type="line" smooth="yes"/>
      <point x="334" y="735"/>
      <point x="322" y="723"/>
      <point x="310" y="723" type="curve" smooth="yes"/>
      <point x="298" y="723"/>
      <point x="287" y="734"/>
      <point x="273" y="747" type="curve" smooth="yes"/>
    </contour>
  </outline>
</glyph>
<glyph name="Umacron" format="1">
  <advance width="791"/>
  <unicode hex="016A"/>
  <outline>
    <contour>
      <point x="29" y="663" type="curve"/>
      <point x="29" y="692" type="line"/>
      <point x="308" y="692" type="line"/>
      <point x="308" y="663" type="line"/>
      <point x="221" y="657"/>
      <point x="218" y="655"/>
      <point x="218" y="599" type="curve" smooth="yes"/>
      <point x="218" y="275" type="line" smooth="yes"/>
      <point x="218" y="180"/>
      <point x="233" y="120"/>
      <point x="263" y="80" type="curve" smooth="yes"/>
      <point x="294" y="40"/>
      <point x="338" y="20"/>
      <point x="395" y="20" type="curve" smooth="yes"/>
      <point x="453" y="20"/>
      <point x="497" y="40"/>
      <point x="528" y="80" type="curve" smooth="yes"/>
      <point x="558" y="120"/>
      <point x="573" y="180"/>
      <point x="573" y="275" type="curve" smooth="yes"/>
      <point x="573" y="599" type="line" smooth="yes"/>
      <point x="573" y="655"/>
      <point x="571" y="657"/>
      <point x="483" y="663" type="curve"/>
      <point x="483" y="692" type="line"/>
      <point x="762" y="692" type="line"/>
      <point x="762" y="663" type="line"/>
      <point x="675" y="657"/>
      <point x="672" y="655"/>
      <point x="672" y="599" type="curve" smooth="yes"/>
      <point x="672" y="255" type="line" smooth="yes"/>
      <point x="672" y="195"/>
      <point x="662" y="142"/>
      <point x="645" y="107" type="curve" smooth="yes"/>
      <point x="599" y="8"/>
      <point x="494" y="-15"/>
      <point x="395" y="-15" type="curve" smooth="yes"/>
      <point x="297" y="-15"/>
      <point x="192" y="9"/>
      <point x="146" y="107" type="curve" smooth="yes"/>
      <point x="129" y="141"/>
      <point x="119" y="194"/>
      <point x="119" y="253" type="curve" smooth="yes"/>
      <point x="119" y="599" type="line" smooth="yes"/>
      <point x="119" y="655"/>
      <point x="117" y="657"/>
    </contour>
    <contour>
      <point x="238" y="759" type="line"/>
      <point x="238" y="818" type="line"/>
      <point x="554" y="818" type="line"/>
      <point x="554" y="759" type="line"/>
    </contour>
  </outline>
</glyph>
<glyph name="Ubreve" format="1">
  <advance width="791"/>
  <unicode hex="016C"/>
  <outline>
    <contour>
      <point x="29" y="663" type="curve"/>
      <point x="29" y="692" type="line"/>
      <point x="308" y="692" type="line"/>
      <point x="308" y="663" type="line"/>
      <point x="221" y="657"/>
      <point x="218" y="655"/>
      <point x="218" y="599" type="curve" smooth="yes"/>
      <point x="218" y="275" type="line" smooth="yes"/>
      <point x="218" y="180"/>
      <point x="233" y="120"/>
      <point x="263" y="80" type="curve" smooth="yes"/>
      <point x="294" y="40"/>
      <point x="338" y="20"/>
      <point x="395" y="20" type="curve" smooth="yes"/>
      <point x="453" y="20"/>
      <point x="497" y="40"/>
      <point x="528" y="80" type="curve" smooth="yes"/>
      <point x="558" y="120"/>
      <point x="573" y="180"/>
      <point x="573" y="275" type="curve" smooth="yes"/>
      <point x="573" y="599" type="line" smooth="yes"/>
      <point x="573" y="655"/>
      <point x="571" y="657"/>
      <point x="483" y="663" type="curve"/>
      <point x="483" y="692" type="line"/>
      <point x="762" y="692" type="line"/>
      <point x="762" y="663" type="line"/>
      <point x="675" y="657"/>
      <point x="672" y="655"/>
      <point x="672" y="599" type="curve" smooth="yes"/>
      <point x="672" y="255" type="line" smooth="yes"/>
      <point x="672" y="195"/>
      <point x="662" y="142"/>
      <point x="645" y="107" type="curve" smooth="yes"/>
      <point x="599" y="8"/>
      <point x="494" y="-15"/>
      <point x="395" y="-15" type="curve" smooth="yes"/>
      <point x="297" y="-15"/>
      <point x="192" y="9"/>
      <point x="146" y="107" type="curve" smooth="yes"/>
      <point x="129" y="141"/>
      <point x="119" y="194"/>
      <point x="119" y="253" type="curve" smooth="yes"/>
      <point x="119" y="599" type="line" smooth="yes"/>
      <point x="119" y="655"/>
      <point x="117" y="657"/>
    </contour>
    <contour>
      <point x="246" y="870" type="curve"/>
      <point x="274" y="870" type="line"/>
      <point x="276" y="851"/>
      <point x="302" y="811"/>
      <point x="396" y="811" type="curve" smooth="yes"/>
      <point x="490" y="811"/>
      <point x="516" y="851"/>
      <point x="518" y="870" type="curve"/>
      <point x="546" y="870" type="line"/>
      <point x="546" y="814"/>
      <point x="517" y="749"/>
      <point x="396" y="749" type="curve" smooth="yes"/>
      <point x="275" y="749"/>
      <point x="246" y="814"/>
    </contour>
  </outline>
</glyph>
<glyph name="Uring" format="1">
  <advance width="791"/>
  <unicode hex="016E"/>
  <outline>
    <contour>
      <point x="29" y="663" type="curve"/>
      <point x="29" y="692" type="line"/>
      <point x="308" y="692" type="line"/>
      <point x="308" y="663" type="line"/>
      <point x="221" y="657"/>
      <point x="218" y="655"/>
      <point x="218" y="599" type="curve" smooth="yes"/>
      <point x="218" y="275" type="line" smooth="yes"/>
      <point x="218" y="180"/>
      <point x="233" y="120"/>
      <point x="263" y="80" type="curve" smooth="yes"/>
      <point x="294" y="40"/>
      <point x="338" y="20"/>
      <point x="395" y="20" type="curve" smooth="yes"/>
      <point x="453" y="20"/>
      <point x="497" y="40"/>
      <point x="528" y="80" type="curve" smooth="yes"/>
      <point x="558" y="120"/>
      <point x="573" y="180"/>
      <point x="573" y="275" type="curve" smooth="yes"/>
      <point x="573" y="599" type="line" smooth="yes"/>
      <point x="573" y="655"/>
      <point x="571" y="657"/>
      <point x="483" y="663" type="curve"/>
      <point x="483" y="692" type="line"/>
      <point x="762" y="692" type="line"/>
      <point x="762" y="663" type="line"/>
      <point x="675" y="657"/>
      <point x="672" y="655"/>
      <point x="672" y="599" type="curve" smooth="yes"/>
      <point x="672" y="255" type="line" smooth="yes"/>
      <point x="672" y="195"/>
      <point x="662" y="142"/>
      <point x="645" y="107" type="curve" smooth="yes"/>
      <point x="599" y="8"/>
      <point x="494" y="-15"/>
      <point x="395" y="-15" type="curve" smooth="yes"/>
      <point x="297" y="-15"/>
      <point x="192" y="9"/>
      <point x="146" y="107" type="curve" smooth="yes"/>
      <point x="129" y="141"/>
      <point x="119" y="194"/>
      <point x="119" y="253" type="curve" smooth="yes"/>
      <point x="119" y="599" type="line" smooth="yes"/>
      <point x="119" y="655"/>
      <point x="117" y="657"/>
    </contour>
    <contour>
      <point x="288" y="816" type="curve" smooth="yes"/>
      <point x="288" y="891"/>
      <point x="342" y="917"/>
      <point x="396" y="917" type="curve" smooth="yes"/>
      <point x="450" y="917"/>
      <point x="504" y="891"/>
      <point x="504" y="816" type="curve" smooth="yes"/>
      <point x="504" y="741"/>
      <point x="450" y="715"/>
      <point x="396" y="715" type="curve" smooth="yes"/>
      <point x="342" y="715"/>
      <point x="288" y="741"/>
    </contour>
    <contour>
      <point x="346" y="816" type="curve" smooth="yes"/>
      <point x="346" y="764"/>
      <point x="368" y="748"/>
      <point x="396" y="748" type="curve" smooth="yes"/>
      <point x="424" y="748"/>
      <point x="446" y="764"/>
      <point x="446" y="816" type="curve" smooth="yes"/>
      <point x="446" y="868"/>
      <point x="424" y="884"/>
      <point x="396" y="884" type="curve" smooth="yes"/>
      <point x="368" y="884"/>
      <point x="346" y="868"/>
    </contour>
  </outline>
</glyph>
<glyph name="uring" format="1">
  <advance width="606"/>
  <unicode hex="016F"/>
  <outline>
    <contour>
      <point x="26" y="452" type="line"/>
      <point x="26" y="477" type="line"/>
      <point x="183" y="502" type="line"/>
      <point x="190" y="496" type="line"/>
      <point x="190" y="156" type="line" smooth="yes"/>
      <point x="190" y="78"/>
      <point x="233" y="42"/>
      <point x="291" y="42" type="curve" smooth="yes"/>
      <point x="343" y="42"/>
      <point x="391" y="71"/>
      <point x="414" y="117" type="curve" smooth="yes"/>
      <point x="419" y="127"/>
      <point x="422" y="149"/>
      <point x="422" y="177" type="curve" smooth="yes"/>
      <point x="422" y="402" type="line" smooth="yes"/>
      <point x="422" y="438"/>
      <point x="416" y="443"/>
      <point x="390" y="447" type="curve" smooth="yes"/>
      <point x="352" y="452" type="line"/>
      <point x="352" y="477" type="line"/>
      <point x="509" y="502" type="line"/>
      <point x="516" y="496" type="line"/>
      <point x="516" y="87" type="line" smooth="yes"/>
      <point x="516" y="36"/>
      <point x="522" y="34"/>
      <point x="591" y="29" type="curve"/>
      <point x="591" y="0" type="line"/>
      <point x="431" y="0" type="line"/>
      <point x="421" y="60" type="line"/>
      <point x="392" y="46"/>
      <point x="323" y="-12"/>
      <point x="238" y="-12" type="curve" smooth="yes"/>
      <point x="164" y="-12"/>
      <point x="96" y="23"/>
      <point x="96" y="138" type="curve" smooth="yes"/>
      <point x="96" y="402" type="line" smooth="yes"/>
      <point x="96" y="438"/>
      <point x="90" y="443"/>
      <point x="64" y="447" type="curve" smooth="yes"/>
    </contour>
    <contour>
      <point x="198" y="651" type="curve" smooth="yes"/>
      <point x="198" y="726"/>
      <point x="252" y="752"/>
      <point x="306" y="752" type="curve" smooth="yes"/>
      <point x="360" y="752"/>
      <point x="414" y="726"/>
      <point x="414" y="651" type="curve" smooth="yes"/>
      <point x="414" y="576"/>
      <point x="360" y="550"/>
      <point x="306" y="550" type="curve" smooth="yes"/>
      <point x="252" y="550"/>
      <point x="198" y="576"/>
    </contour>
    <contour>
      <point x="256" y="651" type="curve" smooth="yes"/>
      <point x="256" y="599"/>
      <point x="278" y="583"/>
      <point x="306" y="583" type="curve" smooth="yes"/>
      <point x="334" y="583"/>
      <point x="356" y="599"/>
      <point x="356" y="651" type="curve" smooth="yes"/>
      <point x="356" y="703"/>
      <point x="334" y="719"/>
      <point x="306" y="719" type="curve" smooth="yes"/>
      <point x="278" y="719"/>
      <point x="256" y="703"/>
    </contour>
  </outline>
</glyph>
<glyph name="uogonek" format="1">
  <advance width="606"/>
  <unicode hex="0173"/>
  <outline>
    <contour>
      <point x="26" y="452" type="line"/>
      <point x="26" y="477" type="line"/>
      <point x="183" y="502" type="line"/>
      <point x="190" y="496" type="line"/>
      <point x="190" y="156" type="line" smooth="yes"/>
      <point x="190" y="78"/>
      <point x="233" y="42"/>
      <point x="291" y="42" type="curve" smooth="yes"/>
      <point x="343" y="42"/>
      <point x="391" y="71"/>
      <point x="414" y="117" type="curve" smooth="yes"/>
      <point x="419" y="127"/>
      <point x="422" y="149"/>
      <point x="422" y="177" type="curve" smooth="yes"/>
      <point x="422" y="402" type="line" smooth="yes"/>
      <point x="422" y="438"/>
      <point x="416" y="443"/>
      <point x="390" y="447" type="curve" smooth="yes"/>
      <point x="352" y="452" type="line"/>
      <point x="352" y="477" type="line"/>
      <point x="509" y="502" type="line"/>
      <point x="516" y="496" type="line"/>
      <point x="516" y="87" type="line" smooth="yes"/>
      <point x="516" y="36"/>
      <point x="522" y="34"/>
      <point x="591" y="29" type="curve"/>
      <point x="591" y="0" type="line"/>
      <point x="544" y="0" type="line"/>
      <point x="496" y="-40"/>
      <point x="468" y="-82"/>
      <point x="468" y="-132" type="curve" smooth="yes"/>
      <point x="469" y="-168"/>
      <point x="497" y="-186"/>
      <point x="531" y="-186" type="curve" smooth="yes"/>
      <point x="548" y="-186"/>
      <point x="566" y="-182"/>
      <point x="583" y="-174" type="curve"/>
      <point x="591" y="-195" type="line"/>
      <point x="576" y="-208"/>
      <point x="560" y="-217"/>
      <point x="544" y="-223" type="curve" smooth="yes"/>
      <point x="528" y="-228"/>
      <point x="513" y="-230"/>
      <point x="498" y="-230" type="curve" smooth="yes"/>
      <point x="408" y="-230"/>
      <point x="399" y="-170"/>
      <point x="399" y="-139" type="curve" smooth="yes"/>
      <point x="399" y="-90"/>
      <point x="441" y="-32"/>
      <point x="501" y="0" type="curve"/>
      <point x="431" y="0" type="line"/>
      <point x="421" y="60" type="line"/>
      <point x="392" y="46"/>
      <point x="323" y="-12"/>
      <point x="238" y="-12" type="curve" smooth="yes"/>
      <point x="164" y="-12"/>
      <point x="96" y="23"/>
      <point x="96" y="138" type="curve" smooth="yes"/>
      <point x="96" y="402" type="line" smooth="yes"/>
      <point x="96" y="438"/>
      <point x="90" y="443"/>
      <point x="64" y="447" type="curve" smooth="yes"/>
    </contour>
  </outline>
</glyph>
<glyph name="Wcircumflex" format="1">
  <advance width="940"/>
  <unicode hex="0174"/>
  <outline>
    <contour>
      <point x="-13" y="663" type="curve"/>
      <point x="-13" y="692" type="line"/>
      <point x="238" y="692" type="line"/>
      <point x="238" y="663" type="line"/>
      <point x="188" y="658" type="line" smooth="yes"/>
      <point x="171" y="657"/>
      <point x="163" y="653"/>
      <point x="163" y="639" type="curve" smooth="yes"/>
      <point x="163" y="634"/>
      <point x="165" y="627"/>
      <point x="167" y="617" type="curve" smooth="yes"/>
      <point x="207" y="460"/>
      <point x="251" y="292"/>
      <point x="303" y="120" type="curve"/>
      <point x="305" y="120" type="line"/>
      <point x="458" y="674" type="line"/>
      <point x="533" y="674" type="line"/>
      <point x="588" y="490"/>
      <point x="645" y="305"/>
      <point x="702" y="120" type="curve"/>
      <point x="705" y="120" type="line"/>
      <point x="779" y="406" type="line" smooth="yes"/>
      <point x="804" y="500"/>
      <point x="826" y="582"/>
      <point x="832" y="619" type="curve" smooth="yes"/>
      <point x="833" y="624"/>
      <point x="834" y="629"/>
      <point x="834" y="633" type="curve" smooth="yes"/>
      <point x="834" y="646"/>
      <point x="828" y="655"/>
      <point x="810" y="657" type="curve" smooth="yes"/>
      <point x="748" y="663" type="line"/>
      <point x="748" y="692" type="line"/>
      <point x="977" y="692" type="line"/>
      <point x="977" y="663" type="line"/>
      <point x="915" y="659"/>
      <point x="904" y="654"/>
      <point x="884" y="596" type="curve" smooth="yes"/>
      <point x="870" y="558"/>
      <point x="847" y="470"/>
      <point x="815" y="357" type="curve" smooth="yes"/>
      <point x="715" y="0" type="line"/>
      <point x="639" y="0" type="line"/>
      <point x="588" y="179"/>
      <point x="533" y="363"/>
      <point x="472" y="554" type="curve"/>
      <point x="470" y="554" type="line"/>
      <point x="313" y="0" type="line"/>
      <point x="236" y="0" type="line"/>
      <point x="151" y="319" type="line" smooth="yes"/>
      <point x="124" y="419"/>
      <point x="95" y="519"/>
      <point x="72" y="598" type="curve" smooth="yes"/>
      <point x="55" y="657"/>
      <point x="46" y="660"/>
    </contour>
    <contour>
      <point x="324" y="738" type="line"/>
      <point x="440" y="852" type="line" smooth="yes"/>
      <point x="454" y="865"/>
      <point x="465" y="876"/>
      <point x="477" y="876" type="curve" smooth="yes"/>
      <point x="489" y="876"/>
      <point x="501" y="864"/>
      <point x="514" y="852" type="curve" smooth="yes"/>
      <point x="630" y="738" type="line"/>
      <point x="617" y="717" type="line"/>
      <point x="510" y="778" type="line" smooth="yes"/>
      <point x="497" y="785"/>
      <point x="486" y="792"/>
      <point x="477" y="792" type="curve" smooth="yes"/>
      <point x="469" y="792"/>
      <point x="457" y="785"/>
      <point x="444" y="778" type="curve" smooth="yes"/>
      <point x="337" y="717" type="line"/>
    </contour>
  </outline>
</glyph>
<glyph name="wcircumflex" format="1">
  <advance width="768"/>
  <unicode hex="0175"/>
  <outline>
    <contour>
      <point x="-2" y="461" type="curve"/>
      <point x="-2" y="490" type="line"/>
      <point x="209" y="490" type="line"/>
      <point x="209" y="461" type="line"/>
      <point x="174" y="458" type="line" smooth="yes"/>
      <point x="160" y="456"/>
      <point x="154" y="451"/>
      <point x="154" y="440" type="curve" smooth="yes"/>
      <point x="154" y="437"/>
      <point x="154" y="433"/>
      <point x="156" y="428" type="curve" smooth="yes"/>
      <point x="188" y="320"/>
      <point x="219" y="204"/>
      <point x="255" y="89" type="curve"/>
      <point x="257" y="89" type="line"/>
      <point x="373" y="478" type="line"/>
      <point x="449" y="478" type="line"/>
      <point x="490" y="348"/>
      <point x="531" y="219"/>
      <point x="574" y="89" type="curve"/>
      <point x="576" y="89" type="line"/>
      <point x="607" y="202"/>
      <point x="653" y="364"/>
      <point x="666" y="423" type="curve" smooth="yes"/>
      <point x="667" y="428"/>
      <point x="668" y="433"/>
      <point x="668" y="438" type="curve" smooth="yes"/>
      <point x="668" y="448"/>
      <point x="664" y="455"/>
      <point x="652" y="456" type="curve" smooth="yes"/>
      <point x="595" y="461" type="line"/>
      <point x="595" y="490" type="line"/>
      <point x="792" y="490" type="line"/>
      <point x="792" y="461" type="line"/>
      <point x="742" y="458"/>
      <point x="731" y="454"/>
      <point x="714" y="403" type="curve" smooth="yes"/>
      <point x="689" y="325"/>
      <point x="630" y="147"/>
      <point x="588" y="0" type="curve"/>
      <point x="512" y="0" type="line"/>
      <point x="472" y="127"/>
      <point x="431" y="254"/>
      <point x="389" y="381" type="curve"/>
      <point x="386" y="381" type="line"/>
      <point x="268" y="0" type="line"/>
      <point x="192" y="0" type="line"/>
      <point x="150" y="151"/>
      <point x="106" y="286"/>
      <point x="64" y="418" type="curve" smooth="yes"/>
      <point x="52" y="456"/>
      <point x="39" y="459"/>
    </contour>
    <contour>
      <point x="237" y="562" type="line"/>
      <point x="354" y="695" type="line" smooth="yes"/>
      <point x="367" y="709"/>
      <point x="378" y="720"/>
      <point x="390" y="720" type="curve" smooth="yes"/>
      <point x="402" y="720"/>
      <point x="414" y="708"/>
      <point x="426" y="695" type="curve" smooth="yes"/>
      <point x="543" y="562" type="line"/>
      <point x="524" y="541" type="line"/>
      <point x="421" y="618" type="line" smooth="yes"/>
      <point x="410" y="626"/>
      <point x="399" y="633"/>
      <point x="390" y="633" type="curve" smooth="yes"/>
      <point x="382" y="633"/>
      <point x="370" y="626"/>
      <point x="359" y="618" type="curve" smooth="yes"/>
      <point x="256" y="541" type="line"/>
    </contour>
  </outline>
</glyph>
<glyph name="Zcaron" format="1">
  <advance width="610"/>
  <unicode hex="017D"/>
  <outline>
    <contour>
      <point x="9" y="13" type="line"/>
      <point x="160" y="228"/>
      <point x="310" y="443"/>
      <point x="456" y="657" type="curve"/>
      <point x="277" y="657" type="line" smooth="yes"/>
      <point x="140" y="657"/>
      <point x="115" y="635"/>
      <point x="103" y="520" type="curve"/>
      <point x="71" y="520" type="line"/>
      <point x="71" y="692" type="line"/>
      <point x="582" y="692" type="line"/>
      <point x="588" y="679" type="line"/>
      <point x="437" y="464"/>
      <point x="287" y="250"/>
      <point x="141" y="35" type="curve"/>
      <point x="343" y="35" type="line" smooth="yes"/>
      <point x="497" y="35"/>
      <point x="544" y="53"/>
      <point x="562" y="178" type="curve"/>
      <point x="594" y="178" type="line"/>
      <point x="584" y="0" type="line"/>
      <point x="14" y="0" type="line"/>
    </contour>
    <contour>
      <point x="152" y="861" type="line"/>
      <point x="165" y="882" type="line"/>
      <point x="272" y="821" type="line" smooth="yes"/>
      <point x="285" y="814"/>
      <point x="297" y="807"/>
      <point x="305" y="807" type="curve" smooth="yes"/>
      <point x="314" y="807"/>
      <point x="325" y="814"/>
      <point x="338" y="821" type="curve" smooth="yes"/>
      <point x="445" y="882" type="line"/>
      <point x="458" y="861" type="line"/>
      <point x="342" y="747" type="line" smooth="yes"/>
      <point x="329" y="735"/>
      <point x="317" y="723"/>
      <point x="305" y="723" type="curve" smooth="yes"/>
      <point x="293" y="723"/>
      <point x="282" y="734"/>
      <point x="268" y="747" type="curve" smooth="yes"/>
    </contour>
  </outline>
</glyph>
<glyph name="zcaron" format="1">
  <advance width="480"/>
  <unicode hex="017E"/>
  <outline>
    <contour>
      <point x="19" y="15" type="line"/>
      <point x="126" y="162"/>
      <point x="231" y="308"/>
      <point x="334" y="455" type="curve"/>
      <point x="234" y="455" type="line" smooth="yes"/>
      <point x="126" y="455"/>
      <point x="105" y="434"/>
      <point x="92" y="342" type="curve"/>
      <point x="61" y="342" type="line"/>
      <point x="61" y="490" type="line"/>
      <point x="445" y="490" type="line"/>
      <point x="453" y="476" type="line"/>
      <point x="347" y="329"/>
      <point x="242" y="182"/>
      <point x="141" y="35" type="curve"/>
      <point x="270" y="35" type="line" smooth="yes"/>
      <point x="381" y="35"/>
      <point x="415" y="59"/>
      <point x="431" y="153" type="curve"/>
      <point x="462" y="153" type="line"/>
      <point x="452" y="0" type="line"/>
      <point x="27" y="0" type="line"/>
    </contour>
    <contour>
      <point x="87" y="699" type="line"/>
      <point x="106" y="720" type="line"/>
      <point x="209" y="643" type="line" smooth="yes"/>
      <point x="220" y="635"/>
      <point x="232" y="628"/>
      <point x="240" y="628" type="curve" smooth="yes"/>
      <point x="249" y="628"/>
      <point x="260" y="635"/>
      <point x="271" y="643" type="curve" smooth="yes"/>
      <point x="374" y="720" type="line"/>
      <point x="393" y="699" type="line"/>
      <point x="276" y="566" type="line" smooth="yes"/>
      <point x="264" y="553"/>
      <point x="252" y="541"/>
      <point x="240" y="541" type="curve" smooth="yes"/>
      <point x="228" y="541"/>
      <point x="217" y="552"/>
      <point x="204" y="566" type="curve" smooth="yes"/>
    </contour>
  </outline>
</glyph>
<glyph name="longs" format="1">
  <advance width="302"/>
  <unicode hex="017F"/>
  <outline>
    <contour>
      <point x="25" y="0" type="line"/>
      <point x="25" y="29" type="line"/>
      <point x="94" y="34"/>
      <point x="97" y="36"/>
      <point x="97" y="87" type="curve" smooth="yes"/>
      <point x="97" y="525" type="line" smooth="yes"/>
      <point x="97" y="591"/>
      <point x="107" y="644"/>
      <point x="130" y="679" type="curve" smooth="yes"/>
      <point x="155" y="717"/>
      <point x="202" y="742"/>
      <point x="255" y="742" type="curve" smooth="yes"/>
      <point x="333" y="742"/>
      <point x="375" y="701"/>
      <point x="375" y="668" type="curve" smooth="yes"/>
      <point x="375" y="638"/>
      <point x="346" y="621"/>
      <point x="326" y="621" type="curve" smooth="yes"/>
      <point x="311" y="621"/>
      <point x="304" y="628"/>
      <point x="299" y="638" type="curve" smooth="yes"/>
      <point x="274" y="696"/>
      <point x="254" y="707"/>
      <point x="233" y="707" type="curve" smooth="yes"/>
      <point x="220" y="707"/>
      <point x="186" y="698"/>
      <point x="186" y="616" type="curve" smooth="yes"/>
      <point x="186" y="611"/>
      <point x="186" y="607"/>
      <point x="186" y="602" type="curve" smooth="yes"/>
      <point x="191" y="490" type="line"/>
      <point x="191" y="87" type="line" smooth="yes"/>
      <point x="191" y="36"/>
      <point x="195" y="34"/>
      <point x="266" y="29" type="curve"/>
      <point x="266" y="0" type="line"/>
    </contour>
  </outline>
</glyph>
<glyph name="uni0182" format="2">
  <advance width="642"/>
  <unicode hex="0182"/>
  <outline>
    <contour>
      <point x="35" y="0" type="line"/>
      <point x="35" y="29" type="line"/>
      <point x="123" y="35"/>
      <point x="125" y="37"/>
      <point x="125" y="93" type="curve" smooth="yes"/>
      <point x="125" y="599" type="line" smooth="yes"/>
      <point x="125" y="655"/>
      <point x="123" y="657"/>
      <point x="35" y="663" type="curve"/>
      <point x="35" y="692" type="line"/>
      <point x="547" y="692" type="line"/>
      <point x="547" y="528" type="line"/>
      <point x="517" y="528" type="line"/>
      <point x="495" y="633"/>
      <point x="453" y="657"/>
      <point x="361" y="657" type="curve" smooth="yes"/>
      <point x="261" y="657" type="line" smooth="yes"/>
      <point x="228" y="657"/>
      <point x="224" y="654"/>
      <point x="224" y="621" type="curve" smooth="yes"/>
      <point x="224" y="389" type="line"/>
      <point x="253" y="395"/>
      <point x="287" y="396"/>
      <point x="331" y="396" type="curve" smooth="yes"/>
      <point x="472" y="396"/>
      <point x="595" y="333"/>
      <point x="595" y="201" type="curve" smooth="yes"/>
      <point x="595" y="53"/>
      <point x="497" y="0"/>
      <point x="345" y="0" type="curve" smooth="yes"/>
    </contour>
    <contour>
      <point x="224" y="112" type="line" smooth="yes"/>
      <point x="224" y="50"/>
      <point x="240" y="35"/>
      <point x="320" y="35" type="curve" smooth="yes"/>
      <point x="406" y="35"/>
      <point x="488" y="64"/>
      <point x="488" y="194" type="curve" smooth="yes"/>
      <point x="488" y="303"/>
      <point x="412" y="361"/>
      <point x="309" y="361" type="curve" smooth="yes"/>
      <point x="281" y="361"/>
      <point x="238" y="354"/>
      <point x="224" y="351" type="curve"/>
    </contour>
  </outline>
</glyph>
<glyph name="uni0183" format="2">
  <advance width="559"/>
  <unicode hex="0183"/>
  <outline>
    <contour>
      <point x="380" y="548" type="line"/>
      <point x="350" y="548" type="line"/>
      <point x="338.51" y="628"/>
      <point x="300.622" y="657"/>
      <point x="224.89" y="657" type="curve" smooth="yes"/>
      <point x="144" y="657" type="line"/>
      <point x="144" y="431" type="line"/>
      <point x="181" y="459"/>
      <point x="240" y="502"/>
      <point x="323.426" y="502" type="curve" smooth="yes"/>
      <point x="496" y="502"/>
      <point x="509" y="318"/>
      <point x="509" y="251.286" type="curve" smooth="yes"/>
      <point x="509" y="52"/>
      <point x="393" y="-12"/>
      <point x="258.36" y="-12" type="curve" smooth="yes"/>
      <point x="185" y="-12"/>
      <point x="143" y="7"/>
      <point x="108" y="27" type="curve"/>
      <point x="68" y="-12" type="line"/>
      <point x="50" y="-4" type="line"/>
      <point x="50" y="692" type="line"/>
      <point x="380" y="692" type="line"/>
    </contour>
    <contour>
      <point x="144" y="163" type="line" smooth="yes"/>
      <point x="144" y="88.009"/>
      <point x="172.679" y="23"/>
      <point x="261" y="23" type="curve" smooth="yes"/>
      <point x="360" y="23"/>
      <point x="405" y="103"/>
      <point x="405" y="250" type="curve" smooth="yes"/>
      <point x="405" y="424"/>
      <point x="317" y="448"/>
      <point x="266.289" y="448" type="curve" smooth="yes"/>
      <point x="194.525" y="448"/>
      <point x="144" y="399.936"/>
      <point x="144" y="321" type="curve" smooth="yes"/>
    </contour>
  </outline>
</glyph>
<glyph name="uni0185" format="2">
  <advance width="598"/>
  <unicode hex="0185"/>
  <outline>
    <contour>
      <point x="90" y="438" type="line"/>
      <point x="20" y="488" type="line"/>
      <point x="20" y="513" type="line"/>
      <point x="177" y="692" type="line"/>
      <point x="184" y="686" type="line"/>
      <point x="184" y="438" type="line"/>
    </contour>
    <contour>
      <point x="184" y="438" type="line"/>
      <point x="184" y="431" type="line"/>
      <point x="221" y="459"/>
      <point x="280" y="502"/>
      <point x="363.426" y="502" type="curve" smooth="yes"/>
      <point x="536" y="502"/>
      <point x="549" y="318"/>
      <point x="549" y="251.286" type="curve" smooth="yes"/>
      <point x="549" y="52"/>
      <point x="433" y="-12"/>
      <point x="298.36" y="-12" type="curve" smooth="yes"/>
      <point x="225" y="-12"/>
      <point x="183" y="7"/>
      <point x="148" y="27" type="curve"/>
      <point x="108" y="-12" type="line"/>
      <point x="90" y="-4" type="line"/>
      <point x="90" y="438" type="line"/>
    </contour>
    <contour>
      <point x="184" y="163" type="line" smooth="yes"/>
      <point x="184" y="88.009"/>
      <point x="212.679" y="23"/>
      <point x="301" y="23" type="curve" smooth="yes"/>
      <point x="400" y="23"/>
      <point x="445" y="103"/>
      <point x="445" y="250" type="curve" smooth="yes"/>
      <point x="445" y="424"/>
      <point x="357" y="448"/>
      <point x="306.289" y="448" type="curve" smooth="yes"/>
      <point x="234.525" y="448"/>
      <point x="184" y="399.936"/>
      <point x="184" y="321" type="curve" smooth="yes"/>
    </contour>
  </outline>
</glyph>
<glyph name="uni0187" format="2">
  <advance width="684"/>
  <unicode hex="0187"/>
  <outline>
    <component base="C"/>
    <contour>
      <point x="632.718" y="643" type="line"/>
      <point x="632.718" y="723.85" type="line" smooth="yes"/>
      <point x="632.718" y="792.1"/>
      <point x="663.955" y="800.5"/>
      <point x="679.739" y="800.5" type="curve" smooth="yes"/>
      <point x="703.739" y="800.5"/>
      <point x="711.675" y="781.077"/>
      <point x="719.468" y="762.201" type="curve" smooth="yes"/>
      <point x="726.836" y="744.357"/>
      <point x="734.076" y="727"/>
      <point x="754.642" y="727" type="curve" smooth="yes"/>
      <point x="774.794" y="727"/>
      <point x="802" y="744.85"/>
      <point x="802" y="776.956" type="curve" smooth="yes"/>
      <point x="802" y="807.85"/>
      <point x="776.81" y="853"/>
      <point x="699.222" y="853" type="curve" smooth="yes"/>
      <point x="648.84" y="853"/>
      <point x="594.718" y="814.15"/>
      <point x="594.718" y="733.3" type="curve" smooth="yes"/>
      <point x="594.718" y="643" type="line"/>
    </contour>
  </outline>
</glyph>
<glyph name="uni0188" format="1">
  <advance width="630"/>
  <unicode hex="0188"/>
  <outline>
    <contour>
      <point x="49" y="240" type="curve" smooth="yes"/>
      <point x="49" y="373"/>
      <point x="110" y="502"/>
      <point x="292" y="502" type="curve" smooth="yes"/>
      <point x="350" y="502"/>
      <point x="396" y="487"/>
      <point x="426" y="466" type="curve"/>
      <point x="426" y="490" type="line" smooth="yes"/>
      <point x="426" y="594"/>
      <point x="480" y="633"/>
      <point x="532" y="633" type="curve" smooth="yes"/>
      <point x="609" y="633"/>
      <point x="634" y="590"/>
      <point x="634" y="559" type="curve" smooth="yes"/>
      <point x="634" y="530"/>
      <point x="607" y="513"/>
      <point x="587" y="513" type="curve" smooth="yes"/>
      <point x="545" y="513"/>
      <point x="559" y="583"/>
      <point x="509" y="583" type="curve" smooth="yes"/>
      <point x="497" y="583"/>
      <point x="466" y="575"/>
      <point x="466" y="490" type="curve" smooth="yes"/>
      <point x="466" y="405" type="line" smooth="yes"/>
      <point x="466" y="367"/>
      <point x="427" y="354"/>
      <point x="407" y="354" type="curve" smooth="yes"/>
      <point x="388" y="354"/>
      <point x="382" y="364"/>
      <point x="376" y="380" type="curve" smooth="yes"/>
      <point x="356" y="434"/>
      <point x="327" y="467"/>
      <point x="281" y="467" type="curve" smooth="yes"/>
      <point x="212" y="467"/>
      <point x="153" y="407"/>
      <point x="153" y="258" type="curve" smooth="yes"/>
      <point x="153" y="164"/>
      <point x="181" y="40"/>
      <point x="300" y="40" type="curve" smooth="yes"/>
      <point x="373" y="40"/>
      <point x="413" y="76"/>
      <point x="444" y="146" type="curve"/>
      <point x="473" y="132" type="line"/>
      <point x="445" y="25"/>
      <point x="351" y="-12"/>
      <point x="281" y="-12" type="curve" smooth="yes"/>
      <point x="131" y="-12"/>
      <point x="49" y="73"/>
    </contour>
  </outline>
</glyph>
<glyph name="uni018A" format="2">
  <advance width="898"/>
  <unicode hex="018A"/>
  <outline>
    <component base="D" xOffset="118"/>
    <contour>
      <point x="230" y="654" type="line"/>
      <point x="153" y="654" type="line" smooth="yes"/>
      <point x="88" y="654"/>
      <point x="80" y="622.763"/>
      <point x="80" y="606.979" type="curve" smooth="yes"/>
      <point x="80" y="582.979"/>
      <point x="98.498" y="575.043"/>
      <point x="116.475" y="567.25" type="curve" smooth="yes"/>
      <point x="133.47" y="559.882"/>
      <point x="150" y="552.642"/>
      <point x="150" y="532.076" type="curve" smooth="yes"/>
      <point x="150" y="511.924"/>
      <point x="133" y="484.718"/>
      <point x="102.423" y="484.718" type="curve" smooth="yes"/>
      <point x="73" y="484.718"/>
      <point x="30" y="509.908"/>
      <point x="30" y="587.496" type="curve" smooth="yes"/>
      <point x="30" y="637.878"/>
      <point x="67" y="692"/>
      <point x="144" y="692" type="curve" smooth="yes"/>
      <point x="230" y="692" type="line"/>
    </contour>
  </outline>
</glyph>
<glyph name="uni018B" format="1">
  <advance width="642"/>
  <unicode hex="018B"/>
  <outline>
    <contour>
      <point x="35" y="201" type="curve" smooth="yes"/>
      <point x="35" y="333"/>
      <point x="158" y="396"/>
      <point x="299" y="396" type="curve" smooth="yes"/>
      <point x="343" y="396"/>
      <point x="377" y="395"/>
      <point x="406" y="389" type="curve"/>
      <point x="406" y="621" type="line" smooth="yes"/>
      <point x="406" y="654"/>
      <point x="402" y="657"/>
      <point x="369" y="657" type="curve" smooth="yes"/>
      <point x="269" y="657" type="line" smooth="yes"/>
      <point x="177" y="657"/>
      <point x="135" y="633"/>
      <point x="113" y="528" type="curve"/>
      <point x="83" y="528" type="line"/>
      <point x="83" y="692" type="line"/>
      <point x="595" y="692" type="line"/>
      <point x="595" y="663" type="line"/>
      <point x="507" y="657"/>
      <point x="505" y="655"/>
      <point x="505" y="599" type="curve" smooth="yes"/>
      <point x="505" y="93" type="line" smooth="yes"/>
      <point x="505" y="37"/>
      <point x="507" y="35"/>
      <point x="595" y="29" type="curve"/>
      <point x="595" y="0" type="line"/>
      <point x="285" y="0" type="line" smooth="yes"/>
      <point x="133" y="0"/>
      <point x="35" y="53"/>
    </contour>
    <contour>
      <point x="142" y="194" type="curve" smooth="yes"/>
      <point x="142" y="64"/>
      <point x="224" y="35"/>
      <point x="310" y="35" type="curve" smooth="yes"/>
      <point x="390" y="35"/>
      <point x="406" y="50"/>
      <point x="406" y="112" type="curve" smooth="yes"/>
      <point x="406" y="351" type="line"/>
      <point x="392" y="354"/>
      <point x="349" y="361"/>
      <point x="321" y="361" type="curve" smooth="yes"/>
      <point x="218" y="361"/>
      <point x="142" y="303"/>
    </contour>
  </outline>
</glyph>
